<svg width="245" height="42" viewBox="0 0 245 42" fill="none" xmlns="http://www.w3.org/2000/svg">
<path d="M17.4177 0.494132L0.617647 10.1294C0.247059 10.3765 0 10.7471 0 11.2412V30.6353C0 31.1294 0.247059 31.5 0.617647 31.7471L17.4177 41.3824C17.7882 41.6294 18.2824 41.6294 18.7765 41.3824L35.5765 31.7471C35.9471 31.5 36.1941 31.1294 36.1941 30.6353V11.2412C36.1941 10.7471 35.9471 10.3765 35.5765 10.1294L18.7765 0.494132C18.4059 0.247073 17.9118 0.247073 17.4177 0.494132Z" fill="#EC2226"/>
<path d="M21.8647 37.1824L30.1412 18.4059L33.9706 16.3059V16.1824L25.6942 34.9588L21.9883 37.0588L21.8647 37.1824Z" fill="white"/>
<path d="M21.8647 23.2235L31.0059 31.8706L33.9706 30.1412L25.6942 21L21.8647 23.2235Z" fill="white"/>
<path d="M10.6232 34.9587L14.4526 37.1822L10.6232 20.9999L6.1761 18.4058L2.34668 30.1411L5.31142 31.8705L6.05256 29.6469L10.1291 31.994L10.6232 34.9587ZM6.67021 27.4234L8.27611 22.2352L9.51141 29.0293L6.67021 27.4234Z" fill="white"/>
<path d="M18.1591 22.1117C18.7731 22.1117 19.2709 21.614 19.2709 20.9999C19.2709 20.3859 18.7731 19.8882 18.1591 19.8882C17.5451 19.8882 17.0474 20.3859 17.0474 20.9999C17.0474 21.614 17.5451 22.1117 18.1591 22.1117Z" fill="white"/>
<path d="M3.08835 12.7236C3.29302 12.7236 3.45896 12.5577 3.45896 12.353C3.45896 12.1483 3.29302 11.9824 3.08835 11.9824C2.88368 11.9824 2.71777 12.1483 2.71777 12.353C2.71777 12.5577 2.88368 12.7236 3.08835 12.7236Z" fill="white"/>
<path d="M18.1594 19.8883L3.21237 11.9824L2.8418 12.6001L17.2947 21.7412L18.1594 19.8883Z" fill="white"/>
<path d="M33.2299 12.7236C33.4346 12.7236 33.6006 12.5577 33.6006 12.353C33.6006 12.1483 33.4346 11.9824 33.2299 11.9824C33.0253 11.9824 32.8594 12.1483 32.8594 12.353C32.8594 12.5577 33.0253 12.7236 33.2299 12.7236Z" fill="white"/>
<path d="M18.1592 19.8883L32.9827 11.9824L33.4768 12.6001L19.0239 21.7412L18.1592 19.8883Z" fill="white"/>
<path d="M18.5297 37.553H17.665L17.0474 21H19.2709L18.5297 37.553Z" fill="white"/>
<path d="M18.1587 37.9238C18.3634 37.9238 18.5293 37.7579 18.5293 37.5532C18.5293 37.3485 18.3634 37.1826 18.1587 37.1826C17.954 37.1826 17.7881 37.3485 17.7881 37.5532C17.7881 37.7579 17.954 37.9238 18.1587 37.9238Z" fill="white"/>
<path d="M55.2177 38.9118H60.0354V39.6529H54.353V31.6235H59.9119V32.3647H55.2177V38.9118ZM55.0942 35.2059H59.4177V35.9471H55.0942V35.2059Z" fill="#11192A"/>
<path d="M61.5181 39.653V31.5H62.3827V39.653H61.5181ZM62.1357 38.0471V36.9353L65.9651 33.4765H66.9534L64.2357 36.0706L63.7416 36.5647L62.1357 38.0471ZM66.2122 39.653L63.7416 36.4412L64.2357 35.8235L67.2004 39.653H66.2122Z" fill="#11192A"/>
<path d="M70.1644 39.7766C69.6703 39.7766 69.1762 39.653 68.8056 39.5295C68.3115 39.406 68.0644 39.1589 67.6938 39.0354L68.0644 38.4178C68.3115 38.5413 68.6821 38.7883 69.0526 38.9119C69.4232 39.0354 69.7938 39.1589 70.2879 39.1589C70.9056 39.1589 71.2762 39.0354 71.5232 38.9119C71.7703 38.7883 71.8938 38.5413 71.8938 38.1707C71.8938 37.9236 71.7703 37.8001 71.6468 37.6766C71.5232 37.553 71.2762 37.4295 71.0291 37.4295C70.7821 37.306 70.535 37.306 70.2879 37.306C70.0409 37.306 69.6703 37.1825 69.4233 37.1825C69.1762 37.1825 68.9291 37.0589 68.6821 36.9354C68.435 36.8119 68.3115 36.6883 68.0644 36.4413C67.9409 36.1942 67.8173 35.9472 67.8173 35.5766C67.8173 35.206 67.9409 34.9589 68.0644 34.7119C68.188 34.4648 68.5586 34.2178 68.9291 34.0942C69.2997 33.9707 69.6703 33.8472 70.2879 33.8472C70.6585 33.8472 71.0291 33.8472 71.5232 33.9707C71.8938 34.0942 72.2644 34.2177 72.5115 34.3413L72.1409 34.9589C71.8938 34.8354 71.5233 34.5883 71.2762 34.5883C71.0291 34.4648 70.6585 34.4648 70.4115 34.4648C69.9174 34.4648 69.4232 34.5883 69.1762 34.7119C68.9291 34.9589 68.8056 35.0825 68.8056 35.4531C68.8056 35.7001 68.9291 35.8236 69.0526 35.9472C69.1762 36.0707 69.4232 36.1942 69.6703 36.1942C69.9173 36.3177 70.1644 36.3178 70.4115 36.3178C70.6585 36.3178 71.0291 36.4413 71.2762 36.4413C71.5233 36.5648 71.7703 36.5648 72.0174 36.6883C72.2644 36.8119 72.388 36.9354 72.635 37.1825C72.7586 37.4295 72.8821 37.6766 72.8821 37.9236C72.8821 38.2942 72.7586 38.5413 72.635 38.7883C72.388 39.0354 72.1409 39.2825 71.7703 39.406C71.1527 39.6531 70.6586 39.7766 70.1644 39.7766Z" fill="#11192A"/>
<path d="M73.9937 41.8766V33.6001H74.7348V35.453L74.6113 36.6883L74.7348 37.9236V42.0001H73.9937V41.8766ZM77.0819 39.7766C76.5878 39.7766 76.0937 39.653 75.7231 39.406C75.3525 39.1589 74.9819 38.7883 74.7348 38.2942C74.4878 37.8001 74.3643 37.306 74.3643 36.5648C74.3643 35.8236 74.4878 35.3295 74.7348 34.8354C74.9819 34.3413 75.3525 33.9707 75.7231 33.8472C76.0937 33.7236 76.5878 33.4766 77.2054 33.4766C77.8231 33.4766 78.3172 33.6001 78.8113 33.8472C79.3054 34.0942 79.676 34.4648 79.9231 34.9589C80.1701 35.453 80.2937 35.9472 80.2937 36.5648C80.2937 37.1824 80.1701 37.6766 79.9231 38.1707C79.676 38.6648 79.3054 39.0354 78.8113 39.2824C78.1937 39.653 77.6995 39.7766 77.0819 39.7766ZM77.0819 39.0354C77.4525 39.0354 77.9466 38.9119 78.1937 38.7883C78.5643 38.5413 78.8113 38.2942 79.0584 37.9236C79.3054 37.553 79.3054 37.1825 79.3054 36.6883C79.3054 36.1942 79.1819 35.8236 79.0584 35.453C78.8113 35.0825 78.5643 34.8354 78.1937 34.5883C77.8231 34.3413 77.4525 34.3413 77.0819 34.3413C76.7113 34.3413 76.2172 34.4648 75.9701 34.5883C75.5995 34.8354 75.3525 35.0825 75.1054 35.453C74.8584 35.8236 74.8584 36.1942 74.8584 36.6883C74.8584 37.1825 74.9819 37.553 75.1054 37.9236C75.229 38.2942 75.5995 38.5413 75.9701 38.7883C76.2172 38.9119 76.5878 39.0354 77.0819 39.0354Z" fill="#11192A"/>
<path d="M84.2469 39.7766C83.6293 39.7766 83.1351 39.653 82.641 39.406C82.1469 39.1589 81.7763 38.7883 81.5293 38.2942C81.2822 37.8001 81.1587 37.306 81.1587 36.6883C81.1587 36.0707 81.2822 35.5766 81.5293 35.0824C81.7763 34.5883 82.1469 34.2177 82.641 33.9707C83.1351 33.7236 83.6293 33.6001 84.2469 33.6001C84.8646 33.6001 85.3587 33.7236 85.8528 33.9707C86.3469 34.2177 86.7175 34.5883 86.9646 35.0824C87.2116 35.5766 87.3352 36.0707 87.3352 36.6883C87.3352 37.306 87.2116 37.8001 86.9646 38.2942C86.7175 38.7883 86.3469 39.1589 85.8528 39.406C85.3587 39.653 84.8646 39.7766 84.2469 39.7766ZM84.2469 39.0354C84.741 39.0354 85.1116 38.9119 85.3587 38.7883C85.7293 38.5413 85.9763 38.2942 86.0999 37.9236C86.3469 37.553 86.3469 37.1825 86.3469 36.6883C86.3469 36.1942 86.2234 35.8236 86.0999 35.453C85.8528 35.0825 85.6057 34.8354 85.3587 34.5883C84.9881 34.3413 84.6175 34.3413 84.2469 34.3413C83.8763 34.3413 83.3822 34.4648 83.1352 34.5883C82.7646 34.8354 82.5175 35.0825 82.2704 35.453C82.0234 35.8236 82.0234 36.1942 82.0234 36.6883C82.0234 37.1825 82.1469 37.553 82.2704 37.9236C82.394 38.2942 82.7646 38.5413 83.0116 38.7883C83.3822 38.9119 83.8763 39.0354 84.2469 39.0354Z" fill="#11192A"/>
<path d="M88.8179 39.653V33.6001H89.5591V35.206L89.4355 34.9589C89.559 34.4648 89.9297 34.0942 90.3002 33.8472C90.6708 33.6001 91.165 33.4766 91.7826 33.4766V34.2177C91.7826 34.2177 91.7826 34.2177 91.6591 34.2177C91.6591 34.2177 91.6591 34.2177 91.5355 34.2177C90.9179 34.2177 90.4238 34.4648 90.0532 34.8354C89.6826 35.206 89.5591 35.8236 89.5591 36.4413V39.5295H88.8179V39.653Z" fill="#11192A"/>
<path d="M96.5996 39.653V31.5H97.4643V39.653H96.5996Z" fill="#11192A"/>
<path d="M107.224 33.6001C107.718 33.6001 108.088 33.7236 108.459 33.8472C108.83 34.0942 109.077 34.3413 109.324 34.7119C109.571 35.0824 109.571 35.5766 109.571 36.1942V39.7766H108.706V36.3177C108.706 35.7001 108.583 35.206 108.212 34.8354C107.965 34.4648 107.471 34.3413 106.977 34.3413C106.606 34.3413 106.236 34.4648 105.865 34.5883C105.618 34.7118 105.371 34.9589 105.124 35.3295C105 35.7001 104.877 36.0707 104.877 36.5648V39.7766H104.012V36.3177C104.012 35.7001 103.888 35.206 103.518 34.8354C103.271 34.4648 102.777 34.3413 102.283 34.3413C101.912 34.3413 101.541 34.4648 101.171 34.5883C100.924 34.7118 100.677 34.9589 100.43 35.3295C100.306 35.7001 100.183 36.0707 100.183 36.5648V39.7766H99.5649V33.7236H100.306V35.3295L100.183 35.0824C100.306 34.5883 100.677 34.3413 101.047 34.0942C101.418 33.8471 101.912 33.7236 102.53 33.7236C103.147 33.7236 103.641 33.8472 104.012 34.2177C104.383 34.4648 104.753 34.9589 104.877 35.5766L104.506 35.453C104.63 34.9589 105 34.5883 105.494 34.2177C105.988 33.7236 106.483 33.6001 107.224 33.6001Z" fill="#11192A"/>
<path d="M111.547 41.8766V33.6001H112.288V35.453L112.165 36.6883L112.288 37.9236V42.0001H111.547V41.8766ZM114.635 39.7766C114.141 39.7766 113.647 39.653 113.276 39.406C112.906 39.1589 112.535 38.7883 112.288 38.2942C112.041 37.8001 111.917 37.306 111.917 36.5648C111.917 35.8236 112.041 35.3295 112.288 34.8354C112.535 34.3413 112.906 33.9707 113.276 33.8472C113.647 33.6001 114.141 33.4766 114.759 33.4766C115.376 33.4766 115.87 33.6001 116.365 33.8472C116.859 34.0942 117.229 34.4648 117.476 34.9589C117.723 35.453 117.847 35.9472 117.847 36.5648C117.847 37.1824 117.723 37.6766 117.476 38.1707C117.229 38.6648 116.859 39.0354 116.365 39.2824C115.87 39.5295 115.253 39.7766 114.635 39.7766ZM114.512 39.0354C114.882 39.0354 115.376 38.9119 115.623 38.7883C115.994 38.5413 116.241 38.2942 116.488 37.9236C116.735 37.553 116.735 37.1825 116.735 36.6883C116.735 36.1942 116.612 35.8236 116.488 35.453C116.241 35.0825 115.994 34.8354 115.623 34.5883C115.253 34.3413 114.882 34.3413 114.512 34.3413C114.141 34.3413 113.647 34.4648 113.4 34.5883C113.029 34.8354 112.782 35.0825 112.535 35.453C112.288 35.8236 112.288 36.1942 112.288 36.6883C112.288 37.1825 112.412 37.553 112.535 37.9236C112.782 38.2942 113.029 38.5413 113.4 38.7883C113.77 38.9119 114.141 39.0354 114.512 39.0354Z" fill="#11192A"/>
<path d="M121.8 39.7766C121.183 39.7766 120.688 39.653 120.194 39.406C119.7 39.1589 119.33 38.7883 119.082 38.2942C118.835 37.8001 118.712 37.306 118.712 36.6883C118.712 36.0707 118.835 35.5766 119.082 35.0824C119.33 34.5883 119.7 34.2177 120.194 33.9707C120.688 33.7236 121.183 33.6001 121.8 33.6001C122.418 33.6001 122.912 33.7236 123.406 33.9707C123.9 34.2177 124.271 34.5883 124.518 35.0824C124.765 35.5766 124.888 36.0707 124.888 36.6883C124.888 37.306 124.765 37.8001 124.518 38.2942C124.271 38.7883 123.9 39.1589 123.406 39.406C122.912 39.653 122.418 39.7766 121.8 39.7766ZM121.8 39.0354C122.294 39.0354 122.665 38.9119 122.912 38.7883C123.282 38.5413 123.53 38.2942 123.653 37.9236C123.9 37.553 123.9 37.1825 123.9 36.6883C123.9 36.1942 123.777 35.8236 123.653 35.453C123.406 35.0825 123.159 34.8354 122.912 34.5883C122.541 34.3413 122.171 34.3413 121.8 34.3413C121.43 34.3413 120.935 34.4648 120.688 34.5883C120.318 34.8354 120.071 35.0825 119.824 35.453C119.577 35.8236 119.577 36.1942 119.577 36.6883C119.577 37.1825 119.7 37.553 119.824 37.9236C120.071 38.2942 120.318 38.5413 120.565 38.7883C120.935 38.9119 121.306 39.0354 121.8 39.0354Z" fill="#11192A"/>
<path d="M126.371 39.653V33.6001H127.112V35.206L126.988 34.9589C127.112 34.4648 127.482 34.0942 127.853 33.8472C128.224 33.6001 128.718 33.4766 129.335 33.4766V34.2177C129.335 34.2177 129.335 34.2177 129.212 34.2177C129.212 34.2177 129.212 34.2177 129.088 34.2177C128.471 34.2177 127.976 34.4648 127.606 34.8354C127.235 35.206 127.112 35.8236 127.112 36.4413V39.5295H126.371V39.653Z" fill="#11192A"/>
<path d="M135.017 39.7765C134.523 39.7765 134.153 39.6529 133.782 39.5294C133.412 39.2824 133.041 39.0353 132.794 38.6647L133.288 38.0471C133.535 38.4177 133.782 38.6647 134.029 38.7882C134.276 38.9118 134.647 39.0353 135.017 39.0353C136.006 39.0353 136.5 38.4177 136.5 37.3059V32.3647H133.535V31.6235H137.365V37.1824C137.365 38.0471 137.117 38.6647 136.747 39.1588C136.376 39.5294 135.882 39.7765 135.017 39.7765Z" fill="#11192A"/>
<path d="M141.194 39.7766C140.7 39.7766 140.33 39.653 139.959 39.5295C139.588 39.406 139.341 39.1589 139.218 38.9118C139.094 38.6648 138.971 38.2942 138.971 38.0471C138.971 37.6766 139.094 37.4295 139.218 37.1824C139.341 36.9354 139.588 36.6883 139.959 36.5648C140.33 36.4413 140.7 36.3177 141.318 36.3177H143.418V36.9354H141.318C140.7 36.9354 140.33 37.0589 140.082 37.306C139.835 37.553 139.712 37.8001 139.712 38.0471C139.712 38.4177 139.835 38.6648 140.082 38.9118C140.33 39.1589 140.7 39.2824 141.194 39.2824C141.688 39.2824 142.059 39.1589 142.43 38.9118C142.8 38.6648 143.047 38.4177 143.171 38.0471L143.294 38.6648C143.171 39.0354 142.924 39.406 142.43 39.653C142.182 39.653 141.812 39.7766 141.194 39.7766ZM143.294 39.653V38.2942V38.0471V35.8236C143.294 35.3295 143.171 34.9589 142.8 34.5883C142.553 34.3413 142.059 34.2177 141.565 34.2177C141.194 34.2177 140.824 34.3413 140.453 34.4648C140.082 34.5883 139.835 34.7119 139.588 34.9589L139.218 34.3413C139.465 34.0942 139.835 33.8471 140.33 33.7236C140.7 33.6001 141.194 33.4766 141.688 33.4766C142.43 33.4766 143.047 33.7236 143.541 34.0942C143.912 34.4648 144.159 35.0824 144.159 35.8236V39.5295H143.294V39.653Z" fill="#11192A"/>
<path d="M148.482 39.7765C147.865 39.7765 147.37 39.6529 146.876 39.4059C146.382 39.1588 146.012 38.7882 145.765 38.2941C145.518 37.8 145.394 37.3059 145.394 36.6882C145.394 36.0706 145.518 35.5765 145.765 35.0823C146.012 34.5882 146.382 34.2176 146.876 33.9706C147.37 33.7235 147.865 33.6 148.482 33.6C148.976 33.6 149.47 33.7235 149.965 33.9706C150.459 34.2176 150.706 34.5882 150.953 34.9588C151.2 35.4529 151.323 35.9471 151.323 36.6882C151.323 37.3059 151.2 37.9235 150.953 38.4176C150.706 38.9118 150.335 39.2823 149.965 39.5294C149.594 39.6529 149.1 39.7765 148.482 39.7765ZM148.606 39.0353C148.976 39.0353 149.471 38.9118 149.718 38.7882C150.088 38.5412 150.335 38.2941 150.582 37.9235C150.829 37.5529 150.829 37.1824 150.829 36.6882C150.829 36.1941 150.706 35.8235 150.582 35.4529C150.335 35.0824 150.088 34.8353 149.718 34.5882C149.347 34.3412 148.976 34.3412 148.606 34.3412C148.235 34.3412 147.741 34.4647 147.494 34.5882C147.123 34.8353 146.876 35.0824 146.629 35.4529C146.382 35.8235 146.382 36.1941 146.382 36.6882C146.382 37.1824 146.506 37.5529 146.629 37.9235C146.876 38.2941 147.123 38.5412 147.494 38.7882C147.741 38.9118 148.112 39.0353 148.606 39.0353ZM150.829 39.6529V37.8L150.953 36.5647L150.829 35.3294V31.3765H151.694V39.5294H150.829V39.6529Z" fill="#11192A"/>
<path d="M154.041 32.6118C153.917 32.6118 153.67 32.6118 153.67 32.4882C153.547 32.3647 153.547 32.2412 153.547 32.1176C153.547 31.9941 153.547 31.8706 153.67 31.7471C153.794 31.6235 153.917 31.6235 154.041 31.6235C154.165 31.6235 154.412 31.6235 154.412 31.7471C154.535 31.8706 154.535 31.9941 154.535 32.1176C154.535 32.2412 154.535 32.4882 154.412 32.4882C154.288 32.6118 154.165 32.6118 154.041 32.6118ZM153.547 39.6529V33.6H154.412V39.6529H153.547Z" fill="#11192A"/>
<path d="M159.847 39.6529V31.6235H160.711V38.9118H165.282V39.6529H159.847Z" fill="#11192A"/>
<path d="M168.742 39.7766C168.124 39.7766 167.506 39.653 167.136 39.406C166.642 39.1589 166.271 38.7883 166.024 38.2942C165.777 37.8001 165.653 37.306 165.653 36.6883C165.653 36.0707 165.777 35.5766 166.024 35.0824C166.271 34.5883 166.642 34.2177 167.136 33.9707C167.63 33.7236 168.124 33.6001 168.618 33.6001C169.236 33.6001 169.73 33.7236 170.1 33.9707C170.595 34.2177 170.842 34.5883 171.089 35.0824C171.336 35.5766 171.459 36.0707 171.459 36.6883V36.8119V36.9354H166.147V36.3177H170.965L170.594 36.5648C170.594 36.0707 170.471 35.7001 170.347 35.453C170.1 35.0825 169.853 34.8354 169.606 34.5883C169.236 34.3413 168.865 34.3413 168.494 34.3413C168.124 34.3413 167.753 34.4648 167.383 34.5883C167.012 34.8354 166.765 35.0825 166.642 35.453C166.518 35.8236 166.395 36.1942 166.395 36.6883V36.8119C166.395 37.306 166.518 37.6766 166.642 38.0471C166.889 38.4177 167.136 38.6648 167.506 38.9118C167.877 39.1589 168.247 39.1589 168.742 39.1589C169.112 39.1589 169.483 39.0354 169.73 38.9118C170.1 38.7883 170.347 38.5413 170.594 38.2942L171.089 38.7883C170.842 39.1589 170.471 39.406 170.1 39.5295C169.73 39.653 169.236 39.7766 168.742 39.7766Z" fill="#11192A"/>
<path d="M172.941 39.653V31.5H173.806V35.453L173.682 36.6883L173.806 37.9235V39.7765H172.941V39.653ZM176.029 39.7765C175.535 39.7765 175.041 39.653 174.547 39.4059C174.176 39.1588 173.806 38.7882 173.559 38.2941C173.312 37.8 173.188 37.3059 173.188 36.5647C173.188 35.9471 173.312 35.3294 173.559 34.8353C173.806 34.3412 174.176 33.9706 174.547 33.8471C174.917 33.6 175.411 33.4765 175.906 33.4765C176.523 33.4765 177.017 33.6 177.512 33.8471C178.006 34.0941 178.376 34.4647 178.623 34.9588C178.87 35.4529 178.994 35.9471 178.994 36.5647C178.994 37.1824 178.87 37.6765 178.623 38.1706C178.376 38.6647 178.006 39.0353 177.512 39.2824C177.141 39.6529 176.647 39.7765 176.029 39.7765ZM175.906 39.0353C176.276 39.0353 176.77 38.9118 177.017 38.7882C177.388 38.5412 177.635 38.2941 177.882 37.9235C178.129 37.553 178.129 37.1824 178.129 36.6883C178.129 36.1941 178.006 35.8235 177.882 35.453C177.635 35.0824 177.388 34.8353 177.017 34.5882C176.647 34.3412 176.276 34.3412 175.906 34.3412C175.535 34.3412 175.041 34.4647 174.794 34.5882C174.423 34.8353 174.176 35.0824 173.929 35.453C173.682 35.8235 173.682 36.1941 173.682 36.6883C173.682 37.1824 173.806 37.553 173.929 37.9235C174.176 38.2941 174.423 38.5412 174.794 38.7882C175.164 38.9118 175.535 39.0353 175.906 39.0353Z" fill="#11192A"/>
<path d="M180.847 32.6118C180.724 32.6118 180.477 32.6118 180.477 32.4882C180.353 32.3647 180.353 32.2412 180.353 32.1176C180.353 31.9941 180.353 31.8706 180.477 31.7471C180.6 31.6235 180.724 31.6235 180.847 31.6235C180.971 31.6235 181.218 31.6235 181.218 31.7471C181.218 31.8706 181.341 31.9941 181.341 32.1176C181.341 32.2412 181.341 32.4882 181.218 32.4882C181.218 32.6118 181.094 32.6118 180.847 32.6118ZM180.477 39.6529V33.6H181.341V39.6529H180.477Z" fill="#11192A"/>
<path d="M186.282 33.6C186.776 33.6 187.147 33.7235 187.641 33.8471C188.011 34.0941 188.259 34.3412 188.506 34.7118C188.753 35.0824 188.876 35.5765 188.876 36.1941V39.7765H188.011V36.3177C188.011 35.7 187.888 35.2059 187.517 34.8353C187.147 34.4647 186.776 34.3412 186.159 34.3412C185.788 34.3412 185.294 34.4647 185.047 34.5882C184.676 34.7118 184.429 34.9588 184.306 35.3294C184.182 35.7 184.059 36.0706 184.059 36.5647V39.7765H183.194V31.6235H184.059V35.453L183.935 35.0824C184.182 34.5882 184.429 34.3412 184.8 34.0941C185.17 33.7235 185.664 33.6 186.282 33.6Z" fill="#11192A"/>
<path d="M194.188 39.6529V31.6235H194.929L198.635 37.9235H198.264L201.97 31.6235H202.712V39.6529H201.847V32.8588H202.094L198.759 38.6647H198.388L195.053 32.8588H195.3V39.6529H194.188Z" fill="#11192A"/>
<path d="M207.159 39.7766C206.665 39.7766 206.171 39.653 205.8 39.5295C205.43 39.2824 205.059 39.0354 204.936 38.6648C204.688 38.2942 204.565 37.8001 204.565 37.1824V33.6001H205.43V37.0589C205.43 37.6766 205.553 38.1707 205.924 38.5413C206.294 38.9119 206.665 39.0354 207.283 39.0354C207.653 39.0354 208.024 38.9119 208.394 38.7883C208.765 38.6648 208.888 38.4177 209.136 38.0471C209.259 37.6766 209.383 37.306 209.383 36.8119V33.6001H210.247V39.653H209.506V38.0471L209.63 38.2942C209.383 38.7883 209.136 39.0354 208.765 39.2824C208.271 39.653 207.777 39.7766 207.159 39.7766Z" fill="#11192A"/>
<path d="M214.694 39.7765C214.077 39.7765 213.582 39.6529 213.088 39.4059C212.594 39.1588 212.224 38.7882 211.977 38.2941C211.729 37.8 211.606 37.3059 211.606 36.6882C211.606 36.0706 211.729 35.5765 211.977 35.0823C212.224 34.5882 212.594 34.2176 213.088 33.9706C213.582 33.7235 214.077 33.6 214.694 33.6C215.188 33.6 215.682 33.7235 216.177 33.9706C216.671 34.2176 216.918 34.5882 217.165 34.9588C217.412 35.4529 217.535 35.9471 217.535 36.6882C217.535 37.3059 217.412 37.9235 217.165 38.4176C216.918 38.9118 216.547 39.2823 216.177 39.5294C215.682 39.6529 215.188 39.7765 214.694 39.7765ZM214.694 39.0353C215.065 39.0353 215.559 38.9118 215.806 38.7882C216.177 38.5412 216.424 38.2941 216.671 37.9235C216.918 37.5529 216.918 37.1824 216.918 36.6882C216.918 36.1941 216.794 35.8235 216.671 35.4529C216.424 35.0824 216.177 34.8353 215.806 34.5882C215.435 34.3412 215.065 34.3412 214.694 34.3412C214.324 34.3412 213.829 34.4647 213.582 34.5882C213.212 34.8353 212.965 35.0824 212.718 35.4529C212.471 35.8235 212.471 36.1941 212.471 36.6882C212.471 37.1824 212.594 37.5529 212.718 37.9235C212.965 38.2941 213.212 38.5412 213.582 38.7882C213.953 38.9118 214.324 39.0353 214.694 39.0353ZM217.041 39.6529V37.8L217.165 36.5647L217.041 35.3294V31.3765H217.906V39.5294H217.041V39.6529Z" fill="#11192A"/>
<path d="M221.488 39.7766C220.994 39.7766 220.623 39.653 220.253 39.5295C219.882 39.406 219.635 39.1589 219.512 38.9118C219.388 38.6648 219.265 38.2942 219.265 38.0471C219.265 37.6766 219.388 37.4295 219.512 37.1824C219.635 36.9354 219.882 36.6883 220.253 36.5648C220.623 36.4413 220.994 36.3177 221.612 36.3177H223.712V36.9354H221.612C220.994 36.9354 220.623 37.0589 220.376 37.306C220.129 37.553 220.006 37.8001 220.006 38.0471C220.006 38.4177 220.129 38.6648 220.376 38.9118C220.623 39.1589 220.994 39.2824 221.488 39.2824C221.982 39.2824 222.353 39.1589 222.723 38.9118C223.094 38.6648 223.341 38.4177 223.465 38.0471L223.588 38.6648C223.465 39.0354 223.218 39.406 222.723 39.653C222.6 39.653 222.106 39.7766 221.488 39.7766ZM223.588 39.653V38.2942V38.0471V35.8236C223.588 35.3295 223.465 34.9589 223.094 34.5883C222.847 34.3413 222.353 34.2177 221.859 34.2177C221.488 34.2177 221.118 34.3413 220.747 34.4648C220.376 34.5883 220.129 34.7119 219.882 34.9589L219.512 34.3413C219.759 34.0942 220.129 33.8471 220.623 33.7236C220.994 33.6001 221.488 33.4766 221.982 33.4766C222.723 33.4766 223.341 33.7236 223.835 34.0942C224.206 34.4648 224.453 35.0824 224.453 35.8236V39.5295H223.588V39.653Z" fill="#11192A"/>
<path d="M229.394 33.6C229.889 33.6 230.259 33.7235 230.753 33.8471C231.124 34.0941 231.371 34.3412 231.618 34.7118C231.865 35.0824 231.989 35.5765 231.989 36.1941V39.7765H231.124V36.3177C231.124 35.7 231 35.2059 230.63 34.8353C230.259 34.4647 229.889 34.3412 229.271 34.3412C228.9 34.3412 228.406 34.4647 228.159 34.5882C227.789 34.7118 227.541 34.9588 227.418 35.3294C227.294 35.7 227.171 36.0706 227.171 36.5647V39.7765H226.306V31.6235H227.171V35.453L227.047 35.0824C227.294 34.5882 227.542 34.3412 227.912 34.0941C228.283 33.7235 228.777 33.6 229.394 33.6Z" fill="#11192A"/>
<path d="M54.353 19.5177L62.3824 1.72949H64.853L73.006 19.5177H70.2883L63.1236 3.08831H64.1118L56.9472 19.5177H54.353ZM57.8119 15.0707L58.553 12.9707H68.5589L69.3001 15.0707H57.8119Z" fill="#11192A"/>
<path d="M74.6113 19.5176V0H77.0819V9.63529L76.8349 12.7235L76.9584 15.8118V19.3941H74.6113V19.5176ZM81.7761 19.7647C80.6643 19.7647 79.5525 19.5177 78.6878 19.0235C77.8231 18.5294 77.0819 17.7882 76.4643 16.6765C75.8466 15.5647 75.7231 14.3294 75.7231 12.8471C75.7231 11.3647 75.9702 10.0059 76.5878 9.01764C77.0819 8.02941 77.8231 7.28824 78.8114 6.67059C79.6761 6.17647 80.7878 5.92941 81.8996 5.92941C83.2584 5.92941 84.3702 6.17646 85.3584 6.79411C86.3466 7.41176 87.2113 8.15295 87.829 9.14118C88.4466 10.1294 88.6937 11.3647 88.6937 12.7235C88.6937 14.0824 88.4466 15.3177 87.829 16.3059C87.2113 17.2941 86.4702 18.1588 85.3584 18.7765C84.2466 19.3941 83.0114 19.7647 81.7761 19.7647ZM81.529 17.5412C82.3937 17.5412 83.1349 17.2941 83.876 16.9235C84.6172 16.553 85.1114 15.9353 85.4819 15.1941C85.8525 14.4529 86.0996 13.5882 86.0996 12.7235C86.0996 11.7353 85.8525 10.8706 85.4819 10.2529C85.1114 9.51176 84.4937 9.01764 83.876 8.64705C83.1349 8.27646 82.3937 8.0294 81.529 8.0294C80.6643 8.0294 79.9231 8.27646 79.1819 8.64705C78.4408 9.01764 77.9467 9.63529 77.5761 10.2529C77.2055 10.9941 76.9584 11.7353 76.9584 12.7235C76.9584 13.7118 77.2055 14.4529 77.5761 15.1941C77.9467 15.9353 78.5643 16.4294 79.1819 16.9235C79.9231 17.4177 80.6643 17.5412 81.529 17.5412Z" fill="#11192A"/>
<path d="M95.1179 19.7647C94.1297 19.7647 93.265 19.6412 92.5238 19.2706C91.7826 18.9 91.165 18.4059 90.7944 17.9118C90.4238 17.2941 90.1768 16.6765 90.1768 15.8118C90.1768 15.0706 90.3003 14.453 90.6709 13.8353C91.0415 13.2177 91.5356 12.7236 92.4003 12.353C93.265 11.9824 94.2532 11.8589 95.612 11.8589H99.9356V13.5883H95.7356C94.5003 13.5883 93.6356 13.8353 93.265 14.2059C92.8944 14.5765 92.6473 15.0706 92.6473 15.6883C92.6473 16.3059 92.8944 16.9236 93.3885 17.2941C93.8826 17.6647 94.6238 17.9118 95.612 17.9118C96.4768 17.9118 97.3415 17.6647 97.9591 17.2941C98.7003 16.9236 99.1944 16.3059 99.4415 15.5647L99.9356 17.2941C99.565 18.0353 99.0709 18.7765 98.2062 19.1471C97.3415 19.5177 96.3532 19.7647 95.1179 19.7647ZM99.565 19.5177V16.6765L99.4415 16.1824V11.3647C99.4415 10.3765 99.1944 9.5118 98.5768 9.01768C97.9591 8.40003 97.0944 8.15298 95.8591 8.15298C95.1179 8.15298 94.2532 8.27651 93.5121 8.52357C92.7709 8.77063 92.1532 9.14121 91.5356 9.63532L90.5474 7.78238C91.2885 7.16474 92.0297 6.79415 93.018 6.54709C94.0062 6.30003 94.9944 6.05298 96.1062 6.05298C97.9591 6.05298 99.4415 6.54709 100.43 7.41179C101.418 8.2765 101.912 9.63532 101.912 11.4883V19.6412H99.565V19.5177Z" fill="#11192A"/>
<path d="M112.165 5.92944C113.276 5.92944 114.265 6.1765 115.129 6.54709C115.994 6.91768 116.612 7.65886 117.106 8.52357C117.6 9.38828 117.847 10.5 117.847 11.8589V19.6412H115.376V12.1059C115.376 10.7471 115.006 9.75886 114.388 9.14122C113.771 8.52357 112.906 8.15298 111.671 8.15298C110.806 8.15298 110.065 8.2765 109.447 8.64709C108.829 9.01768 108.335 9.51181 107.965 10.1295C107.594 10.7471 107.471 11.6118 107.471 12.6V19.5177H105V6.05298H107.347V9.63533L106.976 8.64709C107.471 7.78238 108.088 7.04121 108.953 6.54709C109.818 6.1765 110.929 5.92944 112.165 5.92944Z" fill="#11192A"/>
<path d="M126.124 19.0236C124.765 19.0236 123.653 18.7765 122.665 18.1589C121.677 17.6647 120.812 16.8 120.194 15.8118C119.577 14.8235 119.33 13.7118 119.33 12.353C119.33 10.9941 119.577 9.88238 120.194 8.89414C120.812 7.90591 121.553 7.16473 122.665 6.67061C123.653 6.17649 124.888 5.80591 126.124 5.80591C127.235 5.80591 128.347 6.05296 129.335 6.54707C130.324 7.04119 131.065 7.78236 131.559 8.64707C132.053 9.51178 132.424 10.8706 132.424 12.353C132.424 13.8353 132.177 15.0706 131.559 15.9353C130.941 16.8 130.2 17.6647 129.335 18.1589C128.347 18.7765 127.235 19.0236 126.124 19.0236ZM126.371 24.7059C125.135 24.7059 123.9 24.5824 122.788 24.2118C121.677 23.8412 120.688 23.3471 119.947 22.7294L121.059 20.8765C121.677 21.3706 122.418 21.8647 123.406 22.1118C124.271 22.4824 125.259 22.6059 126.247 22.6059C127.853 22.6059 128.965 22.2353 129.706 21.4941C130.447 20.753 130.818 19.6412 130.818 18.0353V15.1941L131.065 12.4765L130.941 9.75885V6.05296H133.288V17.6647C133.288 20.0118 132.671 21.7412 131.559 22.853C130.447 24.0882 128.718 24.7059 126.371 24.7059ZM126.371 16.9236C127.235 16.9236 128.1 16.6765 128.718 16.3059C129.459 15.9353 129.953 15.4412 130.324 14.7C130.694 14.0824 130.941 13.2177 130.941 12.353C130.941 11.4882 130.694 10.7471 130.324 10.0059C129.953 9.38825 129.335 8.77061 128.718 8.52355C127.977 8.15296 127.235 8.02942 126.371 8.02942C125.506 8.02942 124.641 8.15296 124.024 8.52355C123.283 8.89414 122.788 9.38825 122.418 10.0059C122.047 10.6235 121.8 11.4882 121.8 12.353C121.8 13.2177 122.047 13.9588 122.418 14.7C122.788 15.3177 123.406 15.9353 124.024 16.3059C124.641 16.6765 125.506 16.9236 126.371 16.9236Z" fill="#11192A"/>
<path d="M146.753 16.306H156.512V19.6413H142.677V1.85303H156.389V5.18833H146.63V16.306H146.753ZM146.383 8.89421H155.03V12.106H146.383V8.89421Z" fill="#11192A"/>
<path d="M157.994 19.5177L164.17 11.4883L164.047 13.7118L158.241 5.80591H162.688L166.394 10.8706H164.664L168.494 5.68237H172.694L166.764 13.4647V11.3647L172.941 19.3941H168.37L164.417 13.9588L166.023 14.2059L162.194 19.3941H157.994V19.5177Z" fill="#11192A"/>
<path d="M175.288 24.4588V5.80591H179.118V8.64707L178.994 12.7235L179.241 16.8V24.4588H175.288ZM183.318 19.7647C182.206 19.7647 181.218 19.5177 180.353 19.0236C179.488 18.5294 178.87 17.7882 178.376 16.6765C177.882 15.6882 177.635 14.3294 177.635 12.7235C177.635 11.1177 177.882 9.75884 178.376 8.77061C178.87 7.78237 179.488 6.91767 180.353 6.42356C181.218 5.92944 182.206 5.68237 183.441 5.68237C184.8 5.68237 185.912 5.92943 186.9 6.54708C187.888 7.16472 188.753 7.9059 189.37 9.01766C189.988 10.1294 190.235 11.3647 190.235 12.7235C190.235 14.2059 189.988 15.4412 189.37 16.4294C188.753 17.4177 188.012 18.2824 186.9 18.9C185.788 19.5177 184.553 19.7647 183.318 19.7647ZM182.7 16.553C183.318 16.553 183.935 16.4294 184.429 16.0588C184.923 15.8118 185.418 15.3177 185.665 14.7C186.035 14.0824 186.159 13.4647 186.159 12.7235C186.159 11.9824 186.035 11.2412 185.665 10.6236C185.294 10.0059 184.923 9.63531 184.429 9.38826C183.935 9.1412 183.318 8.89415 182.7 8.89415C182.082 8.89415 181.465 9.01767 180.97 9.38826C180.476 9.63531 179.982 10.1294 179.735 10.6236C179.365 11.2412 179.241 11.8588 179.241 12.7235C179.241 13.4647 179.365 14.2059 179.735 14.7C180.106 15.3177 180.476 15.6882 180.97 16.0588C181.341 16.3059 181.959 16.553 182.7 16.553Z" fill="#11192A"/>
<path d="M192.459 19.5177V5.80591H196.288V9.75885L195.794 8.64707C196.165 7.65884 196.906 6.91768 197.771 6.42356C198.635 5.92944 199.747 5.68237 201.106 5.68237V9.38826C200.983 9.38826 200.859 9.38825 200.612 9.26472C200.488 9.26472 200.365 9.26472 200.241 9.26472C199.13 9.26472 198.265 9.63531 197.524 10.253C196.906 10.8706 196.535 11.8589 196.535 13.2177V19.6412H192.459V19.5177Z" fill="#11192A"/>
<path d="M210.247 19.7647C208.641 19.7647 207.282 19.5177 206.171 18.9C205.059 18.2824 204.071 17.4177 203.453 16.4294C202.835 15.3177 202.465 14.2059 202.465 12.8471C202.465 11.4883 202.835 10.253 203.453 9.26473C204.071 8.15297 204.935 7.41179 206.047 6.79415C207.159 6.1765 208.394 5.92944 209.753 5.92944C211.112 5.92944 212.347 6.1765 213.335 6.79415C214.447 7.41179 215.312 8.15297 215.93 9.26473C216.547 10.3765 216.918 11.6118 216.918 13.0942C216.918 13.2177 216.918 13.4647 216.918 13.5883C216.918 13.8353 216.918 13.9589 216.918 14.0824H205.8V11.7353H214.818L213.212 12.4765C213.212 11.7353 213.088 11.1177 212.841 10.6236C212.594 10.1294 212.1 9.63533 211.606 9.38827C211.112 9.14121 210.494 8.89416 209.877 8.89416C209.135 8.89416 208.641 9.01768 208.024 9.38827C207.53 9.63533 207.159 10.1294 206.788 10.6236C206.541 11.1177 206.294 11.7353 206.294 12.4765V13.0942C206.294 13.8353 206.418 14.5765 206.788 15.0706C207.159 15.6883 207.653 16.0589 208.147 16.3059C208.765 16.553 209.506 16.8 210.247 16.8C210.988 16.8 211.606 16.6765 212.1 16.4294C212.594 16.1824 213.212 15.9353 213.582 15.4412L215.683 17.7883C215.065 18.5295 214.324 19.0236 213.335 19.3942C212.594 19.6412 211.482 19.7647 210.247 19.7647Z" fill="#11192A"/>
<path d="M224.33 19.7647C223.218 19.7647 221.983 19.6412 220.994 19.3941C219.883 19.1471 219.018 18.7765 218.4 18.2824L219.759 15.4412C220.377 15.8118 221.118 16.1824 221.983 16.4294C222.847 16.6765 223.712 16.8 224.577 16.8C225.442 16.8 226.183 16.6765 226.553 16.4294C226.924 16.1824 227.171 15.9353 227.171 15.5647C227.171 15.1941 227.047 14.9471 226.677 14.8235C226.43 14.7 225.936 14.5765 225.565 14.453C225.071 14.3294 224.577 14.3294 223.959 14.2059C223.342 14.0824 222.724 13.9589 222.23 13.8353C221.612 13.7118 221.118 13.4647 220.624 13.2177C220.13 12.9706 219.759 12.6 219.389 12.1059C219.142 11.6118 218.894 10.9941 218.894 10.253C218.894 9.38825 219.142 8.64708 219.636 7.90591C220.13 7.28826 220.871 6.67061 221.859 6.30002C222.847 5.92943 223.959 5.68237 225.195 5.68237C226.183 5.68237 227.047 5.80591 228.036 6.05297C229.024 6.30002 229.765 6.54708 230.506 6.91767L229.147 9.75885C228.53 9.38826 227.789 9.14119 227.171 9.01766C226.553 8.89413 225.812 8.77061 225.195 8.77061C224.33 8.77061 223.589 8.89414 223.218 9.1412C222.847 9.38826 222.6 9.63531 222.6 10.0059C222.6 10.3765 222.724 10.6236 223.094 10.7471C223.342 10.8706 223.836 11.1177 224.33 11.1177C224.824 11.2412 225.318 11.2412 225.936 11.3647C226.553 11.4883 227.171 11.6118 227.665 11.7353C228.283 11.8588 228.777 12.1059 229.271 12.353C229.765 12.6 230.136 12.9706 230.506 13.4647C230.753 13.9588 231 14.5765 231 15.3177C231 16.1824 230.753 16.9236 230.259 17.5412C229.765 18.1589 229.024 18.653 228.036 19.0236C226.924 19.6412 225.812 19.7647 224.33 19.7647Z" fill="#11192A"/>
<path d="M238.288 19.7647C237.177 19.7647 235.941 19.6412 234.953 19.3941C233.841 19.1471 232.977 18.7765 232.359 18.2824L233.718 15.4412C234.335 15.8118 235.077 16.1824 235.941 16.4294C236.806 16.6765 237.671 16.8 238.535 16.8C239.4 16.8 240.141 16.6765 240.512 16.4294C240.882 16.1824 241.129 15.9353 241.129 15.5647C241.129 15.1941 241.006 14.9471 240.635 14.8235C240.388 14.7 239.894 14.5765 239.524 14.453C239.029 14.3294 238.535 14.3294 237.918 14.2059C237.3 14.0824 236.682 13.9589 236.188 13.8353C235.571 13.7118 235.077 13.4647 234.582 13.2177C234.088 12.9706 233.718 12.6 233.347 12.1059C233.1 11.6118 232.853 10.9941 232.853 10.253C232.853 9.38825 233.1 8.64708 233.594 7.90591C234.088 7.28826 234.829 6.67061 235.818 6.30002C236.806 5.92943 237.918 5.68237 239.153 5.68237C240.141 5.68237 241.006 5.80591 241.994 6.05297C242.982 6.30002 243.724 6.54708 244.465 6.91767L243.106 9.75885C242.488 9.38826 241.747 9.14119 241.129 9.01766C240.512 8.89413 239.771 8.77061 239.153 8.77061C238.288 8.77061 237.547 8.89414 237.177 9.1412C236.806 9.38826 236.559 9.63531 236.559 10.0059C236.559 10.3765 236.682 10.6236 237.053 10.7471C237.3 10.8706 237.794 11.1177 238.288 11.1177C238.782 11.2412 239.277 11.2412 239.894 11.3647C240.512 11.4883 241.129 11.6118 241.624 11.7353C242.241 11.8588 242.735 12.1059 243.229 12.353C243.724 12.6 244.094 12.9706 244.465 13.4647C244.712 13.9588 244.959 14.5765 244.959 15.3177C244.959 16.1824 244.712 16.9236 244.218 17.5412C243.724 18.1589 242.982 18.653 241.994 19.0236C240.882 19.6412 239.647 19.7647 238.288 19.7647Z" fill="#11192A"/>
</svg>
