<svg width="168" height="120" viewBox="0 0 168 120" fill="none" xmlns="http://www.w3.org/2000/svg">
<path d="M82.6047 0.239203L56.7708 15.2292C56.1329 15.5482 55.814 16.186 55.814 16.9834V46.804C55.814 47.6013 56.1329 48.2392 56.7708 48.5581L82.6047 63.5482C83.2425 63.8671 84.0399 63.8671 84.6777 63.5482L110.512 48.5581C111.15 48.2392 111.468 47.6013 111.468 46.804V16.9834C111.468 16.186 111.15 15.5482 110.512 15.2292L84.5183 0.239203C83.8804 -0.0797342 83.0831 -0.0797342 82.6047 0.239203Z" fill="#EC2226"/>
<path d="M89.3022 56.5317L102.06 27.8273L107.801 24.4785H107.96L95.2026 53.1828L89.4617 56.5317H89.3022Z" fill="white"/>
<path d="M89.3022 35.1628L103.335 48.5582L107.96 45.8472L95.2026 31.814L89.3022 35.1628Z" fill="white"/>
<path d="M71.9204 53.1829L77.6612 56.5317L71.7609 31.6547L64.9038 27.668L59.0034 45.6879L63.628 48.3989L64.7443 45.05L70.9636 48.7178L71.9204 53.1829ZM65.8606 41.7012L68.4121 33.7278L70.3257 44.2527L65.8606 41.7012Z" fill="white"/>
<path d="M83.5613 33.5681C84.5301 33.5681 85.3154 32.7827 85.3154 31.814C85.3154 30.8452 84.5301 30.0598 83.5613 30.0598C82.5925 30.0598 81.8071 30.8452 81.8071 31.814C81.8071 32.7827 82.5925 33.5681 83.5613 33.5681Z" fill="white"/>
<path d="M60.279 19.0565C60.6313 19.0565 60.9169 18.7709 60.9169 18.4186C60.9169 18.0663 60.6313 17.7808 60.279 17.7808C59.9267 17.7808 59.6411 18.0663 59.6411 18.4186C59.6411 18.7709 59.9267 19.0565 60.279 19.0565Z" fill="white"/>
<path d="M83.5613 30.0598L60.5978 17.7808L59.96 18.897L82.1261 32.9303L83.5613 30.0598Z" fill="white"/>
<path d="M106.684 19.0565C107.037 19.0565 107.322 18.7709 107.322 18.4186C107.322 18.0663 107.037 17.7808 106.684 17.7808C106.332 17.7808 106.046 18.0663 106.046 18.4186C106.046 18.7709 106.332 19.0565 106.684 19.0565Z" fill="white"/>
<path d="M83.5615 30.0598L106.366 17.7808L107.163 18.897L84.8373 32.9303L83.5615 30.0598Z" fill="white"/>
<path d="M84.1992 57.3289H82.9234L81.8071 31.814H85.3154L84.1992 57.3289Z" fill="white"/>
<path d="M83.5612 57.9669C83.9135 57.9669 84.1991 57.6813 84.1991 57.329C84.1991 56.9767 83.9135 56.6912 83.5612 56.6912C83.2089 56.6912 82.9233 56.9767 82.9233 57.329C82.9233 57.6813 83.2089 57.9669 83.5612 57.9669Z" fill="white"/>
<path d="M0 97.3557L7.01661 81.7278H9.24917L16.4252 97.3557H14.0332L7.65449 83.0035H8.6113L2.23256 97.3557H0ZM3.0299 93.5285L3.66777 91.7743H12.4385L13.0764 93.5285H3.0299Z" fill="#11192A"/>
<path d="M17.7012 97.3556V80.2925H19.7743V88.7443L19.6148 91.4553L19.7743 94.1662V97.3556H17.7012ZM24.0799 97.5151C23.1231 97.5151 22.1663 97.3556 21.3689 96.8772C20.5716 96.3988 19.9337 95.7609 19.4553 94.8041C18.9769 93.8473 18.8175 92.731 18.8175 91.4553C18.8175 90.1795 19.1364 89.0632 19.6148 88.1064C20.0932 87.1496 20.7311 86.5117 21.5284 86.0333C22.3258 85.5549 23.2826 85.3955 24.2394 85.3955C25.3557 85.3955 26.4719 85.7144 27.2693 86.1928C28.2261 86.6712 28.864 87.4686 29.3424 88.2659C29.8208 89.2227 30.1397 90.1795 30.1397 91.4553C30.1397 92.731 29.8208 93.6878 29.3424 94.6446C28.864 95.6015 28.0666 96.2393 27.2693 96.7177C26.153 97.3556 25.1962 97.5151 24.0799 97.5151ZM23.761 95.6014C24.5583 95.6014 25.1962 95.442 25.8341 95.1231C26.4719 94.8041 26.9503 94.3257 27.2693 93.6878C27.5882 93.0499 27.7477 92.2526 27.7477 91.4553C27.7477 90.6579 27.5882 89.8606 27.2693 89.2227C26.9503 88.5848 26.4719 88.1064 25.8341 87.7875C25.1962 87.4686 24.5583 87.3091 23.761 87.3091C22.9636 87.3091 22.3258 87.4686 21.6879 87.7875C21.05 88.1064 20.5716 88.5848 20.2527 89.2227C19.9337 89.8606 19.7743 90.4985 19.7743 91.4553C19.7743 92.2526 19.9337 93.0499 20.2527 93.6878C20.5716 94.3257 21.05 94.8041 21.6879 95.1231C22.4852 95.442 23.1231 95.6014 23.761 95.6014Z" fill="#11192A"/>
<path d="M35.7207 97.5151C34.7639 97.5151 34.126 97.3556 33.4881 97.0367C32.8503 96.7178 32.3718 96.3988 31.8934 95.761C31.5745 95.2826 31.415 94.6447 31.415 94.0068C31.415 93.3689 31.5745 92.7311 31.8934 92.2527C32.2124 91.7743 32.6908 91.2958 33.3287 90.9769C33.9665 90.658 34.9233 90.4985 36.1991 90.4985H39.8669V92.0932H36.1991C35.0828 92.0932 34.4449 92.2527 33.9665 92.5716C33.6476 92.8905 33.3287 93.3689 33.3287 93.8473C33.3287 94.4852 33.4881 94.9636 33.9665 95.2825C34.4449 95.6015 35.0828 95.761 35.8802 95.761C36.6775 95.761 37.3154 95.6015 37.9532 95.2825C38.5911 94.9636 39.0695 94.3257 39.229 93.6879L39.7074 95.1231C39.3885 95.761 38.9101 96.3988 38.2722 96.7178C37.6343 97.3556 36.837 97.5151 35.7207 97.5151ZM39.5479 97.3556V94.8041L39.3885 94.3258V90.0201C39.3885 89.0633 39.0695 88.4254 38.5911 87.947C38.1127 87.4686 37.3154 87.1497 36.1991 87.1497C35.5612 87.1497 34.7639 87.3091 34.126 87.4686C33.4881 87.6281 32.8503 87.947 32.3718 88.4254L31.415 86.8307C32.0529 86.3523 32.6908 86.0334 33.6476 85.7144C34.4449 85.3955 35.4017 85.3955 36.3586 85.3955C37.9532 85.3955 39.229 85.7144 40.1858 86.5118C41.1426 87.3091 41.4615 88.5849 41.4615 90.1796V97.3556H39.5479Z" fill="#11192A"/>
<path d="M50.7112 85.3955C51.668 85.3955 52.4653 85.555 53.2627 86.0334C54.06 86.3523 54.5384 86.9902 55.0168 87.7875C55.4952 88.5849 55.6547 89.5417 55.6547 90.658V97.5151H53.5816V90.9769C53.5816 89.8606 53.2627 88.9038 52.7843 88.4254C52.1464 87.7875 51.5085 87.6281 50.3922 87.6281C49.5949 87.6281 48.957 87.7875 48.4786 88.1065C47.8407 88.4254 47.5218 88.9038 47.2029 89.3822C46.8839 90.0201 46.7245 90.658 46.7245 91.6148V97.6746H44.6514V85.8739H46.7245V89.0633L46.4055 88.2659C46.7245 87.4686 47.3623 86.8307 48.1597 86.5118C48.6381 85.7144 49.5949 85.3955 50.7112 85.3955Z" fill="#11192A"/>
<path d="M62.8305 96.877C61.7142 96.877 60.5979 96.5581 59.8006 96.0797C58.8438 95.6013 58.2059 94.9634 57.7275 94.0066C57.2491 93.2093 56.9302 92.093 56.9302 90.9767C56.9302 89.8604 57.2491 88.9036 57.7275 87.9468C58.2059 87.1495 59.0033 86.3521 59.8006 85.8737C60.7574 85.3953 61.7142 85.2358 62.8305 85.2358C63.7873 85.2358 64.7441 85.3953 65.5415 85.8737C66.3388 86.3521 66.9767 86.99 67.6146 87.7873C68.2524 88.5847 68.4119 89.701 68.4119 90.9767C68.4119 92.2525 68.093 93.3687 67.6146 94.1661C67.1362 94.9634 66.4983 95.6013 65.5415 96.0797C64.9036 96.7176 63.9468 96.877 62.8305 96.877ZM63.1494 101.821C62.0332 101.821 61.0764 101.661 59.9601 101.342C59.0033 101.023 58.0465 100.545 57.4086 100.066L58.3654 98.4717C58.8438 98.9501 59.6411 99.2691 60.4385 99.588C61.2358 99.9069 62.0332 100.066 62.99 100.066C64.4252 100.066 65.382 99.7475 66.0199 99.1096C66.6578 98.4717 66.9767 97.5149 66.9767 96.0797V93.5282L67.1362 91.1362L66.9767 88.7442V85.5548H69.0498V95.7608C69.0498 97.8339 68.5714 99.4285 67.4551 100.385C66.6577 101.342 65.2225 101.821 63.1494 101.821ZM63.1494 94.9634C63.9468 94.9634 64.5847 94.804 65.2225 94.485C65.8604 94.1661 66.3388 93.6877 66.6577 93.0498C66.9767 92.4119 67.1362 91.7741 67.1362 90.9767C67.1362 90.1794 66.9767 89.5415 66.6577 88.9036C66.3388 88.2657 65.8604 87.9468 65.2225 87.6279C64.5847 87.3089 63.9468 87.1495 63.1494 87.1495C62.3521 87.1495 61.7142 87.3089 61.0764 87.6279C60.4385 87.9468 59.9601 88.4252 59.6411 88.9036C59.3222 89.5415 59.1627 90.1794 59.1627 90.9767C59.1627 91.7741 59.3222 92.4119 59.6411 93.0498C59.9601 93.6877 60.4385 94.0066 61.0764 94.485C61.7142 94.804 62.3521 94.9634 63.1494 94.9634Z" fill="#11192A"/>
<path d="M81.0101 94.4853H89.4619V97.3557H77.3423V81.7278H89.4619V84.5982H81.0101V94.4853ZM80.6911 88.1065H88.1861V90.977H80.6911V88.1065Z" fill="#11192A"/>
<path d="M90.7373 97.3556L96.1592 90.339V92.2527L91.0562 85.3955H94.8835L98.0729 89.8606H96.6376L99.9865 85.3955H103.654L98.3918 92.2527V90.339L103.814 97.3556H99.827L96.4782 92.5716L97.9134 92.7311L94.5645 97.3556H90.7373Z" fill="#11192A"/>
<path d="M105.887 101.98V85.3956H109.236V87.7876V91.2959L109.396 94.8042V101.821H105.887V101.98ZM113.063 97.5152C112.106 97.5152 111.15 97.3557 110.352 96.8773C109.555 96.3989 109.077 95.761 108.598 94.8042C108.12 93.8474 107.96 92.7311 107.96 91.2959C107.96 89.8607 108.12 88.7444 108.598 87.7876C109.077 86.8308 109.555 86.1929 110.352 85.7145C111.15 85.2361 111.947 85.0767 113.063 85.0767C114.18 85.0767 115.296 85.3956 116.093 85.874C117.05 86.3524 117.688 87.1497 118.166 88.1066C118.645 89.0634 118.964 90.1796 118.964 91.2959C118.964 92.5717 118.645 93.688 118.166 94.6448C117.688 95.6016 116.891 96.2395 116.093 96.7179C115.136 97.3557 114.18 97.5152 113.063 97.5152ZM112.425 94.6448C113.063 94.6448 113.542 94.4853 114.02 94.1664C114.499 93.8474 114.817 93.5285 115.136 93.0501C115.455 92.5717 115.615 91.9338 115.615 91.2959C115.615 90.658 115.455 90.0202 115.136 89.5418C114.817 89.0634 114.499 88.7444 114.02 88.4255C113.542 88.1065 113.063 88.1066 112.425 88.1066C111.788 88.1066 111.309 88.266 110.831 88.4255C110.352 88.7444 110.033 89.0634 109.714 89.5418C109.396 90.0202 109.236 90.658 109.236 91.2959C109.236 91.9338 109.396 92.5717 109.714 93.0501C110.033 93.5285 110.352 94.0069 110.831 94.1664C111.309 94.6448 111.947 94.6448 112.425 94.6448Z" fill="#11192A"/>
<path d="M121.037 97.3555V85.3953H124.385V88.7442L123.907 87.7873C124.226 86.99 124.864 86.3521 125.661 85.8737C126.459 85.3953 127.415 85.2358 128.532 85.2358V88.4252C128.372 88.4252 128.213 88.4252 128.213 88.4252C128.053 88.4252 127.894 88.4252 127.894 88.4252C126.937 88.4252 126.14 88.7441 125.502 89.2226C124.864 89.701 124.704 90.6578 124.704 91.7741V97.5149H121.037V97.3555Z" fill="#11192A"/>
<path d="M136.665 97.5152C135.23 97.5152 134.113 97.1963 132.997 96.7179C131.881 96.2395 131.243 95.4421 130.605 94.4853C129.967 93.5285 129.808 92.5717 129.808 91.2959C129.808 90.1796 130.127 89.0634 130.605 88.1066C131.083 87.1497 131.881 86.5119 132.838 85.874C133.794 85.3956 134.911 85.0767 136.186 85.0767C137.303 85.0767 138.419 85.3956 139.376 85.874C140.333 86.3524 141.13 87.1498 141.608 87.9471C142.087 88.9039 142.406 90.0202 142.406 91.2959C142.406 91.4554 142.406 91.6149 142.406 91.7743C142.406 91.9338 142.406 92.0933 142.406 92.2527H132.678V90.1796H140.651L139.216 90.8175C139.216 90.1796 139.057 89.7012 138.897 89.2228C138.578 88.7444 138.259 88.4255 137.781 88.1066C137.303 87.7876 136.824 87.7876 136.186 87.7876C135.548 87.7876 135.07 87.9471 134.592 88.1066C134.113 88.4255 133.794 88.7444 133.475 89.2228C133.156 89.7012 133.156 90.1796 133.156 90.8175V91.2959C133.156 91.9338 133.316 92.5717 133.635 93.0501C133.954 93.5285 134.273 93.8474 134.911 94.1664C135.389 94.4853 136.027 94.4853 136.824 94.4853C137.462 94.4853 137.941 94.3258 138.419 94.1664C138.897 94.0069 139.376 93.688 139.695 93.369L141.608 95.4421C141.13 96.08 140.333 96.5584 139.535 96.8773C138.738 97.3557 137.781 97.5152 136.665 97.5152Z" fill="#11192A"/>
<path d="M149.103 97.515C148.146 97.515 147.03 97.3555 146.233 97.1961C145.435 97.0366 144.478 96.7177 144 96.2393L145.116 93.6878C145.754 94.0067 146.392 94.3256 147.03 94.4851C147.827 94.6446 148.465 94.804 149.262 94.804C150.06 94.804 150.698 94.6446 151.017 94.4851C151.336 94.3256 151.495 94.0067 151.495 93.6878C151.495 93.3688 151.336 93.2094 151.176 93.0499C150.857 92.8904 150.538 92.731 150.219 92.731C149.741 92.731 149.262 92.5715 148.784 92.5715C148.306 92.5715 147.668 92.412 147.189 92.2526C146.711 92.0931 146.233 91.9336 145.754 91.6147C145.276 91.2957 144.957 90.9768 144.638 90.6579C144.319 90.1795 144.319 89.701 144.319 88.9037C144.319 88.1064 144.478 87.4685 144.957 86.8306C145.435 86.1927 146.073 85.7143 146.87 85.3954C147.668 85.0765 148.625 84.917 149.9 84.917C150.698 84.917 151.495 85.0765 152.452 85.2359C153.249 85.3954 154.047 85.7143 154.525 86.0333L153.409 88.5848C152.771 88.2658 152.292 87.9469 151.654 87.9469C151.017 87.7874 150.538 87.7874 149.9 87.7874C149.103 87.7874 148.465 87.9469 148.146 88.1064C147.827 88.2658 147.668 88.5848 147.668 88.9037C147.668 89.2226 147.827 89.3821 148.146 89.5416C148.465 89.7011 148.784 89.8605 149.262 89.8605C149.741 89.8605 150.219 90.02 150.698 90.02C151.176 90.02 151.654 90.1795 152.292 90.3389C152.771 90.4984 153.249 90.6579 153.728 90.9768C154.206 91.2957 154.525 91.6147 154.844 91.9336C155.163 92.412 155.163 92.8904 155.163 93.6878C155.163 94.4851 155.003 95.123 154.525 95.6014C154.047 96.2392 153.409 96.5582 152.611 96.8771C151.176 97.3555 150.219 97.515 149.103 97.515Z" fill="#11192A"/>
<path d="M161.223 97.515C160.266 97.515 159.15 97.3555 158.352 97.1961C157.555 97.0366 156.598 96.7177 156.12 96.2393L157.236 93.6878C157.874 94.0067 158.512 94.3256 159.15 94.4851C159.947 94.6446 160.585 94.804 161.382 94.804C162.179 94.804 162.817 94.6446 163.136 94.4851C163.455 94.3256 163.615 94.0067 163.615 93.6878C163.615 93.3688 163.455 93.2094 163.296 93.0499C162.977 92.8904 162.658 92.731 162.339 92.731C161.86 92.731 161.382 92.5715 160.904 92.5715C160.425 92.5715 159.787 92.412 159.309 92.2526C158.831 92.0931 158.352 91.9336 157.874 91.6147C157.395 91.2957 157.076 90.9768 156.758 90.6579C156.439 90.1795 156.439 89.701 156.439 88.9037C156.439 88.1064 156.598 87.4685 157.076 86.8306C157.555 86.1927 158.193 85.7143 158.99 85.3954C159.787 85.0765 160.744 84.917 162.02 84.917C162.817 84.917 163.615 85.0765 164.571 85.2359C165.369 85.3954 166.166 85.7143 166.645 86.0333L165.528 88.5848C164.89 88.2658 164.412 87.9469 163.774 87.9469C163.136 87.7874 162.658 87.7874 162.02 87.7874C161.223 87.7874 160.585 87.9469 160.266 88.1064C159.947 88.2658 159.787 88.5848 159.787 88.9037C159.787 89.2226 159.947 89.3821 160.266 89.5416C160.585 89.7011 160.904 89.8605 161.382 89.8605C161.86 89.8605 162.339 90.02 162.817 90.02C163.296 90.02 163.774 90.1795 164.412 90.3389C164.89 90.4984 165.369 90.6579 165.847 90.9768C166.326 91.2957 166.645 91.6147 166.963 91.9336C167.282 92.412 167.282 92.8904 167.282 93.6878C167.282 94.4851 167.123 95.123 166.645 95.6014C166.166 96.2392 165.528 96.5582 164.731 96.8771C163.934 97.1961 162.498 97.515 161.223 97.515Z" fill="#11192A"/>
<path d="M0.797342 117.289H5.42193V117.927H0V110.272H5.26246V110.91H0.797342V117.289ZM0.637874 113.781H4.78405V114.419H0.637874V113.781Z" fill="#11192A"/>
<path d="M6.69775 117.927V110.272H7.4951V117.927H6.69775ZM7.33563 116.492V115.535L10.8439 112.346H11.8007L9.24925 114.738L8.77084 115.057L7.33563 116.492ZM11.1629 117.927L8.77084 114.897L9.24925 114.259L12.1197 117.767H11.1629V117.927Z" fill="#11192A"/>
<path d="M14.8307 117.927C14.3523 117.927 13.8739 117.927 13.555 117.767C13.0765 117.608 12.7576 117.448 12.5981 117.289L12.9171 116.651C13.0766 116.811 13.3955 116.97 13.8739 117.13C14.1928 117.289 14.6712 117.289 14.9902 117.289C15.4686 117.289 15.947 117.13 16.1065 116.97C16.4254 116.811 16.4254 116.651 16.4254 116.332C16.4254 116.173 16.4254 116.013 16.2659 115.854C16.1064 115.694 15.947 115.694 15.7875 115.535C15.628 115.535 15.3091 115.375 14.9902 115.375C14.6712 115.375 14.5118 115.216 14.1928 115.216C13.8739 115.216 13.7144 115.056 13.3955 114.897C13.236 114.738 13.0766 114.578 12.9171 114.419C12.7576 114.419 12.7576 114.1 12.7576 113.781C12.7576 113.462 12.9171 113.143 13.0765 112.983C13.236 112.664 13.555 112.505 13.8739 112.345C14.1928 112.186 14.6712 112.186 15.1496 112.186C15.4686 112.186 15.947 112.186 16.2659 112.345C16.5849 112.505 16.9038 112.505 17.2227 112.664L16.9038 113.302C16.5849 113.143 16.4254 112.983 16.1065 112.983C15.7875 112.983 15.4686 112.824 15.3091 112.824C14.8307 112.824 14.3523 112.983 14.1928 113.143C13.8739 113.302 13.8739 113.621 13.8739 113.781C13.8739 113.94 13.8739 114.1 14.0334 114.259C14.1928 114.419 14.3523 114.419 14.5118 114.578C14.6712 114.578 14.9902 114.738 15.3091 114.738C15.628 114.738 15.7875 114.897 16.1065 114.897C16.4254 114.897 16.5849 115.056 16.9038 115.216C17.0633 115.375 17.2227 115.535 17.3822 115.694C17.5417 115.854 17.5417 116.173 17.5417 116.492C17.5417 116.811 17.3822 117.13 17.2227 117.289C17.0633 117.608 16.7443 117.767 16.4254 117.927C15.7875 117.927 15.3091 117.927 14.8307 117.927Z" fill="#11192A"/>
<path d="M18.498 120V112.186H19.1359V113.94V115.056L19.2954 116.173V120H18.498ZM21.3685 117.927C20.8901 117.927 20.4117 117.767 20.0927 117.608C19.7738 117.448 19.4549 117.13 19.1359 116.651C18.9765 116.173 18.817 115.694 18.817 115.056C18.817 114.419 18.9765 113.94 19.1359 113.462C19.2954 112.983 19.6143 112.664 20.0927 112.505C20.4117 112.345 20.8901 112.186 21.3685 112.186C21.8469 112.186 22.3253 112.345 22.8037 112.505C23.2821 112.824 23.601 113.143 23.7605 113.462C24.0794 113.94 24.0794 114.419 24.0794 115.056C24.0794 115.694 23.92 116.173 23.7605 116.651C23.4416 117.13 23.1226 117.448 22.8037 117.608C22.4848 117.767 22.0064 117.927 21.3685 117.927ZM21.3685 117.289C21.8469 117.289 22.1658 117.13 22.4848 116.97C22.8037 116.811 23.1226 116.492 23.2821 116.173C23.4416 115.854 23.601 115.375 23.601 115.056C23.601 114.578 23.4416 114.259 23.2821 113.94C23.1226 113.621 22.8037 113.302 22.4848 113.143C22.1658 112.983 21.8469 112.824 21.3685 112.824C20.8901 112.824 20.5711 112.983 20.2522 113.143C19.9333 113.302 19.6143 113.621 19.4549 113.94C19.2954 114.259 19.1359 114.738 19.1359 115.056C19.1359 115.535 19.2954 115.854 19.4549 116.173C19.6143 116.492 19.9333 116.811 20.2522 116.97C20.5711 117.289 20.8901 117.289 21.3685 117.289Z" fill="#11192A"/>
<path d="M28.2261 117.927C27.5882 117.927 27.1098 117.767 26.7909 117.608C26.3125 117.289 25.9935 116.97 25.8341 116.492C25.5151 116.013 25.5151 115.535 25.5151 115.056C25.5151 114.419 25.6746 113.94 25.8341 113.621C26.153 113.143 26.4719 112.824 26.7909 112.664C27.2693 112.345 27.7477 112.345 28.2261 112.345C28.864 112.345 29.3424 112.505 29.6613 112.664C30.1397 112.983 30.4587 113.302 30.6181 113.621C30.7776 113.94 30.9371 114.578 30.9371 115.056C30.9371 115.694 30.7776 116.173 30.6181 116.492C30.4587 116.811 29.9803 117.289 29.5018 117.448C29.1829 117.927 28.7045 117.927 28.2261 117.927ZM28.2261 117.289C28.7045 117.289 29.0234 117.13 29.3424 116.97C29.6613 116.811 29.9803 116.492 30.1397 116.173C30.2992 115.854 30.4587 115.375 30.4587 115.056C30.4587 114.578 30.2992 114.259 30.1397 113.94C29.9803 113.621 29.6613 113.302 29.3424 113.143C29.0234 112.983 28.7045 112.824 28.2261 112.824C27.7477 112.824 27.4288 112.983 27.1098 113.143C26.7909 113.302 26.4719 113.621 26.3125 113.94C26.153 114.259 25.9935 114.738 25.9935 115.056C25.9935 115.535 26.153 115.854 26.3125 116.173C26.4719 116.492 26.7909 116.811 27.1098 116.97C27.4288 117.289 27.7477 117.289 28.2261 117.289Z" fill="#11192A"/>
<path d="M32.5317 117.927V112.186H33.3291V113.781V113.462C33.4885 112.983 33.8075 112.664 34.1264 112.505C34.4454 112.345 34.9238 112.186 35.5616 112.186V112.983C35.5616 112.983 35.5616 112.983 35.4022 112.983C35.4022 112.983 35.4022 112.983 35.2427 112.983C34.6048 112.983 34.1264 113.143 33.8075 113.462C33.4886 113.781 33.3291 114.419 33.3291 115.056V117.927H32.5317Z" fill="#11192A"/>
<path d="M39.8672 117.927V110.432H40.6645V117.927H39.8672Z" fill="#11192A"/>
<path d="M49.7544 112.186C50.2328 112.186 50.5517 112.345 51.0302 112.505C51.3491 112.664 51.668 112.983 51.8275 113.302C51.987 113.621 52.1464 114.1 52.1464 114.738V118.086H51.3491V114.897C51.3491 114.259 51.1896 113.781 50.8707 113.462C50.5517 113.143 50.2328 112.983 49.5949 112.983C49.276 112.983 48.7976 113.143 48.6381 113.302C48.3192 113.462 48.1597 113.621 48.0003 113.94C47.8408 114.259 47.8408 114.578 47.8408 115.056V118.086H47.0434V114.897C47.0434 114.259 46.884 113.781 46.565 113.462C46.2461 113.143 45.9272 112.983 45.2893 112.983C44.9704 112.983 44.4919 113.143 44.3325 113.302C44.173 113.462 43.8541 113.621 43.6946 113.94C43.5351 114.259 43.5351 114.578 43.5351 115.056V118.086H42.7378V112.345H43.5351V113.94L43.3757 113.621C43.5351 113.143 43.8541 112.824 44.173 112.664C44.4919 112.505 44.9704 112.345 45.6082 112.345C46.2461 112.345 46.565 112.505 47.0434 112.824C47.3624 113.143 47.6813 113.462 47.8408 114.1L47.5218 113.94C47.6813 113.462 48.0003 113.143 48.4787 112.824C48.6381 112.345 49.1165 112.186 49.7544 112.186Z" fill="#11192A"/>
<path d="M53.7407 120V112.186H54.5381V113.94V115.056L54.6975 116.173V120H53.7407ZM56.7706 117.927C56.2922 117.927 55.8138 117.767 55.4949 117.608C55.1759 117.448 54.857 117.13 54.5381 116.651C54.3786 116.173 54.2191 115.694 54.2191 115.056C54.2191 114.419 54.3786 113.94 54.5381 113.462C54.6975 112.983 55.0165 112.664 55.4949 112.505C55.8138 112.345 56.2922 112.186 56.7706 112.186C57.249 112.186 57.7274 112.345 58.2058 112.505C58.6842 112.824 59.0032 113.143 59.1626 113.462C59.4816 113.94 59.4816 114.419 59.4816 115.056C59.4816 115.694 59.3221 116.173 59.1626 116.651C58.8437 117.13 58.5248 117.448 58.2058 117.608C57.7274 117.927 57.249 117.927 56.7706 117.927ZM56.7706 117.289C57.249 117.289 57.568 117.13 57.8869 116.97C58.2058 116.811 58.5248 116.492 58.6842 116.173C58.8437 115.854 59.0032 115.375 59.0032 115.056C59.0032 114.578 58.8437 114.259 58.6842 113.94C58.5248 113.621 58.2058 113.302 57.8869 113.143C57.568 112.983 57.249 112.824 56.7706 112.824C56.2922 112.824 55.9733 112.983 55.6543 113.143C55.3354 113.302 55.0165 113.621 54.857 113.94C54.6975 114.259 54.5381 114.738 54.5381 115.056C54.5381 115.535 54.6975 115.854 54.857 116.173C55.0165 116.492 55.3354 116.811 55.6543 116.97C55.9733 117.289 56.2922 117.289 56.7706 117.289Z" fill="#11192A"/>
<path d="M63.4683 117.927C62.8304 117.927 62.352 117.767 62.0331 117.608C61.5547 117.289 61.2357 116.97 61.0763 116.492C60.7573 116.013 60.7573 115.535 60.7573 115.056C60.7573 114.419 60.9168 113.94 61.0763 113.621C61.3952 113.143 61.7141 112.824 62.0331 112.664C62.5115 112.345 62.9899 112.345 63.4683 112.345C64.1062 112.345 64.5846 112.505 64.9035 112.664C65.3819 112.983 65.7008 113.302 65.8603 113.621C66.1793 114.1 66.1793 114.578 66.1793 115.056C66.1793 115.694 66.0198 116.173 65.8603 116.492C65.5414 116.97 65.2224 117.289 64.744 117.448C64.5846 117.927 64.1062 117.927 63.4683 117.927ZM63.4683 117.289C63.9467 117.289 64.2656 117.13 64.5846 116.97C64.9035 116.811 65.2224 116.492 65.3819 116.173C65.5414 115.854 65.7008 115.375 65.7008 115.056C65.7008 114.578 65.5414 114.259 65.3819 113.94C65.2224 113.621 64.9035 113.302 64.5846 113.143C64.2656 112.983 63.9467 112.824 63.4683 112.824C62.9899 112.824 62.6709 112.983 62.352 113.143C62.0331 113.302 61.7141 113.621 61.5547 113.94C61.3952 114.259 61.2357 114.738 61.2357 115.056C61.2357 115.535 61.3952 115.854 61.5547 116.173C61.7141 116.492 62.0331 116.811 62.352 116.97C62.6709 117.289 63.1494 117.289 63.4683 117.289Z" fill="#11192A"/>
<path d="M67.7739 117.927V112.186H68.5713V113.781V113.462C68.7307 112.983 69.0497 112.664 69.3686 112.505C69.6875 112.345 70.166 112.186 70.8038 112.186V112.983C70.8038 112.983 70.8038 112.983 70.6444 112.983C70.6444 112.983 70.6444 112.983 70.4849 112.983C69.847 112.983 69.3686 113.143 69.0497 113.462C68.7307 113.781 68.5713 114.419 68.5713 115.056V117.927H67.7739Z" fill="#11192A"/>
<path d="M76.0665 117.927C75.5881 117.927 75.2692 117.767 74.7908 117.608C74.4719 117.449 74.1529 117.13 73.834 116.811L74.3124 116.332C74.4719 116.651 74.7908 116.811 75.1097 116.97C75.4287 117.13 75.7476 117.289 76.0665 117.289C77.0234 117.289 77.5018 116.811 77.5018 115.535V110.91H74.7908V110.272H78.1396V115.535C78.1396 116.332 77.9802 116.97 77.5018 117.289C77.3423 117.767 76.7044 117.927 76.0665 117.927Z" fill="#11192A"/>
<path d="M81.8073 117.927C81.3289 117.927 81.0099 117.927 80.691 117.767C80.372 117.608 80.2126 117.448 79.8936 117.13C79.5747 116.811 79.5747 116.651 79.5747 116.332C79.5747 116.013 79.5747 115.694 79.7342 115.535C79.8936 115.216 80.0531 115.056 80.372 114.897C80.691 114.738 81.1694 114.738 81.6478 114.738H83.5614V115.375H81.6478C81.1694 115.375 80.691 115.535 80.5315 115.694C80.372 115.854 80.2126 116.173 80.2126 116.492C80.2126 116.811 80.372 117.13 80.5315 117.289C80.8505 117.448 81.1694 117.608 81.6478 117.608C82.1262 117.608 82.4451 117.448 82.7641 117.289C83.083 117.13 83.2425 116.811 83.4019 116.492L83.5614 116.97C83.4019 117.289 83.2425 117.608 82.7641 117.927C82.7641 117.927 82.2857 117.927 81.8073 117.927ZM83.7209 117.927V116.651V116.492V114.419C83.7209 113.94 83.5614 113.621 83.2425 113.302C82.9235 112.983 82.6046 112.983 81.9667 112.983C81.6478 112.983 81.1694 112.983 80.8505 113.143C80.5315 113.302 80.2126 113.462 80.0531 113.621L79.7342 112.983C80.0531 112.664 80.372 112.505 80.8505 112.345C81.3289 112.186 81.6478 112.186 82.1262 112.186C82.9235 112.186 83.4019 112.346 83.8804 112.664C84.3588 112.983 84.5182 113.621 84.5182 114.259V117.767H83.7209V117.927Z" fill="#11192A"/>
<path d="M88.6646 117.927C88.1862 117.927 87.7078 117.767 87.2294 117.608C86.751 117.449 86.432 116.97 86.2725 116.651C85.9536 116.173 85.9536 115.694 85.9536 115.057C85.9536 114.419 86.1131 113.94 86.2725 113.462C86.5915 112.983 86.9104 112.664 87.2294 112.505C87.7078 112.186 88.1862 112.186 88.6646 112.186C89.143 112.186 89.6214 112.346 89.9403 112.505C90.2593 112.664 90.5782 112.983 90.8971 113.462C91.0566 113.94 91.2161 114.419 91.2161 115.057C91.2161 115.694 91.0566 116.173 90.8971 116.651C90.7377 117.13 90.4187 117.449 89.9403 117.608C89.6214 117.927 89.143 117.927 88.6646 117.927ZM88.6646 117.289C89.143 117.289 89.4619 117.13 89.7809 116.97C90.0998 116.811 90.4187 116.492 90.5782 116.173C90.7377 115.854 90.8971 115.375 90.8971 115.057C90.8971 114.578 90.7377 114.259 90.5782 113.94C90.4187 113.621 90.0998 113.302 89.7809 113.143C89.4619 112.983 89.143 112.824 88.6646 112.824C88.1862 112.824 87.8672 112.983 87.5483 113.143C87.2294 113.302 86.9104 113.621 86.751 113.94C86.5915 114.259 86.432 114.738 86.432 115.057C86.432 115.535 86.5915 115.854 86.751 116.173C86.9104 116.492 87.2294 116.811 87.5483 116.97C88.0267 117.289 88.3456 117.289 88.6646 117.289ZM90.8971 117.927V116.173V115.057L90.7377 113.94V110.272H91.535V117.927H90.8971Z" fill="#11192A"/>
<path d="M93.7678 111.389C93.6083 111.389 93.4488 111.389 93.2893 111.229C93.1299 111.07 93.1299 110.91 93.1299 110.91C93.1299 110.91 93.1299 110.591 93.2893 110.591C93.4488 110.432 93.6083 110.432 93.7678 110.432C93.9272 110.432 94.0867 110.432 94.2462 110.591C94.4056 110.751 94.4056 110.751 94.4056 110.91C94.4056 111.07 94.4056 111.229 94.2462 111.389C94.0867 111.389 93.9272 111.389 93.7678 111.389Z" fill="#11192A"/>
<path d="M94.2456 112.186H93.4482V117.927H94.2456V112.186Z" fill="#11192A"/>
<path d="M119.123 111.389C118.964 111.389 118.804 111.389 118.645 111.229C118.485 111.07 118.485 110.91 118.485 110.91C118.485 110.91 118.485 110.591 118.645 110.591C118.804 110.432 118.964 110.432 119.123 110.432C119.283 110.432 119.442 110.432 119.602 110.591C119.761 110.751 119.761 110.751 119.761 110.91C119.761 111.07 119.761 111.229 119.602 111.389C119.442 111.389 119.283 111.389 119.123 111.389Z" fill="#11192A"/>
<path d="M119.601 112.186H118.804V117.927H119.601V112.186Z" fill="#11192A"/>
<path d="M99.3491 117.927V110.272H100.146V117.13H104.452V117.767H99.3491V117.927Z" fill="#11192A"/>
<path d="M107.641 117.927C107.003 117.927 106.525 117.767 106.047 117.608C105.568 117.289 105.249 116.97 104.93 116.651C104.611 116.173 104.611 115.694 104.611 115.216C104.611 114.578 104.771 114.1 104.93 113.781C105.249 113.302 105.568 112.983 105.887 112.824C106.365 112.505 106.844 112.505 107.322 112.505C107.801 112.505 108.279 112.664 108.758 112.824C109.236 113.143 109.555 113.462 109.714 113.781C109.874 114.1 110.033 114.737 110.033 115.375C110.033 115.375 110.033 115.375 110.033 115.535V115.694H105.249V115.056H109.874L109.555 115.216C109.555 114.737 109.395 114.419 109.236 114.1C109.076 113.781 108.758 113.462 108.439 113.302C108.12 113.143 107.801 112.983 107.322 112.983C107.003 112.983 106.525 113.143 106.206 113.302C105.887 113.462 105.728 113.781 105.409 114.1C105.249 114.419 105.09 114.737 105.09 115.216V115.375C105.09 115.854 105.249 116.173 105.409 116.492C105.568 116.811 105.887 117.129 106.206 117.289C106.525 117.448 107.003 117.608 107.322 117.608C107.641 117.608 107.96 117.608 108.279 117.448C108.598 117.289 108.917 117.129 109.076 116.811L109.555 117.289C109.236 117.608 108.917 117.767 108.598 117.927C108.598 117.927 108.12 117.927 107.641 117.927Z" fill="#11192A"/>
<path d="M111.628 117.927V110.272H112.425V113.94L112.266 115.057V116.173V117.927H111.628ZM114.498 117.927C114.02 117.927 113.542 117.767 113.223 117.608C112.904 117.449 112.585 116.97 112.266 116.651C112.106 116.173 111.947 115.694 111.947 115.057C111.947 114.419 112.106 113.94 112.266 113.462C112.425 112.983 112.744 112.664 113.223 112.505C113.542 112.346 114.02 112.186 114.498 112.186C114.977 112.186 115.455 112.346 115.934 112.505C116.412 112.824 116.731 113.143 116.89 113.462C117.209 113.94 117.209 114.419 117.209 115.057C117.209 115.694 117.05 116.173 116.89 116.651C116.571 117.13 116.253 117.449 115.934 117.608C115.615 117.927 115.136 117.927 114.498 117.927ZM114.498 117.289C114.977 117.289 115.296 117.13 115.615 116.97C115.934 116.811 116.253 116.492 116.412 116.173C116.571 115.854 116.731 115.375 116.731 115.057C116.731 114.578 116.571 114.259 116.412 113.94C116.253 113.621 115.934 113.302 115.615 113.143C115.296 112.983 114.977 112.824 114.498 112.824C114.02 112.824 113.701 112.983 113.382 113.143C113.063 113.302 112.744 113.621 112.585 113.94C112.425 114.259 112.266 114.738 112.266 115.057C112.266 115.535 112.425 115.854 112.585 116.173C112.744 116.492 113.063 116.811 113.382 116.97C113.701 117.289 114.02 117.289 114.498 117.289Z" fill="#11192A"/>
<path d="M124.226 112.186C124.705 112.186 125.024 112.346 125.502 112.505C125.821 112.664 126.14 112.983 126.299 113.302C126.459 113.621 126.618 114.1 126.618 114.738V118.086H125.821V114.897C125.821 114.259 125.661 113.781 125.342 113.462C125.024 113.143 124.545 112.983 124.067 112.983C123.588 112.983 123.269 113.143 122.95 113.302C122.632 113.462 122.472 113.621 122.313 113.94C122.153 114.259 121.994 114.578 121.994 115.056V118.086H121.196V110.432H121.994V113.94L121.834 113.621C121.994 113.143 122.313 112.824 122.632 112.664C123.269 112.346 123.748 112.186 124.226 112.186Z" fill="#11192A"/>
<path d="M131.721 117.927V110.272H132.359L135.867 116.173H135.548L139.056 110.272H139.694V117.927H138.737V111.548H138.897L135.707 116.97H135.388L132.199 111.548H132.359V117.927H131.721Z" fill="#11192A"/>
<path d="M143.84 117.927C143.362 117.927 142.883 117.767 142.565 117.608C142.246 117.449 141.927 117.13 141.767 116.811C141.608 116.492 141.448 116.013 141.448 115.375V112.027H142.246V115.216C142.246 115.854 142.405 116.332 142.724 116.651C143.043 116.97 143.521 117.13 144 117.13C144.319 117.13 144.797 116.97 145.116 116.811C145.435 116.651 145.594 116.332 145.754 116.173C145.913 115.854 145.913 115.535 145.913 115.057V112.027H146.711V117.767H145.913V116.173L146.073 116.492C145.913 116.97 145.594 117.289 145.275 117.449C144.957 117.608 144.478 117.927 143.84 117.927Z" fill="#11192A"/>
<path d="M151.017 117.927C150.538 117.927 150.06 117.767 149.581 117.608C149.103 117.449 148.784 116.97 148.625 116.651C148.306 116.173 148.306 115.694 148.306 115.057C148.306 114.419 148.465 113.94 148.625 113.462C148.944 112.983 149.262 112.664 149.581 112.505C150.06 112.186 150.538 112.186 151.017 112.186C151.495 112.186 151.973 112.346 152.292 112.505C152.611 112.664 152.93 112.983 153.249 113.462C153.409 113.94 153.568 114.419 153.568 115.057C153.568 115.694 153.409 116.173 153.249 116.651C153.09 117.13 152.771 117.449 152.292 117.608C151.973 117.927 151.495 117.927 151.017 117.927ZM151.017 117.289C151.495 117.289 151.814 117.13 152.133 116.97C152.452 116.811 152.771 116.492 152.93 116.173C153.09 115.854 153.249 115.375 153.249 115.057C153.249 114.578 153.09 114.259 152.93 113.94C152.771 113.621 152.452 113.302 152.133 113.143C151.814 112.983 151.495 112.824 151.017 112.824C150.538 112.824 150.219 112.983 149.9 113.143C149.581 113.302 149.262 113.621 149.103 113.94C148.944 114.259 148.784 114.738 148.784 115.057C148.784 115.535 148.944 115.854 149.103 116.173C149.262 116.492 149.581 116.811 149.9 116.97C150.219 117.289 150.538 117.289 151.017 117.289ZM153.09 117.927V116.173V115.057L152.93 113.94V110.272H153.728V117.927H153.09Z" fill="#11192A"/>
<path d="M157.396 117.927C156.917 117.927 156.598 117.927 156.279 117.767C155.96 117.608 155.801 117.448 155.482 117.13C155.323 116.811 155.163 116.651 155.163 116.332C155.163 116.013 155.163 115.694 155.323 115.535C155.482 115.216 155.641 115.056 155.96 114.897C156.279 114.738 156.758 114.738 157.236 114.738H159.15V115.375H157.236C156.758 115.375 156.279 115.535 156.12 115.694C155.96 115.854 155.801 116.173 155.801 116.492C155.801 116.811 155.96 117.13 156.12 117.289C156.439 117.448 156.758 117.608 157.236 117.608C157.715 117.608 158.034 117.448 158.352 117.289C158.671 117.13 158.831 116.811 158.99 116.492L159.15 116.97C158.99 117.289 158.831 117.608 158.352 117.927C158.352 117.927 157.874 117.927 157.396 117.927ZM159.309 117.927V116.651V116.492V114.419C159.309 113.94 159.15 113.621 158.831 113.302C158.512 112.983 158.193 112.983 157.555 112.983C157.236 112.983 156.758 112.983 156.439 113.143C156.12 113.302 155.801 113.462 155.641 113.621L155.323 112.983C155.641 112.664 155.96 112.505 156.439 112.345C156.917 112.186 157.236 112.186 157.715 112.186C158.512 112.186 158.99 112.346 159.469 112.664C159.947 112.983 160.107 113.621 160.107 114.259V117.767H159.309V117.927Z" fill="#11192A"/>
<path d="M164.731 112.186C165.209 112.186 165.528 112.346 166.007 112.505C166.326 112.664 166.645 112.983 166.804 113.302C166.964 113.621 167.123 114.1 167.123 114.738V118.086H166.326V114.897C166.326 114.259 166.166 113.781 165.847 113.462C165.528 113.143 165.05 112.983 164.572 112.983C164.093 112.983 163.774 113.143 163.455 113.302C163.136 113.462 162.977 113.621 162.817 113.94C162.658 114.259 162.499 114.578 162.499 115.056V118.086H161.701V110.432H162.499V113.94L162.339 113.621C162.499 113.143 162.817 112.824 163.136 112.664C163.774 112.346 164.253 112.186 164.731 112.186Z" fill="#11192A"/>
</svg>
