<svg width="16" height="17" viewBox="0 0 16 17" fill="none" xmlns="http://www.w3.org/2000/svg">
<path d="M13.4735 5.71329L8.34014 8.68663C8.13348 8.80663 7.87348 8.80663 7.66014 8.68663L2.52681 5.71329C2.16014 5.49996 2.06681 4.99996 2.34681 4.68663C2.54014 4.46663 2.76014 4.28663 2.99348 4.15996L6.60681 2.15996C7.38014 1.72663 8.63348 1.72663 9.40681 2.15996L13.0201 4.15996C13.2535 4.28663 13.4735 4.47329 13.6668 4.68663C13.9335 4.99996 13.8401 5.49996 13.4735 5.71329Z" fill="#95A3BD"/>
<path d="M7.61966 9.92675V14.4734C7.61966 14.9801 7.10633 15.3134 6.65299 15.0934C5.27966 14.4201 2.96633 13.1601 2.96633 13.1601C2.15299 12.7001 1.48633 11.5401 1.48633 10.5867V7.14675C1.48633 6.62008 2.03966 6.28675 2.49299 6.54675L7.28633 9.32675C7.48633 9.45342 7.61966 9.68008 7.61966 9.92675Z" fill="#95A3BD"/>
<path d="M8.37988 9.92675V14.4734C8.37988 14.9801 8.89322 15.3134 9.34655 15.0934C10.7199 14.4201 13.0332 13.1601 13.0332 13.1601C13.8465 12.7001 14.5132 11.5401 14.5132 10.5867V7.14675C14.5132 6.62008 13.9599 6.28675 13.5065 6.54675L8.71322 9.32675C8.51322 9.45342 8.37988 9.68008 8.37988 9.92675Z" fill="#95A3BD"/>
</svg>
