<svg width="17" height="17" viewBox="0 0 17 17" fill="none" xmlns="http://www.w3.org/2000/svg">
<path d="M7 10.8335C6.72667 10.8335 6.5 11.0602 6.5 11.3335V12.3335C6.5 12.6068 6.72667 12.8335 7 12.8335C7.27333 12.8335 7.5 12.6068 7.5 12.3335V11.3335C7.5 11.0602 7.27333 10.8335 7 10.8335Z" fill="#F32940"/>
<path d="M14.9993 14.6668H14.3327V7.15348C14.3327 6.74014 14.146 6.35348 13.8193 6.10014L9.15268 2.47348C8.67268 2.09348 7.99268 2.09348 7.51268 2.47348L2.84602 6.10014C2.51935 6.35348 2.33268 6.74014 2.33268 7.14681L2.29935 14.6668H1.66602C1.39268 14.6668 1.16602 14.8868 1.16602 15.1668C1.16602 15.4401 1.39268 15.6668 1.66602 15.6668H14.9993C15.2727 15.6668 15.4993 15.4401 15.4993 15.1668C15.4993 14.8868 15.2727 14.6668 14.9993 14.6668ZM7.33268 5.00014H9.33268C9.60602 5.00014 9.83268 5.22681 9.83268 5.50014C9.83268 5.77348 9.60602 6.00014 9.33268 6.00014H7.33268C7.05935 6.00014 6.83268 5.77348 6.83268 5.50014C6.83268 5.22681 7.05935 5.00014 7.33268 5.00014ZM11.666 14.6668H4.99935V8.83348C4.99935 8.28014 5.44602 7.83348 5.99935 7.83348H10.666C11.2193 7.83348 11.666 8.28014 11.666 8.83348V14.6668Z" fill="#F32940"/>
</svg>
