<svg width="24" height="24" viewBox="0 0 24 24" fill="none" xmlns="http://www.w3.org/2000/svg">
<g clip-path="url(#clip0_5192_375333)">
<path opacity="0.4" fill-rule="evenodd" clip-rule="evenodd" d="M7.95341 2.78142C7.17113 2.46851 6.37623 3.20399 6.62754 4.00817L6.75 4.40006L7.72436 6.00006H7C6.44772 6.00006 6 6.44778 6 7.00006C6 7.55235 6.44772 8.00006 7 8.00006H15C15.5523 8.00006 16 7.55235 16 7.00006C16 6.44778 15.5523 6.00006 15 6.00006H14.2756L15.25 4.40006L15.3366 4.12297C15.5938 3.29981 14.7582 2.55887 13.9717 2.91278L13.7726 3.00237C13.495 3.12729 13.1756 3.11896 12.9049 2.97974L11.4948 2.25451C11.1871 2.0963 10.8196 2.10832 10.5229 2.28631L9.42534 2.94486C9.15736 3.10565 8.82962 3.13191 8.53945 3.01584L7.95341 2.78142Z" fill="#667085"/>
<path fill-rule="evenodd" clip-rule="evenodd" d="M13 13C13 11.8954 13.8954 11 15 11H20C21.1046 11 22 11.8954 22 13V20C22 21.1046 21.1046 22 20 22H15C13.8954 22 13 21.1046 13 20V13ZM14.6364 13.8182C14.6364 13.3663 15.0027 13 15.4545 13H19.5454C19.9973 13 20.3636 13.3663 20.3636 13.8182C20.3636 14.27 19.9973 14.6363 19.5454 14.6363H15.4545C15.0027 14.6363 14.6364 14.27 14.6364 13.8182ZM15.4545 16.2727C15.0027 16.2727 14.6364 16.639 14.6364 17.0909C14.6364 17.5428 15.0027 17.9091 15.4545 17.9091H18.7273C19.1791 17.9091 19.5454 17.5428 19.5454 17.0909C19.5454 16.639 19.1791 16.2727 18.7273 16.2727H15.4545Z" fill="#667085"/>
<path opacity="0.4" fill-rule="evenodd" clip-rule="evenodd" d="M6.30223 10.3549C6.13553 11.1127 5.82679 11.8387 5.38947 12.5014L4.40043 14L3.39645 15.8255C3.33257 15.9417 3.27784 16.0618 3.23266 16.185C2.61631 17.8661 3.25231 19.7171 4.81157 20.7803L5.13174 20.9986C6.08499 21.6486 7.24441 22 8.43598 22H12.7639C12.2889 21.4692 12 20.7684 12 20V13C12 11.3431 13.3431 10 15 10H15.5738C15.2814 9.40232 14.6242 9 13.8799 9H8.1201C7.2364 9 6.47554 9.56709 6.30223 10.3549ZM15.8765 11H15C13.8954 11 13 11.8954 13 13V20C13 20.9234 13.6258 21.7007 14.4765 21.9308C15.3399 21.7989 16.1609 21.481 16.8683 20.9986L17.1884 20.7803C18.2335 20.0677 18.8638 19.0012 18.9803 17.8692C18.9006 17.8951 18.8156 17.9091 18.7273 17.9091H15.4545C15.0027 17.9091 14.6364 17.5428 14.6364 17.0909C14.6364 16.639 15.0027 16.2727 15.4545 16.2727H18.7273C18.7516 16.2727 18.7756 16.2738 18.7994 16.2759C18.7891 16.2455 18.7784 16.2153 18.7673 16.185C18.7222 16.0618 18.6674 15.9417 18.6035 15.8255L17.9495 14.6364H15.4545C15.0027 14.6364 14.6364 14.2701 14.6364 13.8182C14.6364 13.3663 15.0027 13 15.4545 13H16.9396L16.6105 12.5014C16.299 12.0293 16.0527 11.525 15.8765 11Z" fill="#667085"/>
</g>
<defs>
<clipPath id="clip0_5192_375333">
<rect width="24" height="24" fill="white"/>
</clipPath>
</defs>
</svg>
