<svg width="24" height="24" viewBox="0 0 24 24" fill="none" xmlns="http://www.w3.org/2000/svg">
<path opacity="0.4" d="M10.9398 8.53694C11.5894 8.12973 12.4146 8.12973 13.0642 8.53694L19.1288 12.3384C19.7123 12.7041 20.0665 13.3443 20.0665 14.033V18.1292C20.0665 19.2337 19.1711 20.1292 18.0665 20.1292H5.9375C4.83293 20.1292 3.9375 19.2337 3.9375 18.1292V14.033C3.9375 13.3443 4.29178 12.7041 4.87527 12.3384L10.9398 8.53694Z" fill="#667085"/>
<path fill-rule="evenodd" clip-rule="evenodd" d="M9.64449 4.66769C11.0857 3.77744 12.9143 3.77744 14.3555 4.66769L21.4776 9.06722C21.998 9.38866 22.1562 10.0662 21.831 10.5805C21.5057 11.0948 20.8202 11.2511 20.2999 10.9297L13.1778 6.53018C12.4572 6.08505 11.5428 6.08505 10.8222 6.53018L3.70012 10.9297C3.17976 11.2511 2.49427 11.0948 2.16904 10.5805C1.84381 10.0662 2.002 9.38866 2.52236 9.06722L9.64449 4.66769Z" fill="#667085"/>
</svg>
