<svg width="24" height="24" viewBox="0 0 24 24" fill="none" xmlns="http://www.w3.org/2000/svg">
<path d="M12.0113 14.6806C10.4913 14.6806 9.26172 13.4964 9.26172 12.0091C9.26172 10.5217 10.4913 9.328 12.0113 9.328C13.5313 9.328 14.7319 10.5217 14.7319 12.0091C14.7319 13.4964 13.5313 14.6806 12.0113 14.6806Z" fill="#667085"/>
<path opacity="0.4" d="M20.7443 14.2442C20.5604 13.96 20.299 13.6758 19.9601 13.4958C19.689 13.3632 19.5148 13.1453 19.3599 12.8895C18.8661 12.0747 19.1565 11.0042 19.9795 10.5211C20.9477 9.98106 21.2575 8.7779 20.6959 7.84001L20.0473 6.72211C19.4954 5.78422 18.2852 5.45264 17.3267 6.00211C16.4747 6.45685 15.3807 6.15369 14.8869 5.34843C14.732 5.08316 14.6449 4.79895 14.6642 4.51474C14.6933 4.14527 14.5771 3.79474 14.4028 3.51053C14.0446 2.92316 13.3959 2.52527 12.6795 2.52527H11.3144C10.6076 2.54422 9.95892 2.92316 9.6007 3.51053C9.41674 3.79474 9.31025 4.14527 9.32961 4.51474C9.34897 4.79895 9.26184 5.08316 9.10693 5.34843C8.61316 6.15369 7.51913 6.45685 6.67682 6.00211C5.70865 5.45264 4.50812 5.78422 3.94658 6.72211L3.29791 7.84001C2.74605 8.7779 3.05587 9.98106 4.01435 10.5211C4.8373 11.0042 5.12775 12.0747 4.64367 12.8895C4.47908 13.1453 4.30481 13.3632 4.03372 13.4958C3.70454 13.6758 3.41409 13.96 3.25918 14.2442C2.90096 14.8316 2.92032 15.5705 3.27855 16.1863L3.94658 17.3232C4.30481 17.9295 4.97284 18.3084 5.66993 18.3084C5.9991 18.3084 6.38637 18.2137 6.69619 18.0242C6.93823 17.8632 7.22868 17.8063 7.54818 17.8063C8.50666 17.8063 9.31025 18.5926 9.32961 19.5305C9.32961 20.62 10.2203 21.4726 11.3434 21.4726H12.6601C13.7735 21.4726 14.6642 20.62 14.6642 19.5305C14.6933 18.5926 15.4969 17.8063 16.4553 17.8063C16.7652 17.8063 17.0556 17.8632 17.3073 18.0242C17.6171 18.2137 17.9947 18.3084 18.3336 18.3084C19.021 18.3084 19.689 17.9295 20.0473 17.3232L20.725 16.1863C21.0735 15.5516 21.1026 14.8316 20.7443 14.2442Z" fill="#667085"/>
</svg>
