<svg width="20" height="20" viewBox="0 0 20 20" fill="none" xmlns="http://www.w3.org/2000/svg">
<path d="M2.83268 9.9993C2.8265 11.6649 3.40065 13.2806 4.45647 14.5688C5.51254 15.8573 6.98454 16.7377 8.61937 17.0584C10.2542 17.3792 11.9497 17.1204 13.4144 16.3265C14.8791 15.5326 16.0214 14.2532 16.645 12.7083C17.2686 11.1634 17.3345 9.44953 16.8313 7.86133C16.3281 6.27313 15.2873 4.90985 13.8879 4.00589C12.4884 3.10193 10.8178 2.71378 9.16312 2.90816C7.50849 3.10254 5.97328 3.86732 4.82144 5.071L4.01217 5.91669H5.18268H7.18268C7.27109 5.91669 7.35587 5.95181 7.41838 6.01432C7.4809 6.07683 7.51602 6.16162 7.51602 6.25002C7.51602 6.33843 7.4809 6.42321 7.41838 6.48572C7.35587 6.54823 7.27109 6.58335 7.18268 6.58335H3.43268C3.34428 6.58335 3.25949 6.54823 3.19698 6.48572C3.13447 6.42321 3.09935 6.33843 3.09935 6.25002V2.50002C3.09935 2.41162 3.13447 2.32683 3.19698 2.26432C3.25949 2.20181 3.34428 2.16669 3.43268 2.16669C3.52109 2.16669 3.60587 2.20181 3.66838 2.26432L4.02194 1.91076L3.66839 2.26432C3.7309 2.32683 3.76602 2.41161 3.76602 2.50002V3.97502V5.14436L4.61144 4.33652C6.06317 2.94933 7.99216 2.1726 10.0001 2.16669M2.83268 9.9993C2.83268 9.99889 2.83268 9.99849 2.83269 9.99808L3.33268 10H2.83268C2.83268 9.99978 2.83268 9.99954 2.83268 9.9993ZM2.83268 9.9993C2.83249 9.91115 2.79739 9.82666 2.73505 9.76432C2.67254 9.70181 2.58775 9.66669 2.49935 9.66669C2.41094 9.66669 2.32616 9.70181 2.26365 9.76432C2.20113 9.82683 2.16602 9.91162 2.16602 10C2.16602 11.5493 2.62543 13.0638 3.48617 14.352C4.34691 15.6402 5.57031 16.6442 7.00166 17.2371C8.43302 17.83 10.008 17.9851 11.5276 17.6828C13.0471 17.3806 14.4428 16.6345 15.5384 15.539C16.6339 14.4435 17.3799 13.0477 17.6822 11.5282C17.9844 10.0087 17.8293 8.43369 17.2364 7.00233C16.6435 5.57098 15.6395 4.34758 14.3513 3.48684C13.0633 2.62624 11.5491 2.16683 10.0001 2.16669M10.0001 2.16669C10.0003 2.16669 10.0005 2.16669 10.0008 2.16668L9.99935 1.66669V2.16669C9.99959 2.16669 9.99983 2.16669 10.0001 2.16669ZM10.3327 9.16669V9.66669H10.8327H11.666C11.7544 9.66669 11.8392 9.70181 11.9017 9.76432C11.9642 9.82683 11.9993 9.91162 11.9993 10C11.9993 10.0884 11.9642 10.1732 11.9017 10.2357C11.8392 10.2982 11.7544 10.3334 11.666 10.3334H9.99935C9.91094 10.3334 9.82616 10.2982 9.76365 10.2357C9.70113 10.1732 9.66602 10.0884 9.66602 10V7.50002C9.66602 7.41162 9.70113 7.32683 9.76365 7.26432C9.82616 7.20181 9.91094 7.16669 9.99935 7.16669C10.0878 7.16669 10.1725 7.20181 10.2351 7.26432C10.2976 7.32683 10.3327 7.41161 10.3327 7.50002V9.16669Z" fill="white" stroke="#667085"/>
</svg>
