<svg width="16" height="16" viewBox="0 0 16 16" fill="none" xmlns="http://www.w3.org/2000/svg">
<path d="M12.9151 9.33337H3.08401C2.15068 9.33337 1.77734 9.63083 1.77734 10.3698L1.77734 13.1858C1.77734 13.9248 2.15068 14.2223 3.08401 14.2223H12.9151C13.8485 14.2223 14.2218 13.9248 14.2218 13.1858V10.3698C14.2218 9.63083 13.8485 9.33337 12.9151 9.33337Z" stroke="#667085" stroke-width="1.5" stroke-linecap="round" stroke-linejoin="round"/>
<path d="M12.9151 1.77783H3.08401C2.15068 1.77783 1.77734 2.07529 1.77734 2.81429L1.77734 5.63027C1.77734 6.36926 2.15068 6.66672 3.08401 6.66672H12.9151C13.8485 6.66672 14.2218 6.36926 14.2218 5.63027V2.81429C14.2218 2.07529 13.8485 1.77783 12.9151 1.77783Z" stroke="#667085" stroke-width="1.5" stroke-linecap="round" stroke-linejoin="round"/>
</svg>
