<svg width="24" height="24" viewBox="0 0 24 24" fill="none" xmlns="http://www.w3.org/2000/svg">
<g clip-path="url(#clip0_3994_43304)">
<path opacity="0.4" d="M10.7487 4.63986L6.31875 2.44986C3.92875 1.27986 1.96875 2.46986 1.96875 5.08986V19.9299C1.96875 21.0699 2.91875 21.9999 4.07875 21.9999H11.4987C12.0487 21.9999 12.4987 21.5499 12.4987 20.9999V7.40986C12.4987 6.35986 11.7087 5.10986 10.7487 4.63986ZM8.96875 13.7499H5.49875C5.08875 13.7499 4.74875 13.4099 4.74875 12.9999C4.74875 12.5899 5.08875 12.2499 5.49875 12.2499H8.96875C9.37875 12.2499 9.71875 12.5899 9.71875 12.9999C9.71875 13.4099 9.38875 13.7499 8.96875 13.7499ZM8.96875 9.74986H5.49875C5.08875 9.74986 4.74875 9.40986 4.74875 8.99986C4.74875 8.58986 5.08875 8.24986 5.49875 8.24986H8.96875C9.37875 8.24986 9.71875 8.58986 9.71875 8.99986C9.71875 9.40986 9.38875 9.74986 8.96875 9.74986Z" fill="#667085"/>
<path d="M22 18.04V19.5C22 20.88 20.88 22 19.5 22H14.97C14.43 22 14 21.57 14 21.03V18.87C15.07 19 16.2 18.69 17.01 18.04C17.69 18.59 18.56 18.92 19.51 18.92C20.44 18.92 21.31 18.59 22 18.04Z" fill="#667085"/>
<path d="M22 15.05V15.06C21.92 16.37 20.85 17.42 19.51 17.42C18.12 17.42 17.01 16.29 17.01 14.92C17.01 16.45 15.6 17.68 14 17.37V12C14 11.36 14.59 10.88 15.22 11.02L17.01 11.42L17.49 11.53L19.53 11.99C20.02 12.09 20.47 12.26 20.86 12.51C20.86 12.52 20.87 12.52 20.87 12.52C20.97 12.59 21.07 12.67 21.16 12.76C21.62 13.22 21.92 13.89 21.99 14.87C21.99 14.93 22 14.99 22 15.05Z" fill="#667085"/>
</g>
<defs>
<clipPath id="clip0_3994_43304">
<rect width="24" height="24" fill="white"/>
</clipPath>
</defs>
</svg>
