<?xml version="1.0" standalone="no"?>
<!DOCTYPE svg PUBLIC "-//W3C//DTD SVG 20010904//EN"
 "http://www.w3.org/TR/2001/REC-SVG-20010904/DTD/svg10.dtd">
<svg version="1.0" xmlns="http://www.w3.org/2000/svg"
 width="1843.000000pt" height="2048.000000pt" viewBox="0 0 1843.000000 2048.000000"
 preserveAspectRatio="xMidYMid meet">
<metadata>
Created by potrace 1.16, written by Peter Selinger 2001-2019
</metadata>
<g transform="translate(0.000000,2048.000000) scale(0.100000,-0.100000)"
fill="#000000" stroke="none">
<path d="M4431 20398 c30 -81 59 -173 133 -425 29 -100 86 -366 86 -404 0 -5
-28 -9 -63 -9 -192 0 -562 -178 -855 -411 -51 -41 -108 -84 -125 -97 -18 -13
-61 -52 -97 -86 -54 -53 -75 -67 -125 -81 -32 -9 -81 -28 -108 -41 -87 -45
-509 -445 -595 -565 -25 -35 -116 -143 -181 -215 -49 -53 -158 -200 -187 -250
-32 -57 -80 -136 -146 -238 -95 -150 -200 -339 -232 -419 -19 -45 -93 -203
-165 -352 -73 -148 -156 -331 -186 -405 -166 -417 -408 -916 -583 -1207 -49
-81 -103 -175 -120 -208 -17 -33 -63 -105 -101 -160 -39 -55 -150 -218 -246
-363 -169 -253 -232 -339 -439 -597 l-96 -120 0 -79 0 -80 93 94 c51 52 128
133 171 180 43 47 72 74 64 60 -83 -141 -195 -326 -255 -418 l-73 -112 0 -476
c0 -450 1 -476 18 -468 9 4 102 29 206 56 104 26 232 67 285 89 53 23 137 54
186 71 67 22 119 48 205 106 63 42 128 89 145 103 42 37 225 162 225 154 0 -3
10 1 22 9 12 9 25 16 29 16 4 0 -4 -57 -16 -127 -23 -129 -42 -404 -47 -668
-3 -174 2 -345 9 -325 4 8 13 20 21 26 12 9 14 33 8 142 -4 85 -2 133 4 137 6
4 10 12 9 18 -1 7 -1 26 0 42 1 23 3 27 11 15 5 -8 10 -10 11 -5 3 19 6 40 8
58 0 9 6 17 12 17 6 0 9 -16 8 -41 -2 -27 1 -43 11 -49 12 -8 12 -10 1 -10
-10 0 -12 -13 -9 -57 3 -32 -1 -128 -8 -213 -7 -85 -14 -231 -14 -325 0 -93
-5 -190 -11 -215 -13 -56 -13 -141 1 -150 6 -4 13 -22 15 -41 10 -70 26 -205
31 -249 9 -87 15 -110 29 -110 8 0 15 -7 15 -15 0 -8 -4 -15 -10 -15 -5 0 -9
-10 -9 -22 1 -20 2 -20 6 -4 4 16 9 12 24 -20 10 -21 18 -47 19 -56 0 -10 11
-46 24 -80 66 -172 128 -390 145 -510 6 -40 5 -46 -7 -36 -10 9 -15 9 -22 -1
-4 -8 -13 -10 -20 -6 -9 6 -11 -6 -7 -48 15 -183 280 -720 480 -972 57 -73
187 -197 187 -180 0 4 -22 35 -50 70 -63 79 -155 257 -213 410 -25 66 -55 143
-67 170 -35 79 -128 362 -151 455 -32 138 -96 580 -83 580 2 0 8 -19 14 -42
43 -169 99 -353 142 -468 82 -220 146 -335 299 -542 62 -83 61 -81 84 -273 8
-66 19 -156 24 -200 6 -44 13 -105 15 -135 3 -30 11 -109 17 -175 35 -366 -59
-936 -219 -1325 -57 -139 -186 -390 -296 -575 -36 -61 65 60 125 150 177 262
334 705 392 1108 25 170 28 148 30 -188 0 -71 -3 -191 -7 -265 -6 -122 -13
-183 -47 -405 -15 -97 -75 -335 -105 -420 -31 -86 -55 -205 -41 -205 5 0 20
12 32 26 22 25 24 26 46 10 33 -23 48 -20 60 12 53 134 124 340 154 447 19 72
47 168 60 215 14 47 30 101 35 120 7 26 9 11 5 -65 -7 -117 -16 -185 -55 -395
-42 -227 -45 -260 -26 -260 30 0 95 165 130 330 8 41 27 119 40 172 29 112 55
290 58 396 1 39 3 72 4 72 1 0 28 -48 59 -107 120 -226 258 -408 441 -580 126
-119 206 -183 265 -213 35 -18 38 -24 59 -112 36 -146 78 -257 126 -329 48
-72 91 -110 169 -149 l50 -25 -3 -105 c-2 -58 -5 -112 -8 -120 -2 -8 -26 -31
-52 -50 -112 -83 -241 -189 -297 -246 l-60 -61 -86 -11 c-88 -12 -109 -11
-216 14 -102 24 -135 13 -220 -71 -40 -40 -73 -78 -73 -85 0 -14 12 -6 65 41
57 50 109 79 143 79 19 0 73 -7 121 -16 66 -12 102 -13 156 -6 39 5 71 9 72 8
2 -2 -9 -18 -23 -37 -14 -19 -48 -81 -76 -139 -28 -58 -56 -108 -62 -112 -5
-4 -39 -12 -75 -18 -37 -6 -78 -13 -93 -16 -27 -5 -28 -4 -28 38 0 38 5 49 38
81 21 20 42 37 47 38 6 0 21 14 35 31 l24 31 -28 -7 c-15 -4 -45 -18 -67 -31
-21 -14 -42 -25 -47 -25 -41 0 -89 -129 -159 -430 -37 -162 -38 -168 -37 -355
1 -236 15 -363 60 -552 20 -82 55 -237 79 -345 46 -213 131 -476 225 -699 11
-26 44 -141 74 -257 l55 -210 -20 -78 c-41 -157 -154 -479 -178 -508 -5 -6
-42 -90 -81 -186 -40 -96 -92 -213 -115 -260 -47 -94 -216 -378 -293 -492 -53
-79 -105 -178 -94 -178 4 0 36 32 71 71 68 76 90 84 47 18 l-28 -41 32 18 c44
26 178 170 238 257 161 234 337 583 434 864 40 117 76 213 80 213 3 0 9 -14
13 -30 4 -17 17 -43 30 -58 13 -16 42 -78 65 -139 48 -133 116 -266 200 -394
34 -52 80 -132 102 -179 63 -136 71 -152 105 -212 18 -31 40 -87 49 -124 8
-38 28 -98 43 -134 15 -36 40 -119 55 -185 61 -262 67 -291 76 -315 5 -14 21
-92 35 -175 14 -82 35 -196 47 -252 l21 -103 384 0 383 0 10 25 c24 63 64 107
145 162 111 74 155 79 277 35 116 -42 280 -122 363 -176 57 -38 78 -46 116
-46 l45 0 28 73 c39 104 46 116 96 166 109 111 171 129 253 72 57 -39 98 -89
174 -211 l59 -95 1112 -3 c887 -2 1112 0 1112 10 0 7 -24 65 -53 128 -111 241
-250 405 -462 545 -66 43 -200 132 -297 197 -97 65 -179 118 -182 118 -3 0
-28 13 -55 29 -28 17 -112 62 -188 102 -76 40 -150 81 -165 91 -39 27 -296
143 -370 167 -35 11 -167 54 -295 95 -333 108 -538 157 -870 207 l-152 23 -6
46 c-13 96 -27 198 -35 255 -5 33 -12 88 -15 123 l-7 63 28 -7 c16 -4 58 -18
94 -31 159 -60 487 -164 548 -173 37 -6 110 -23 162 -37 52 -14 102 -27 110
-29 8 -2 105 -24 215 -49 222 -50 213 -48 450 -104 94 -22 238 -54 320 -72 83
-17 222 -51 310 -75 225 -62 204 -57 181 -43 -11 6 -56 22 -100 34 -45 13
-108 32 -141 43 -33 11 -102 28 -154 37 -52 9 -189 43 -305 76 -116 33 -240
64 -276 70 -110 17 -480 98 -570 124 -47 14 -146 39 -220 55 -74 17 -138 36
-142 43 -12 18 -10 34 7 51 8 8 15 18 15 22 0 5 -5 3 -12 -4 -19 -19 -29 -14
-25 15 4 33 -20 63 -50 63 -12 0 -24 4 -28 10 -8 12 34 5 120 -21 39 -11 108
-31 155 -44 47 -12 110 -30 140 -39 30 -8 87 -20 125 -26 39 -6 144 -35 235
-64 126 -42 235 -68 462 -111 163 -30 350 -69 415 -86 65 -16 156 -32 203 -34
l85 -5 -80 15 c-156 29 -182 34 -330 69 -82 20 -256 56 -385 81 -129 25 -283
60 -341 79 -98 31 -236 67 -369 96 -88 20 -325 94 -610 192 -146 50 -266 92
-268 94 -2 1 -8 51 -13 110 -9 103 -8 112 17 186 14 43 29 78 34 78 4 0 14 -8
21 -17 8 -9 62 -57 121 -107 73 -63 135 -105 200 -138 92 -46 114 -53 253 -84
76 -17 223 -15 285 4 l35 10 -45 1 c-131 3 -400 100 -523 188 -73 52 -236 190
-268 228 l-27 30 34 75 c18 41 66 149 107 240 87 195 160 349 167 349 3 0 30
-46 61 -102 78 -142 253 -374 368 -486 125 -121 277 -236 399 -299 199 -103
333 -135 577 -136 161 -1 389 15 402 27 3 4 -43 7 -103 7 -60 0 -147 7 -194
14 -47 8 -88 12 -92 10 -10 -7 -160 25 -275 57 -155 44 -346 144 -489 255 -80
62 -242 228 -322 329 -47 60 -136 202 -215 341 l-57 101 31 67 c17 37 30 68
28 69 -69 45 -95 77 -64 77 19 0 19 14 0 30 -22 18 -13 22 21 10 27 -11 27
-10 12 7 -13 14 -14 23 -6 38 16 30 16 30 37 11 19 -17 19 -17 14 3 -6 24 13
28 41 8 17 -12 17 -15 -5 -60 -13 -26 -27 -47 -32 -47 -4 0 -6 -4 -2 -9 3 -5
1 -12 -5 -16 -5 -3 -10 -1 -10 6 0 7 -2 10 -5 7 -8 -8 6 -39 15 -33 4 3 17 24
29 47 12 24 39 70 61 103 21 33 63 101 91 150 120 205 173 292 202 328 32 42
26 41 127 18 80 -18 307 -13 417 9 199 40 337 100 505 221 64 46 150 107 189
134 40 28 102 78 138 112 36 35 73 63 81 63 8 0 59 -11 115 -25 130 -32 377
-75 433 -75 50 0 49 7 18 -100 -28 -95 -46 -249 -52 -445 -11 -312 28 -499
143 -690 74 -123 111 -166 185 -216 32 -22 62 -47 65 -55 3 -8 19 -14 40 -14
19 0 63 -12 99 -28 l66 -27 -6 -50 c-3 -27 -15 -140 -26 -250 -36 -362 -72
-700 -96 -905 -12 -104 -17 -269 -21 -718 -3 -320 -9 -580 -13 -577 -4 3 -39
58 -76 122 -102 175 -349 497 -475 619 -68 65 -156 120 -247 155 -39 15 -22 2
75 -58 106 -64 171 -126 275 -260 44 -57 83 -105 89 -108 5 -4 5 -14 -1 -26
-6 -10 -9 -19 -6 -19 3 0 -1 -20 -8 -44 -8 -25 -11 -47 -8 -50 3 -4 0 -6 -8
-6 -10 0 -10 -4 1 -17 12 -15 12 -16 -6 -10 -19 7 -19 6 -2 -7 9 -7 17 -21 17
-32 0 -14 -5 -11 -23 13 -12 17 -51 59 -86 94 l-63 64 48 -64 c56 -75 188
-267 271 -394 32 -48 90 -135 128 -193 39 -58 92 -140 118 -182 27 -42 55 -81
63 -86 14 -11 46 -178 59 -308 l7 -68 218 0 218 0 159 164 158 163 75 13 c110
17 353 82 340 90 -13 8 88 20 170 20 59 0 348 -66 510 -116 47 -15 173 -59
280 -100 107 -40 293 -110 413 -154 l217 -80 196 0 c123 0 203 4 216 11 15 8
19 8 14 0 -4 -6 0 -11 8 -11 10 0 13 6 10 15 -4 8 -11 15 -17 15 -6 0 -8 2 -5
5 6 7 68 -15 68 -24 0 -4 24 -7 53 -8 36 -1 46 1 32 7 -163 69 -422 166 -605
225 -47 15 -101 36 -120 45 -19 10 -91 39 -160 65 -69 26 -152 61 -185 78 -84
42 -418 163 -490 177 -33 6 -104 23 -157 36 -53 13 -125 24 -160 25 -66 1
-243 -15 -338 -31 -95 -16 -110 -17 -110 -11 0 4 23 35 51 70 27 34 73 95 101
134 127 179 398 513 524 647 89 95 222 240 327 359 143 161 343 377 436 471
101 102 201 218 201 235 0 7 7 16 16 19 9 4 14 10 10 13 -4 4 -79 -65 -166
-152 -88 -88 -160 -153 -160 -145 0 32 -125 137 -321 271 -198 134 -705 477
-757 511 -30 20 -210 79 -322 105 -59 14 -117 18 -275 18 -182 -1 -212 -3
-330 -29 -141 -31 -212 -55 -258 -88 l-30 -21 7 74 c3 41 9 111 12 156 l6 82
53 6 c54 7 95 0 106 -18 17 -26 354 60 477 122 44 22 100 35 237 57 186 29
175 25 354 114 185 92 274 159 361 276 21 28 45 57 52 65 8 8 38 47 67 86 29
40 58 73 64 73 7 0 39 -18 72 -41 33 -22 70 -45 83 -50 107 -43 391 -255 433
-324 19 -30 19 -30 19 -5 -1 18 -15 36 -48 62 -26 21 -62 51 -81 68 -41 38
-165 132 -251 190 -72 48 -210 158 -210 167 0 3 8 17 18 31 10 15 38 70 62
122 63 136 99 181 214 267 112 85 344 312 482 472 189 221 419 500 502 611
129 171 368 532 290 437 -13 -15 -37 -44 -54 -65 -17 -20 -83 -116 -146 -213
-64 -96 -149 -215 -189 -265 -321 -394 -782 -848 -978 -963 l-49 -29 3 96 c5
179 -44 528 -96 683 -30 89 -93 229 -104 229 -3 0 8 -26 24 -58 28 -56 81
-215 87 -259 1 -12 5 -26 8 -32 8 -13 37 -233 31 -239 -2 -2 -19 -6 -37 -7
-18 -2 -36 -3 -40 -4 -4 -1 -17 -24 -30 -51 -13 -28 -27 -48 -33 -46 -14 5
-62 -21 -110 -58 -42 -33 -53 -37 -72 -24 -7 6 -16 2 -25 -10 -7 -10 -22 -23
-33 -28 -26 -13 -101 -10 -146 5 -20 6 -51 14 -70 16 -76 10 -105 18 -126 37
-12 12 -27 17 -34 13 -6 -5 -25 -8 -41 -7 -17 0 -31 -5 -35 -14 -4 -12 -25
-14 -122 -9 -64 3 -116 5 -116 6 0 4 -66 10 -134 12 -53 1 -90 -2 -100 -10
-24 -18 -137 -16 -165 2 -24 16 -76 12 -76 -6 0 -5 -7 -9 -15 -9 -8 0 -15 -4
-15 -10 0 -14 -38 -12 -42 2 -3 9 -11 8 -31 -5 -14 -9 -32 -14 -40 -11 -8 3
-17 -2 -20 -10 -4 -9 -13 -16 -22 -16 -8 0 -15 -4 -15 -9 0 -5 -13 -12 -30
-16 -16 -4 -30 -10 -30 -15 0 -14 -64 -42 -68 -30 -8 23 -80 1 -102 -32 -9
-12 -122 -11 -154 1 -20 8 -32 8 -41 1 -7 -6 -19 -8 -27 -5 -8 3 -23 -4 -33
-15 -16 -18 -26 -20 -79 -15 -34 4 -68 9 -76 12 -27 10 -60 12 -65 3 -8 -13
-45 1 -45 17 0 8 3 12 8 9 4 -2 6 13 4 34 -2 21 1 47 7 59 7 12 14 52 16 91 4
69 19 115 34 106 5 -3 7 13 6 35 -2 28 2 42 12 46 8 3 12 12 9 20 -3 8 -1 11
4 8 6 -3 7 1 4 10 -3 8 1 33 10 55 9 22 16 46 16 53 -1 23 -24 -29 -60 -133
l-36 -105 -35 3 c-19 1 -88 14 -154 27 -66 14 -167 34 -225 45 -112 23 -110
22 -270 70 -375 113 -959 502 -1418 945 -161 155 -592 653 -592 684 0 6 -45
65 -183 240 -58 73 -69 68 158 75 145 5 398 36 414 51 3 4 -19 3 -49 -2 -30
-4 -176 -7 -324 -7 l-269 0 -38 44 c-22 25 -39 50 -39 56 0 6 -9 19 -20 29
-11 10 -27 31 -35 47 -17 34 -19 33 85 47 97 13 183 32 295 66 50 15 140 35
200 45 157 25 271 61 322 102 28 22 -1 26 -50 7 -86 -34 -108 -39 -212 -55
-102 -15 -211 -12 -290 8 -40 10 -174 64 -295 119 -108 49 -278 172 -400 288
-63 60 -112 112 -109 116 4 3 28 -6 55 -21 248 -134 248 -134 367 -154 63 -11
134 -24 158 -29 58 -14 174 -13 224 0 22 7 79 12 127 13 48 1 90 5 93 8 4 3
-31 9 -77 13 -205 16 -469 76 -592 134 -111 51 -357 198 -453 270 -88 64 -244
232 -330 354 -85 120 -238 427 -213 427 5 0 12 -4 15 -10 13 -20 183 -105 284
-141 94 -33 160 -59 226 -89 11 -5 53 -19 94 -30 41 -11 76 -22 79 -25 3 -3 0
-55 -6 -116 -13 -125 -25 -152 -98 -219 -25 -23 -43 -44 -41 -47 10 -10 53 21
116 81 47 46 61 55 56 37 -5 -16 -4 -21 4 -17 10 6 15 -6 12 -27 -1 -4 5 -23
13 -42 16 -38 36 -49 129 -71 32 -8 72 -21 90 -30 l32 -15 -25 20 c-27 22 -21
28 11 11 10 -6 19 -7 19 -3 0 4 21 8 48 7 37 0 73 -14 170 -62 67 -34 122 -60
122 -58 0 2 -25 22 -55 45 -87 66 -237 200 -274 245 -56 68 -63 96 -63 241 0
177 34 332 104 468 l24 49 12 -52 c6 -28 20 -70 31 -93 10 -23 24 -60 31 -82
7 -22 42 -87 79 -144 62 -98 76 -112 211 -223 80 -65 168 -134 197 -153 28
-19 55 -40 59 -46 4 -7 13 -1 24 16 26 39 70 65 112 65 33 0 38 -4 48 -34 6
-19 8 -45 5 -59 -7 -25 -87 -90 -111 -90 -8 0 -14 -4 -14 -9 0 -15 53 -8 72 9
17 15 23 14 105 -21 94 -40 108 -37 98 17 -4 23 0 29 22 38 15 6 35 8 45 6 14
-4 18 1 18 24 0 26 -3 29 -35 29 -19 0 -35 3 -36 8 0 4 -2 17 -3 30 -4 33 21
62 52 62 15 0 50 6 79 14 45 12 54 12 64 0 8 -10 15 -11 24 -4 15 12 26 3 18
-16 -3 -8 0 -14 7 -14 14 0 55 -41 63 -62 7 -21 16 -5 19 35 1 22 7 37 15 37
7 0 13 9 13 20 0 11 4 20 9 20 5 0 13 9 16 20 7 22 40 27 48 8 3 -7 6 1 6 19
1 17 4 33 9 36 4 2 2 2 -5 1 -24 -6 -22 13 2 24 14 6 31 26 39 44 14 31 14 32
15 7 1 -14 -4 -30 -10 -36 -14 -14 -4 -32 26 -43 45 -17 57 -51 58 -165 2 -77
-2 -108 -11 -114 -7 -4 -16 -21 -21 -37 -11 -43 -50 -57 -173 -62 -97 -4 -106
-6 -105 -23 1 -14 10 -19 32 -20 16 -1 46 -2 65 -3 157 -7 303 42 333 111 20
49 26 105 17 168 l-7 50 -3 -60 c-2 -51 -15 -120 -20 -105 0 3 -3 68 -4 145
-4 134 -3 138 10 85 l13 -55 -7 70 c-4 39 -7 88 -7 111 l0 41 -30 -19 c-88
-53 -175 30 -108 105 20 21 40 22 86 2 39 -16 54 -10 34 14 -7 9 -18 32 -24
51 -6 19 -18 52 -27 73 l-16 38 26 -7 c19 -5 25 -4 20 5 -4 6 0 14 9 17 12 5
13 9 4 20 -14 17 -9 17 28 4 l28 -10 -24 20 c-26 22 -21 26 12 9 15 -8 11 0
-13 24 -30 30 -110 88 -475 343 -73 51 -406 236 -457 254 -31 12 -42 11 -83
-4 -55 -21 -71 -15 -24 10 l33 17 -47 24 -48 24 -29 -21 c-34 -24 -134 -60
-164 -59 -21 1 24 25 119 66 l40 17 -35 6 c-71 13 -212 -1 -322 -32 -102 -29
-124 -41 -95 -51 6 -2 2 -3 -9 -1 -12 2 -38 -3 -57 -11 -39 -16 -140 -10 -134
9 3 10 88 60 152 90 17 8 63 21 104 29 40 9 79 21 85 27 8 9 6 11 -9 7 -11 -4
-49 -13 -85 -21 -36 -8 -87 -24 -114 -36 -47 -20 -86 -19 -86 1 0 6 -5 7 -10
4 -11 -7 -204 118 -268 172 l-33 28 53 52 c55 53 208 157 288 195 25 11 68 23
97 26 43 4 55 1 75 -18 31 -30 236 -202 323 -272 39 -31 104 -74 145 -97 80
-43 74 -49 -30 -26 -36 8 -117 17 -180 21 -108 6 -116 5 -127 -14 -10 -17 -9
-19 8 -15 11 3 37 1 57 -5 20 -5 95 -18 166 -27 72 -9 155 -24 185 -32 31 -8
80 -19 110 -23 33 -6 110 -37 195 -79 168 -83 215 -103 227 -96 4 3 54 -14
111 -38 105 -45 148 -61 148 -55 0 6 -157 113 -255 175 -225 141 -555 377
-644 460 -20 19 -71 64 -113 100 -45 38 -75 70 -72 78 3 8 31 16 65 20 52 6
64 4 82 -12 12 -11 42 -28 67 -38 76 -33 141 -76 235 -158 153 -132 313 -237
614 -400 59 -31 143 -91 224 -159 129 -108 240 -188 259 -188 6 0 4 7 -3 17
-8 9 35 -14 94 -51 195 -120 342 -184 487 -212 76 -15 193 -17 185 -3 -3 4 1
10 7 13 7 3 2 3 -11 0 -13 -3 -21 -2 -18 3 6 9 -4 12 -163 53 -184 47 -402
154 -510 251 l-55 49 126 -54 c145 -62 251 -98 364 -120 44 -9 95 -21 113 -27
18 -6 43 -12 55 -13 12 -2 47 -10 77 -18 244 -67 533 -94 855 -79 226 10 278
18 400 59 l60 21 -50 -4 c-151 -13 -208 -15 -400 -16 -197 0 -309 8 -415 31
-25 6 -88 17 -140 25 -257 38 -427 89 -635 190 -76 36 -136 68 -134 70 2 2 45
-8 94 -21 116 -31 254 -54 330 -54 86 0 212 -23 350 -63 370 -108 653 -138
865 -93 64 14 213 67 206 74 -2 2 -104 -2 -227 -8 -225 -11 -351 -6 -506 21
-95 17 -61 26 59 16 162 -13 352 6 703 69 161 29 201 38 270 64 28 10 84 24
125 30 177 29 258 39 305 40 67 1 41 14 -58 29 -146 23 -464 122 -452 141 2 4
-17 15 -43 25 -86 33 -176 82 -284 156 -59 41 -143 96 -187 123 -106 64 -485
388 -541 461 -11 15 -7 14 17 -5 46 -37 179 -130 185 -130 3 0 32 -17 64 -39
116 -75 364 -204 486 -251 45 -17 126 -54 180 -81 57 -28 111 -49 130 -49 30
0 31 1 15 17 -9 9 -50 35 -91 57 -40 23 -108 64 -151 91 -42 28 -125 81 -184
118 -176 113 -394 272 -488 357 -48 44 -118 105 -156 135 -190 157 -483 475
-663 720 -168 230 -328 485 -312 500 2 2 37 -14 78 -36 148 -77 196 -97 290
-118 52 -12 163 -44 245 -71 83 -27 206 -60 274 -74 68 -14 125 -27 127 -28 1
-2 -11 -34 -27 -73 -17 -38 -29 -81 -27 -95 3 -24 4 -24 22 10 11 19 27 62 36
95 l16 60 54 -2 c339 -12 458 -14 480 -5 20 7 7 11 -65 17 -50 4 -110 11 -135
15 l-45 7 65 3 65 2 -105 14 c-157 20 -290 45 -290 55 0 5 18 54 40 110 23 56
39 104 36 106 -2 2 -23 -45 -47 -106 -25 -65 -48 -111 -56 -111 -57 0 -268 58
-408 112 -183 71 -275 124 -510 292 -49 36 -119 85 -155 110 -36 26 -94 74
-130 109 -56 54 -72 78 -111 168 l-45 104 70 22 c39 12 120 36 181 54 60 17
126 39 147 50 20 10 42 19 48 19 6 0 55 -39 108 -87 190 -169 482 -370 629
-433 100 -42 332 -108 438 -125 123 -18 255 -28 255 -18 0 4 -35 19 -78 32
-140 44 -141 46 -62 86 27 14 52 30 56 36 12 20 -47 0 -100 -34 l-48 -31 -72
24 c-143 48 -273 102 -373 155 -108 57 -329 201 -353 230 -8 9 -68 60 -133
112 -86 69 -115 98 -105 104 26 17 50 8 137 -50 49 -33 142 -88 207 -122 66
-34 148 -79 184 -99 136 -78 387 -185 563 -240 20 -6 37 -16 37 -21 0 -5 13
-9 29 -9 16 0 57 -9 90 -19 160 -50 494 -82 826 -81 204 1 261 5 450 30 65 9
181 38 173 44 -1 1 -50 -1 -108 -5 -130 -10 -287 6 -600 62 -361 64 -490 94
-473 109 4 5 54 19 110 33 l103 25 107 -28 c200 -51 262 -55 659 -41 330 11
554 28 541 41 -3 3 13 4 36 2 32 -2 39 -1 27 8 -12 8 -10 9 10 5 62 -15 381
80 532 157 94 48 118 53 118 22 0 -8 3 -14 8 -14 4 0 12 -15 18 -32 6 -18 38
-115 72 -216 l61 -183 10 -267 c16 -431 22 -972 12 -1182 -17 -334 -53 -743
-86 -955 -7 -49 -16 -119 -20 -155 -24 -239 -158 -864 -237 -1108 -21 -67 -38
-129 -36 -137 2 -8 48 74 102 183 55 108 132 256 171 327 40 72 85 155 101
185 28 53 29 54 32 25 15 -126 -92 -816 -165 -1060 -67 -226 -150 -426 -239
-577 l-36 -63 73 70 c41 38 100 94 132 125 285 270 390 401 492 610 l36 75 -6
-85 c-10 -123 -81 -383 -135 -490 -27 -52 -28 -60 -11 -51 84 46 192 264 262
529 16 65 43 162 60 217 19 65 35 157 47 265 16 143 22 171 44 206 93 146 234
467 298 679 28 93 55 176 60 185 4 8 42 137 84 285 42 149 81 279 86 290 21
42 -6 -657 -31 -810 -18 -115 -77 -362 -115 -485 -47 -152 -105 -291 -199
-480 -80 -161 -94 -204 -71 -213 28 -11 122 115 195 261 148 293 245 648 321
1167 16 116 37 251 45 300 22 133 46 393 56 625 5 113 13 268 17 345 l7 140
17 -145 c69 -574 58 -1068 -37 -1580 -18 -102 -36 -207 -40 -235 l-6 -50 26
60 c91 212 147 628 147 1095 1 333 -22 594 -83 955 -27 162 -29 188 -20 259 6
44 11 100 11 125 l0 46 24 -58 c27 -65 43 -87 62 -87 19 0 44 40 43 70 -1 24
-1 24 -15 -7 -7 -17 -18 -34 -23 -38 -16 -9 -41 37 -61 116 -57 221 -120 494
-130 564 -6 44 -16 105 -22 135 -17 90 -20 401 -5 602 7 103 16 191 20 194 13
13 74 -37 90 -73 17 -39 71 -252 127 -501 32 -141 33 -145 26 -320 -11 -295
-15 -518 -10 -497 3 11 7 27 10 35 3 8 20 -20 41 -65 41 -92 58 -112 133 -155
l55 -31 -68 65 c-54 52 -76 82 -109 153 -41 88 -66 205 -39 189 6 -4 14 0 18
9 10 27 104 11 188 -32 110 -56 127 -60 80 -19 -44 38 -117 77 -210 110 l-60
22 -7 214 c-6 227 -37 473 -79 638 -18 70 -20 90 -10 122 19 62 86 153 181
243 l90 86 122 39 c199 64 247 64 383 -4 77 -38 157 -109 250 -224 176 -217
215 -314 350 -870 19 -80 49 -188 66 -240 27 -80 33 -114 36 -215 5 -128 -3
-188 -36 -299 -24 -79 -116 -270 -196 -405 -31 -52 -72 -124 -90 -162 -39 -76
-141 -329 -174 -430 -30 -92 -95 -176 -184 -236 -92 -63 -110 -70 -214 -88
-145 -25 -224 -20 -343 23 -30 11 -57 18 -60 15 -3 -3 10 -17 28 -32 l33 -28
-11 -279 c-27 -682 -77 -1154 -171 -1599 -17 -77 -37 -178 -45 -225 -35 -203
-201 -731 -285 -908 -23 -48 -61 -136 -86 -197 -40 -98 -177 -374 -285 -573
-22 -39 -37 -72 -35 -72 7 0 112 170 142 230 15 30 39 68 52 84 65 78 257 506
332 739 17 54 37 105 45 113 8 7 22 35 32 61 9 27 21 52 26 58 13 14 10 -61
-7 -155 -56 -331 -33 -781 53 -1030 78 -224 212 -389 387 -476 67 -33 229 -84
268 -84 10 0 43 -12 73 -26 53 -25 94 -32 294 -48 19 -1 61 0 92 4 52 6 57 4
62 -14 12 -45 5 -110 -24 -211 -16 -58 -37 -166 -46 -242 -15 -116 -15 -152
-5 -239 6 -56 23 -135 36 -175 14 -40 24 -73 22 -74 -1 -1 -76 -54 -167 -117
-440 -306 -1045 -776 -1026 -796 3 -3 27 13 53 35 94 78 359 290 438 348 44
33 85 64 91 70 6 5 50 37 98 70 48 33 119 83 159 112 113 81 353 243 361 243
3 0 36 -27 72 -61 78 -72 158 -112 274 -135 47 -9 104 -25 128 -35 57 -25 178
-55 272 -69 41 -6 85 -13 97 -15 11 -2 59 -29 105 -60 l83 -58 1 -131 c3 -480
133 -758 423 -905 l43 -23 -310 -311 c-170 -172 -332 -337 -358 -368 -149
-170 -217 -254 -327 -401 -67 -90 -134 -179 -149 -198 -15 -19 -70 -93 -124
-165 -53 -71 -175 -227 -269 -345 -95 -118 -237 -300 -316 -403 -79 -104 -166
-216 -192 -250 -96 -124 -292 -403 -415 -590 -69 -106 -159 -238 -199 -295
-40 -56 -73 -105 -73 -107 0 -3 60 -5 133 -5 l132 1 50 72 c28 39 90 135 139
212 362 572 513 776 960 1295 78 90 405 517 498 650 17 24 18 23 12 -65 -6
-96 -16 -127 -124 -415 -92 -246 -129 -352 -136 -397 -6 -36 -4 -43 17 -53 49
-26 249 -162 249 -170 0 -4 -39 -44 -88 -89 -96 -88 -141 -139 -270 -311 l-87
-115 -230 -115 c-264 -132 -502 -287 -627 -409 -43 -41 -78 -78 -78 -83 0 -4
70 -8 155 -8 l156 0 91 76 c93 78 170 122 177 103 2 -6 -5 -20 -16 -32 -21
-24 -93 -134 -93 -142 0 -3 556 -5 1235 -5 1169 0 1235 1 1235 18 0 35 104
347 165 498 l17 42 107 -38 c58 -21 135 -52 171 -68 120 -55 342 -132 466
-162 28 -7 58 -27 98 -65 66 -64 82 -67 184 -31 166 58 227 106 327 257 113
170 105 122 105 645 l0 454 -47 1 c-27 0 -120 3 -208 5 -185 5 -466 -17 -574
-45 -39 -10 -71 -16 -71 -13 0 3 8 14 17 24 9 10 27 49 38 86 l22 67 114 77
c116 77 272 151 479 229 58 21 133 51 167 67 l62 27 1 878 0 878 -57 -32 c-32
-18 -69 -40 -83 -49 -14 -9 -81 -47 -150 -85 -69 -37 -156 -87 -195 -111 -38
-23 -71 -41 -73 -40 -1 2 9 25 23 52 13 27 33 83 43 124 32 134 15 439 -33
561 -7 19 147 113 368 225 141 72 186 110 92 78 -43 -15 -46 -15 -95 12 -27
15 -50 34 -50 42 0 11 -3 12 -13 4 -10 -8 -21 -7 -43 4 -43 22 -49 31 -34 49
7 8 9 15 6 15 -12 0 -175 -69 -237 -100 -32 -17 -62 -30 -67 -30 -8 0 -49 141
-102 345 -7 28 -17 66 -23 86 -10 35 -8 41 50 130 62 98 110 182 161 284 16
33 48 96 70 140 47 94 87 210 97 279 14 100 -1 537 -20 594 -3 7 2 30 11 50 8
20 26 82 40 137 21 86 22 100 9 108 -8 4 -15 15 -15 22 0 8 -4 15 -9 15 -5 0
-11 8 -13 17 -2 10 -12 -17 -22 -60 -18 -77 -27 -89 -33 -44 -2 12 -12 76 -23
142 -10 66 -25 170 -31 230 l-12 110 31 60 c16 33 40 82 52 108 12 27 23 47
25 45 2 -1 8 -57 14 -123 20 -210 23 -229 31 -216 4 7 10 12 14 12 39 -5 39
-5 33 117 -3 64 -13 149 -22 187 -30 130 -30 129 4 209 17 41 31 84 31 94 0
23 25 127 46 190 40 121 38 291 -7 540 -20 110 -19 181 2 208 5 6 18 47 30 90
16 64 20 107 19 229 0 83 -5 166 -9 185 -9 34 -9 34 -10 -16 -1 -28 -4 -54 -8
-58 -4 -3 -19 7 -34 25 l-26 31 -8 -34 c-8 -30 -9 -28 -14 32 -6 62 -7 57 -25
-98 -10 -89 -22 -162 -26 -162 -4 0 -11 12 -14 26 -4 15 -46 113 -93 218 -47
105 -86 203 -87 218 0 14 -4 24 -7 22 -4 -2 -9 2 -12 9 -3 6 -28 65 -55 129
-73 171 -252 464 -392 638 -79 99 -87 119 -96 224 -7 85 -6 88 12 78 35 -19
90 -86 146 -177 203 -330 268 -473 370 -815 14 -47 23 -67 26 -53 8 53 -100
368 -187 541 -36 72 -144 260 -190 332 -28 42 6 14 107 -91 63 -66 98 -96 109
-92 11 4 12 8 3 13 -7 4 -10 14 -8 21 7 20 -11 51 -24 43 -6 -4 -8 -3 -5 3 5
9 -209 242 -379 411 -30 31 -64 73 -75 94 -19 37 -267 305 -414 448 -37 36
-100 107 -141 157 -41 51 -101 121 -134 155 l-60 63 7 120 c12 174 8 658 -6
815 -43 481 -220 1337 -355 1720 -94 264 -260 627 -431 940 -97 178 -270 460
-339 554 -63 86 -68 96 -137 310 -78 243 -120 349 -234 596 -42 91 -101 228
-132 305 -62 157 -77 192 -173 390 -63 129 -113 219 -324 584 -68 118 -275
427 -360 536 -104 135 -308 363 -456 510 l-171 170 44 41 c25 22 139 105 253
184 199 138 284 205 384 301 25 24 71 61 102 82 106 70 117 97 19 47 -58 -29
-214 -68 -521 -130 -57 -12 -107 -25 -110 -29 -3 -5 -81 -21 -175 -36 -93 -15
-179 -32 -190 -37 -14 -6 -6 -7 25 -3 60 8 46 -2 -36 -25 -138 -39 -603 -95
-854 -103 -69 -3 -107 -3 -85 0 171 17 647 80 674 89 9 3 4 11 -15 26 -16 12
-49 40 -74 63 -25 24 -61 53 -81 66 -20 13 -64 42 -98 64 -34 22 -114 77 -179
122 -350 244 -438 294 -832 468 -96 42 -238 105 -315 140 -77 35 -214 93 -304
129 l-163 66 -2403 0 -2403 0 -77 -35 c-164 -75 -325 -161 -460 -244 -77 -48
-184 -112 -238 -141 -114 -62 -259 -180 -349 -282 -129 -147 -129 -146 -126
-118 10 94 -36 478 -89 738 l-16 82 -153 0 -153 0 30 -82z m2107 -30 c19 -19
14 -37 -17 -56 l-30 -18 30 -11 c43 -16 36 -41 -17 -64 -44 -18 -48 -19 -65
-3 -11 10 -29 22 -42 29 -13 7 -21 18 -19 29 3 15 -1 17 -20 13 -74 -19 -105
-19 -112 -1 -11 28 15 44 85 55 35 5 91 16 124 23 33 8 62 14 66 15 3 1 10 -4
17 -11z m112 -328 c55 0 90 -16 90 -39 0 -28 -27 -40 -133 -60 -97 -19 -127
-17 -127 5 0 10 -16 14 -61 14 -60 0 -60 0 -57 28 3 26 7 28 103 48 65 14 108
18 123 12 13 -4 41 -8 62 -8z m-702 -656 c28 -19 29 -63 2 -94 -11 -13 -20
-28 -20 -33 0 -18 -32 -47 -52 -47 -12 0 -23 11 -29 28 -5 15 -19 32 -31 37
-61 28 -43 91 32 111 62 16 72 16 98 -2z m-1732 -149 c9 -24 -12 -42 -92 -80
-84 -40 -113 -43 -137 -15 -24 28 -22 37 16 56 87 46 203 67 213 39z m1174
-632 c0 -5 -47 -32 -104 -61 -135 -68 -227 -129 -359 -236 -58 -47 -104 -79
-101 -71 4 8 10 15 16 15 5 0 6 5 3 10 -3 6 -1 10 5 10 6 0 34 24 63 53 64 65
218 173 312 219 141 69 165 78 165 61z m3675 -558 c61 -8 133 -19 160 -24 90
-17 288 -32 412 -32 67 1 260 -6 430 -14 169 -8 319 -15 333 -16 14 0 19 -3
11 -6 -10 -4 -10 -7 -1 -13 20 -12 -190 -22 -311 -14 -63 4 -105 10 -94 14 20
7 -110 21 -169 19 -28 -2 -28 -2 9 -9 76 -14 -67 -11 -275 5 -300 24 -494 51
-543 77 -10 5 -37 13 -60 18 -68 13 -20 11 98 -5z m-5876 -467 c-117 -126
-126 -140 -185 -263 -33 -71 -74 -161 -89 -200 -15 -38 -37 -90 -48 -115 -12
-25 -20 -51 -19 -57 2 -7 -2 -13 -8 -13 -6 0 -9 -4 -5 -9 6 -10 -21 -89 -36
-105 -22 -25 3 81 43 184 25 63 51 133 58 155 7 22 19 49 26 60 7 11 12 34 12
51 -2 58 72 162 217 308 75 75 141 136 146 136 6 0 -45 -60 -112 -132z m872
-205 c17 -45 2 -81 -43 -104 -45 -23 -82 -19 -98 10 -24 45 38 121 98 121 26
0 34 -5 43 -27z m189 -1173 c6 -74 18 -189 26 -255 18 -150 17 -160 -7 -60
-33 140 -49 301 -54 534 l-4 226 14 -155 c7 -85 19 -216 25 -290z m2946 -96
c71 -47 124 -92 122 -103 -1 -3 2 -21 6 -38 8 -33 -8 -63 -32 -63 -9 0 -182
233 -182 245 0 12 22 2 86 -41z m-591 -46 c29 -3 39 -8 70 -35 8 -8 15 -9 17
-2 6 18 85 -59 91 -90 3 -16 36 -73 72 -126 37 -53 63 -100 60 -103 -4 -4 -15
5 -26 20 -47 65 -61 74 -34 24 18 -33 23 -52 16 -59 -6 -6 -44 -13 -86 -16
-88 -8 -79 -14 -152 109 -59 99 -103 200 -102 232 0 22 1 22 9 3 5 -11 9 -14
9 -7 1 7 6 10 11 7 6 -3 10 3 10 14 0 14 -5 19 -15 15 -18 -7 -20 7 -3 24 7 7
14 8 18 3 3 -5 19 -11 35 -13z m-365 -293 c7 -9 19 -14 25 -11 9 3 13 -11 14
-44 0 -34 -4 -50 -14 -54 -8 -3 -12 -11 -9 -19 2 -7 -4 -21 -15 -31 -20 -18
-22 -18 -58 10 -83 63 -111 94 -106 115 6 21 15 21 76 3 9 -3 17 0 17 6 0 8 6
8 21 -1 15 -8 19 -8 15 0 -4 6 -2 11 4 11 7 0 10 7 6 15 -7 20 8 19 24 0z
m6670 -224 c86 -44 126 -81 127 -118 1 -29 -2 -33 -25 -35 -15 -1 -34 -2 -43
-3 -9 0 -23 -6 -30 -12 -8 -6 -31 -14 -51 -18 -45 -8 -108 24 -108 56 0 10 -8
27 -17 37 -38 37 -64 91 -42 85 5 -2 9 4 9 12 0 9 -6 12 -17 8 -11 -5 -14 -3
-8 6 13 22 152 10 205 -18z m2662 -538 c193 -315 295 -510 408 -774 34 -78 74
-167 89 -198 54 -109 160 -387 185 -486 32 -129 61 -308 83 -515 27 -256 25
-825 -5 -1102 -12 -113 -22 -214 -23 -225 -1 -40 -33 74 -84 302 -39 173 -57
279 -65 380 -21 261 -72 618 -120 840 -11 50 -31 155 -46 235 -58 324 -117
611 -149 725 -56 198 -187 522 -248 613 -13 20 -46 105 -72 187 -26 83 -50
157 -53 165 -11 31 13 -3 100 -147z m-12992 -118 c12 -32 -10 -83 -87 -195
-37 -53 -65 -85 -76 -84 -9 1 -15 -3 -14 -8 1 -6 -3 -12 -10 -15 -9 -3 -11 10
-8 46 5 54 79 218 117 259 29 30 66 29 78 -3z m9965 -1 c10 -11 15 -29 13 -52
-4 -46 -44 -75 -128 -91 -55 -11 -64 -11 -81 5 -27 24 -24 56 9 86 35 33 70
51 105 54 15 1 31 5 34 8 11 11 31 6 48 -10z m522 -382 c140 -448 187 -691
163 -848 -8 -59 -16 -84 -26 -84 -8 0 -14 7 -14 15 0 12 -4 13 -25 3 -16 -7
-29 -8 -34 -2 -5 5 -38 83 -74 174 -67 169 -92 266 -121 475 -9 61 -23 146
-31 190 -24 120 -32 183 -26 194 6 9 101 46 126 50 6 0 33 -74 62 -167z m-215
83 c43 -230 55 -347 53 -505 -1 -91 -4 -249 -5 -352 -2 -181 -3 -188 -26 -213
-29 -31 -59 -32 -75 -2 -69 129 -119 693 -85 970 8 70 18 132 21 137 3 5 29 8
58 7 l52 -2 7 -40z m-5708 -957 c145 -141 125 -118 288 -323 78 -99 176 -215
217 -258 41 -42 72 -79 70 -81 -10 -10 -174 -86 -186 -86 -16 0 -107 -45 -145
-71 l-26 -19 -40 102 c-22 57 -72 169 -111 250 -94 198 -186 419 -206 498 -9
36 -22 83 -29 105 -32 97 -30 102 15 44 23 -30 92 -102 153 -161z m5765 -478
c23 0 58 -211 71 -430 6 -91 12 -176 15 -190 12 -69 15 -353 5 -575 -11 -263
-18 -345 -30 -345 -4 0 -21 26 -38 58 -88 165 -152 497 -152 792 0 222 23 560
46 674 5 25 9 27 36 22 17 -3 38 -6 47 -6z m-4329 -178 c86 -48 371 -141 539
-177 41 -9 130 -42 205 -76 176 -82 261 -118 324 -138 l53 -17 -114 -32 c-63
-18 -128 -32 -146 -32 -30 0 -207 61 -381 132 -87 35 -371 181 -480 246 -74
45 -160 110 -160 123 0 3 15 11 33 16 23 7 38 7 52 -2 11 -7 45 -26 75 -43z
m-4419 -441 c75 -239 223 -575 369 -836 45 -82 84 -153 86 -156 2 -3 -3 -6
-10 -6 -8 0 -12 6 -9 13 6 16 -14 28 -22 14 -9 -15 23 -50 40 -44 7 3 19 -4
25 -16 10 -18 10 -21 -2 -15 -7 5 -1 -5 14 -21 16 -17 44 -57 64 -89 l35 -60
-23 -15 c-65 -42 -224 -213 -282 -304 l-19 -29 -14 28 c-87 165 -243 632 -323
965 -27 113 -30 140 -21 166 13 37 14 47 2 40 -31 -20 -28 405 5 584 6 34 8
32 31 -45 13 -44 37 -122 54 -174z m7196 150 c2 -26 -51 -43 -222 -71 -71 -12
-157 -28 -190 -36 -87 -20 -623 -19 -760 1 -113 17 -207 36 -201 42 2 2 75 -3
162 -12 185 -17 550 -20 609 -3 22 6 81 14 130 18 50 4 101 11 115 15 24 8
310 62 340 64 9 1 16 -8 17 -18z m-6415 -1645 c76 -109 281 -356 482 -581
l124 -140 -37 -7 c-45 -8 -149 -50 -207 -84 -23 -13 -44 -21 -47 -18 -3 3 -47
-35 -98 -85 l-92 -89 -47 39 c-144 121 -360 422 -491 682 l-40 78 87 95 c78
84 143 142 239 210 22 16 34 19 43 11 7 -5 45 -55 84 -111z m698 -438 c70 -58
173 -134 260 -192 l55 -36 -82 0 -81 0 -117 123 c-64 67 -132 145 -151 174
-19 29 -39 55 -44 58 -6 3 -10 11 -10 16 0 6 24 -12 53 -39 28 -27 81 -74 117
-104z m-1169 10 c40 -62 105 -149 144 -193 39 -44 90 -105 114 -135 69 -87
101 -121 109 -116 4 2 50 -38 102 -91 52 -53 126 -116 163 -140 59 -39 188
-104 251 -127 18 -6 16 -11 -20 -49 l-39 -42 42 39 c30 28 47 37 60 31 16 -6
16 -8 -7 -23 -14 -10 -34 -26 -45 -37 -17 -17 -33 -20 -90 -18 l-70 1 28 -24
c28 -24 28 -25 10 -48 -10 -13 -37 -48 -61 -78 -23 -31 -51 -72 -60 -92 l-18
-37 -51 58 c-74 85 -229 302 -300 418 -147 242 -206 361 -303 608 -54 136 -61
162 -51 183 6 13 12 24 15 24 2 0 37 -51 77 -112z m7975 -180 c-3 -13 -8 -57
-11 -98 -3 -41 -10 -97 -15 -125 -5 -27 -17 -93 -25 -145 -44 -261 -132 -604
-202 -790 -56 -149 -179 -397 -191 -386 -3 3 0 11 6 18 10 13 62 141 106 263
14 39 37 102 51 140 15 39 33 93 40 120 8 28 28 100 45 160 50 174 160 681
160 737 0 10 5 18 11 18 6 0 10 15 9 33 -3 55 0 77 10 77 6 0 8 -10 6 -22z
m-8211 -100 c68 -120 136 -222 197 -295 49 -59 178 -212 246 -293 59 -70 295
-307 344 -346 l37 -29 -34 -120 c-34 -118 -43 -185 -26 -185 4 0 11 25 15 56
7 63 36 152 64 195 l19 30 51 -46 c50 -45 59 -65 46 -99 -9 -23 -26 -20 -19 4
3 11 4 20 1 20 -2 0 -10 -17 -16 -37 -7 -21 -23 -55 -36 -75 -13 -21 -24 -44
-24 -51 0 -8 -9 -26 -21 -41 -11 -14 -17 -26 -12 -26 4 0 -10 -16 -32 -35 -38
-33 -38 -35 -10 -23 17 7 45 20 63 30 19 10 30 13 26 7 -8 -14 -85 -49 -121
-55 -14 -3 -35 -10 -45 -15 -55 -30 -319 126 -423 249 -16 20 -69 81 -116 137
-131 153 -152 188 -177 296 -12 52 -38 164 -58 249 -32 135 -37 179 -44 340
-7 178 -7 187 14 222 11 21 24 38 27 38 3 0 32 -46 64 -102z m1079 -699 c30
-14 43 -25 39 -35 -3 -8 0 -14 6 -14 13 0 15 -79 2 -99 -13 -20 -24 4 -17 35
7 28 -1 64 -14 64 -4 0 -8 -10 -8 -22 0 -35 -22 -150 -32 -167 -7 -11 -9 -1
-10 34 l0 49 -32 -62 c-17 -35 -40 -68 -51 -73 -13 -7 -17 -8 -13 -1 3 6 -2
13 -13 17 -10 3 -26 14 -36 25 -18 20 -18 22 3 59 12 21 22 50 22 64 0 13 10
37 22 53 23 32 80 94 85 94 2 0 23 -9 47 -21z m783 -198 c27 -25 57 -116 45
-138 -15 -27 -66 -26 -91 1 -50 53 -56 138 -12 149 30 8 37 7 58 -12z m-3267
-986 c116 -139 275 -298 387 -387 85 -68 106 -90 124 -132 33 -76 50 -208 47
-360 l-3 -134 -66 76 c-65 76 -156 195 -216 283 -50 72 -225 419 -302 598 -39
89 -71 165 -71 168 0 7 17 -12 100 -112z m-41 -254 c30 -47 64 -104 76 -126
118 -212 214 -359 232 -353 11 4 49 -35 184 -188 l106 -120 12 -179 c7 -99 17
-211 21 -250 15 -114 15 -114 -26 -74 -37 35 -186 240 -268 367 -84 132 -155
260 -192 349 -154 371 -215 535 -245 658 -26 109 -24 119 14 56 18 -29 56 -92
86 -140z m28 -430 c7 -1 34 -43 60 -93 99 -188 239 -436 304 -538 37 -58 65
-107 63 -109 -8 -9 -137 85 -181 133 -150 164 -223 267 -300 426 -85 177 -85
176 -63 176 10 0 16 -4 14 -8 -3 -4 7 -1 20 6 14 7 36 12 48 10 13 -1 28 -3
35 -3z m11323 -1 c0 -31 166 -274 288 -420 29 -36 59 -72 65 -80 7 -9 19 -24
27 -35 14 -17 13 -18 -1 -9 -57 32 -181 175 -261 299 -71 110 -144 255 -128
255 6 0 10 -5 10 -10z m-756 -467 c8 -94 79 -436 114 -559 48 -165 146 -365
244 -499 65 -89 66 -90 17 -64 -71 39 -180 150 -231 235 -110 184 -168 466
-168 827 0 144 12 176 24 60z m-9918 -75 c52 -276 100 -471 145 -580 29 -73
99 -181 160 -249 35 -38 52 -89 31 -89 -4 0 -32 25 -62 56 -30 31 -69 62 -86
70 -25 10 -40 31 -72 96 -68 136 -119 373 -142 651 -18 223 -10 236 26 45z
m11114 -1802 c15 -121 36 -213 66 -288 13 -34 24 -63 24 -64 0 -8 -92 -54 -99
-49 -17 10 -41 101 -52 191 -10 89 -7 161 13 309 l11 79 13 -43 c7 -24 18 -85
24 -135z m140 -453 c18 -32 53 -82 78 -112 40 -47 43 -53 21 -47 -92 27 -219
119 -219 159 0 12 64 56 82 57 3 0 21 -26 38 -57z m-7380 -18 c0 -10 -171 -58
-255 -71 -127 -20 -375 -31 -375 -16 0 8 33 12 108 12 109 0 202 14 327 49 90
25 195 39 195 26z m-1072 -69 c60 -24 123 -47 140 -51 43 -9 46 -18 20 -60
-19 -29 -27 -34 -48 -29 -28 6 -182 93 -220 124 -25 20 -25 20 -5 36 16 14 17
16 3 11 -10 -4 -18 -2 -18 3 0 16 14 12 128 -34z m1241 17 c-8 -10 -17 -20
-20 -23 -3 -3 -20 -26 -37 -52 -49 -71 -101 -110 -208 -152 -118 -46 -216 -60
-364 -51 -103 6 -248 30 -262 43 -4 4 5 31 20 60 l26 53 70 -8 c96 -11 263 -8
367 6 97 13 254 63 344 109 69 36 83 39 64 15z m-1406 -177 c30 -19 93 -54
140 -77 48 -24 87 -46 87 -49 0 -4 -32 -62 -71 -130 -39 -68 -89 -160 -111
-204 -22 -45 -59 -110 -82 -146 -23 -36 -57 -91 -75 -123 l-33 -58 -69 183
c-104 275 -102 238 -23 376 76 132 162 262 175 262 5 0 33 -15 62 -34z m-1492
-296 c11 -116 37 -314 75 -582 27 -194 32 -260 20 -298 -5 -18 -5 -21 3 -10 9
12 11 12 17 -3 3 -9 4 -27 1 -38 -3 -12 -2 -32 3 -45 17 -44 50 -223 44 -239
-4 -8 -1 -15 4 -15 6 0 10 -13 10 -29 -1 -15 3 -34 7 -41 6 -9 4 -11 -5 -5
-10 6 -12 3 -8 -13 4 -12 2 -22 -3 -22 -5 0 -9 20 -9 44 0 25 -4 47 -9 50 -11
7 -24 74 -26 126 0 19 -4 41 -8 47 -4 7 -9 32 -10 55 -2 24 -6 49 -11 56 -4 6
-10 45 -13 84 -3 40 -10 78 -14 84 -5 6 -6 32 -3 57 4 29 2 52 -5 60 -6 8 -8
16 -5 19 2 3 0 34 -6 69 -6 35 -13 79 -15 97 -2 18 -6 50 -10 70 -15 88 -52
534 -46 559 l6 28 2 -30 c2 -16 8 -77 14 -135z m13253 -252 c-4 -6 -3 -8 3 -5
7 4 13 -7 16 -26 15 -89 27 -138 36 -155 12 -22 7 -175 -7 -213 l-9 -24 -7 23
c-4 12 -11 22 -16 22 -18 0 -31 174 -15 215 4 13 4 16 -2 7 -6 -7 -8 12 -7 53
1 36 -1 63 -5 61 -3 -2 -7 21 -8 52 -2 56 -1 56 13 29 8 -15 12 -33 8 -39z
m-12110 -37 c9 -27 43 -114 76 -194 l61 -145 -171 -344 c-94 -188 -175 -347
-180 -352 -6 -6 -11 -4 -14 5 -10 27 -46 389 -53 523 -5 122 -4 137 14 173 82
156 179 333 195 356 30 42 53 35 72 -22z m3709 32 c40 -45 29 -112 -24 -133
-27 -12 -36 -11 -58 1 -23 13 -26 22 -27 67 -1 34 4 58 13 67 20 21 76 19 96
-2z m6903 -849 l34 -26 -33 -58 c-19 -34 -53 -74 -82 -97 -155 -122 -225 -251
-225 -411 0 -91 18 -165 61 -248 35 -70 34 -76 -25 -134 -20 -19 -45 -54 -57
-78 l-21 -42 -66 61 c-95 87 -156 132 -242 177 -70 36 -174 65 -228 63 -21 -1
-22 1 -9 20 26 36 199 222 251 269 28 25 109 100 180 168 71 68 182 168 248
223 65 55 127 108 138 119 26 26 35 25 76 -6z m-12050 -1216 c26 -108 45 -201
40 -205 -4 -4 -77 -10 -162 -11 -177 -4 -174 -6 -126 85 101 192 187 342 193
336 3 -5 28 -97 55 -205z m10487 -120 c-2 -18 -4 -41 -5 -50 -2 -15 -4 -15
-18 -3 -14 13 -15 10 -13 -25 1 -30 -4 -44 -22 -62 -14 -13 -25 -29 -25 -36 0
-8 -5 -10 -12 -6 -10 6 -10 4 0 -7 13 -14 16 -30 5 -28 -5 1 -17 0 -28 -1 -16
-1 -14 -4 9 -12 31 -11 50 3 43 32 -5 21 64 21 71 1 3 -10 0 -12 -12 -8 -9 4
-15 2 -13 -5 1 -7 -7 -13 -18 -15 -15 -3 -17 -2 -6 5 9 7 10 12 2 16 -10 7
-16 -7 -12 -28 1 -5 -4 -13 -11 -17 -8 -5 -9 -9 -2 -9 6 0 23 9 38 21 14 11
26 17 26 13 0 -8 29 31 46 60 5 11 18 20 28 22 16 2 17 1 2 -14 -39 -41 -65
-80 -58 -87 4 -5 -1 -5 -10 -2 -12 4 -15 2 -11 -10 5 -12 1 -14 -14 -9 -13 4
-25 0 -34 -11 -13 -16 -12 -17 4 -4 9 8 20 11 23 8 6 -6 -91 -131 -155 -200
-21 -23 -60 -68 -86 -100 -26 -32 -51 -54 -57 -51 -7 4 -8 2 -4 -5 6 -10 -54
-91 -112 -151 -13 -13 -14 -13 -9 3 4 11 3 16 -4 12 -6 -4 -8 -14 -5 -22 8
-19 -56 -96 -66 -80 -5 7 -7 2 -6 -12 2 -13 -3 -26 -11 -29 -9 -3 -11 0 -6 8
5 9 4 11 -4 6 -6 -4 -9 -11 -6 -16 3 -5 -2 -22 -12 -37 -22 -34 -176 -251
-198 -278 -9 -11 -28 -39 -44 -63 -22 -33 -30 -40 -35 -27 -3 9 -2 13 4 10 6
-3 14 4 19 17 5 13 20 36 35 51 14 15 25 31 23 35 -1 4 15 27 35 52 43 53 100
158 92 171 -6 10 9 41 19 40 22 -3 37 0 37 7 0 4 -12 7 -27 6 -16 -1 -28 -2
-28 -3 0 -2 -11 -4 -24 -7 -23 -4 -24 -3 -8 14 24 27 21 38 -5 16 -22 -19 -20
-13 11 35 14 22 15 22 22 5 5 -13 8 -14 8 -4 0 19 -17 59 -18 42 -1 -7 -12
-28 -26 -46 -14 -19 -23 -40 -20 -48 4 -9 0 -22 -8 -30 -8 -7 -21 -27 -30 -43
-9 -17 -16 -24 -17 -17 0 6 -8 12 -17 12 -15 0 -16 -2 -3 -10 8 -5 10 -10 4
-10 -6 0 -17 -11 -24 -25 -7 -14 -18 -25 -23 -25 -5 0 -16 -8 -23 -17 -13 -17
-13 -17 -14 0 0 9 4 17 8 17 5 0 14 10 21 23 6 12 9 14 6 4 -3 -10 -1 -15 5
-12 6 3 10 13 10 21 0 8 6 14 13 15 8 0 8 2 -2 6 -7 3 -9 8 -4 12 6 3 37 44
71 91 34 47 74 101 89 122 15 20 51 68 78 107 28 38 55 68 62 66 7 -2 10 2 7
9 -5 12 13 37 135 191 64 81 91 112 144 169 22 23 53 61 69 85 17 24 39 52 50
63 10 10 18 23 18 28 0 6 5 10 11 10 6 0 9 -6 6 -12 -2 -7 -7 -24 -11 -38 -6
-24 -6 -24 9 3 9 15 13 36 10 46 -3 11 1 25 8 33 8 7 19 23 26 36 16 30 18 28
14 -10z m1417 -363 c22 -14 44 -25 50 -25 6 0 35 -14 65 -31 70 -39 72 -66 9
-142 -20 -24 -45 -22 -29 3 3 6 -1 10 -10 10 -9 0 -14 4 -11 8 3 5 -13 19 -34
31 -22 12 -40 29 -40 36 0 8 -20 39 -45 69 -42 52 -43 63 -7 65 7 1 30 -10 52
-24z m332 -89 c-2 -11 4 -16 18 -16 12 0 31 -5 42 -11 17 -9 24 -8 34 5 7 10
15 13 18 8 3 -6 -1 -12 -9 -16 -8 -3 -15 -10 -15 -16 0 -12 40 6 51 23 4 5 9
5 13 -2 4 -6 2 -11 -4 -11 -6 0 -8 -5 -4 -12 4 -6 3 -8 -3 -5 -6 4 -19 0 -29
-9 -18 -14 -18 -15 6 -10 14 3 19 3 12 0 -6 -3 -10 -10 -6 -15 11 -19 -16 -8
-29 12 -13 18 -18 19 -37 9 -18 -10 -20 -14 -9 -21 11 -7 10 -9 -3 -9 -19 0
-39 -18 -77 -68 -13 -18 -30 -32 -37 -32 -7 0 -14 -6 -17 -12 -7 -22 -34 9
-41 47 -4 19 -16 44 -28 54 -19 18 -19 19 -2 15 14 -4 28 7 52 41 18 25 36 44
41 41 4 -3 16 3 26 14 21 23 41 21 37 -4z m978 -278 c0 -10 -7 -16 -17 -16
-10 1 -35 -2 -55 -6 -20 -4 -67 -2 -103 5 -56 10 -69 9 -90 -5 -14 -10 -57
-19 -98 -23 -65 -5 -71 -4 -58 11 7 9 19 16 25 16 6 0 19 8 28 19 14 17 31 18
192 17 158 -1 176 -3 176 -18z"/>
<path d="M13862 13285 c-31 -15 -81 -52 -118 -89 -55 -55 -74 -85 -128 -198
-87 -182 -131 -329 -124 -416 2 -29 4 -30 75 -42 41 -7 76 -11 78 -8 3 3 -22
12 -55 21 -65 18 -73 32 -50 91 8 21 16 26 43 26 19 0 48 -7 65 -16 18 -8 42
-14 54 -11 20 3 16 7 -22 24 -25 12 -62 25 -82 28 -33 6 -38 11 -38 34 0 15 7
48 16 74 17 51 35 58 91 36 40 -16 228 -12 261 5 32 16 68 54 59 62 -6 6 -56
-24 -72 -43 -16 -20 -76 -22 -146 -3 -102 26 -104 27 -88 47 9 10 14 42 15 82
1 74 17 117 67 173 17 21 42 50 53 65 12 16 42 39 68 51 43 22 56 32 39 32 -5
0 -32 -11 -61 -25z"/>
<path d="M14455 12212 c1 -21 12 -66 24 -100 11 -34 21 -70 21 -80 0 -14 2
-15 10 -2 7 11 9 8 8 -15 0 -16 2 -66 7 -110 5 -56 3 -113 -8 -190 -22 -151
-30 -231 -24 -225 10 10 57 216 72 315 16 105 20 259 7 238 -18 -28 -101 118
-102 179 0 9 -4 19 -9 22 -4 3 -7 -12 -6 -32z"/>
<path d="M10305 12155 c-66 -7 -154 -22 -195 -34 -41 -11 -117 -32 -169 -47
-52 -14 -119 -39 -150 -55 -31 -17 -47 -27 -36 -23 11 3 51 17 90 31 90 31
285 80 355 89 30 4 60 10 66 15 16 13 439 13 519 0 90 -14 163 -22 150 -17 -5
3 -64 14 -130 26 -152 27 -345 33 -500 15z"/>
<path d="M11178 12118 c-47 -40 -48 -40 -92 -29 -25 6 -55 11 -68 10 -13 0 -1
-6 27 -12 27 -7 49 -16 48 -22 0 -5 -30 -21 -64 -33 -67 -25 -78 -25 -229 -3
-36 5 -101 11 -145 14 -72 5 -76 4 -43 -6 20 -7 43 -18 50 -25 24 -24 -72 -13
-166 20 -78 27 -105 32 -191 32 -97 1 -215 -17 -215 -33 0 -4 34 -18 74 -30
41 -11 78 -26 81 -31 11 -17 -97 -11 -178 10 l-76 20 -53 -24 c-29 -12 -80
-39 -113 -59 l-60 -37 33 -12 c17 -7 32 -16 32 -20 0 -7 -46 -2 -78 8 -18 5
-117 -63 -191 -132 -60 -55 -161 -193 -161 -219 0 -14 -32 -28 -100 -45 -25
-6 -52 -13 -61 -16 -15 -4 -15 1 1 60 10 35 23 74 30 86 6 12 9 24 6 27 -6 6
-61 -103 -70 -140 -10 -41 -55 -63 -144 -72 -83 -7 -139 -23 -92 -25 74 -3
155 -10 172 -16 28 -9 19 -47 -31 -122 -50 -75 -67 -110 -57 -120 5 -4 25 12
46 35 l37 42 -8 -42 c-4 -23 -8 -49 -8 -57 1 -27 46 113 58 182 l13 66 54 4
c62 4 72 -7 49 -52 -16 -31 -20 -86 -7 -92 5 -1 5 -28 2 -58 l-7 -55 -2 50 -3
50 -27 -80 c-26 -74 -60 -145 -155 -330 -20 -38 -36 -74 -36 -79 0 -17 61 48
103 109 l42 60 5 -35 c3 -19 2 -55 -2 -80 -4 -25 -7 -61 -6 -80 l0 -35 11 42
c7 23 15 45 20 49 4 4 7 16 7 28 0 35 19 3 29 -49 6 -28 16 -68 24 -90 l14
-40 8 52 c4 29 11 55 16 59 5 3 9 0 9 -7 0 -10 3 -10 12 -1 7 7 13 46 14 94 3
144 22 214 116 436 17 39 34 72 37 72 4 0 13 -33 19 -72 11 -66 60 -233 113
-390 23 -70 77 -185 89 -193 5 -3 34 -38 64 -78 30 -40 67 -84 81 -99 l26 -28
40 20 c48 25 74 19 88 -21 9 -26 7 -33 -20 -64 -17 -19 -38 -35 -48 -36 -9 0
-11 -3 -5 -5 6 -3 23 2 37 9 25 13 29 12 74 -31 64 -60 157 -129 215 -158 64
-33 166 -47 343 -47 127 0 158 3 201 20 60 24 167 100 159 114 -4 5 -1 9 5 9
6 0 9 4 6 9 -3 5 31 41 75 81 90 81 164 173 154 190 -9 14 23 63 35 55 6 -4
10 2 10 11 0 29 32 134 39 129 9 -5 22 5 41 29 14 18 14 19 -5 12 -52 -21 -89
-24 -117 -10 -38 20 -44 53 -19 103 19 35 26 41 54 41 18 0 50 -9 72 -20 50
-25 53 -25 48 3 -3 13 3 60 11 106 31 164 31 298 0 574 -2 20 -2 37 1 37 3 0
29 -17 57 -37 50 -36 52 -37 35 -10 -25 39 -9 33 49 -21 60 -55 74 -91 74
-202 0 -81 -32 -324 -56 -420 -11 -41 14 -10 36 46 10 27 19 41 20 32 0 -35
19 -17 36 34 9 28 28 62 43 74 14 13 23 24 19 24 -4 0 -14 -7 -22 -16 -15 -14
-16 -14 -16 3 0 47 25 179 37 191 7 7 13 19 13 25 0 7 4 6 10 -3 7 -12 10 -12
10 -1 0 7 6 11 14 8 11 -4 19 9 30 48 9 29 16 58 16 63 0 6 12 25 27 42 22 26
24 35 15 49 -7 9 -21 29 -31 44 -21 32 -69 70 -125 99 l-38 20 16 -23 c30 -43
16 -42 -37 4 -29 25 -70 52 -90 60 -20 9 -37 20 -37 24 0 4 66 43 146 87 80
43 143 81 140 83 -3 3 -12 1 -19 -5 -8 -7 -34 -19 -58 -27 l-44 -15 25 20 c20
17 14 15 -34 -6 -52 -24 -75 -27 -197 -32 l-139 -5 -60 32 c-33 18 -65 29 -70
26 -6 -3 -41 9 -78 28 l-68 34 78 67 c43 37 78 72 78 77 0 6 4 8 8 5 4 -2 9 6
10 20 1 13 1 24 -1 23 -1 0 -23 -18 -49 -41z m-923 -468 c30 -33 35 -94 13
-140 -36 -73 -91 -40 -103 60 -6 51 -4 64 11 81 22 25 56 24 79 -1z m788 -972
c4 -12 1 -28 -5 -35 -6 -8 -8 -16 -4 -20 3 -3 6 -1 6 6 0 24 52 -23 67 -61 8
-21 19 -36 23 -33 11 7 22 -43 14 -67 -5 -17 -3 -20 10 -15 28 11 -43 -70
-123 -139 -112 -97 -227 -150 -377 -174 -53 -9 -73 -6 -159 16 -54 14 -113 32
-129 41 -57 29 -116 76 -116 93 0 21 19 40 41 40 10 0 21 13 28 30 9 27 8 30
-10 30 -11 0 -22 7 -25 15 -8 20 64 100 91 101 11 1 36 7 55 13 19 6 72 14
118 18 45 3 85 10 88 15 3 4 17 8 32 8 20 0 23 3 13 9 -10 6 0 8 29 4 31 -4
41 -3 36 5 -5 8 4 13 26 14 18 1 42 2 53 3 11 1 26 4 33 9 6 4 17 4 22 1 6 -3
10 1 10 10 0 9 4 14 9 10 5 -3 12 -1 16 5 3 5 15 10 26 10 12 0 19 7 19 20 0
11 7 20 15 20 8 0 15 5 15 10 0 6 11 10 24 10 16 0 26 -7 29 -22z"/>
<path d="M1186 11388 c-3 -35 -9 -153 -12 -263 -9 -291 21 -625 83 -915 43
-202 68 -284 142 -459 60 -142 94 -205 103 -195 4 3 20 -15 37 -40 43 -63 55
-66 32 -9 -126 315 -148 379 -195 583 -43 186 -66 341 -101 700 -2 25 -7 65
-11 90 -3 25 -8 74 -9 110 -2 36 -5 72 -7 80 -29 99 -36 151 -43 294 -2 43 -6
80 -8 82 -2 3 -7 -24 -11 -58z"/>
<path d="M13790 11374 c-7 -25 -24 -62 -38 -82 -63 -92 -127 -291 -115 -355
10 -52 189 -113 305 -104 61 5 178 50 165 63 -3 3 -22 -4 -43 -15 -43 -23
-138 -45 -160 -37 -11 4 -9 12 11 41 27 41 65 137 64 163 0 9 -18 -19 -39 -63
-22 -44 -48 -90 -58 -103 l-18 -23 -67 32 c-89 41 -102 61 -94 147 9 95 30
169 77 267 40 84 48 115 31 115 -4 0 -14 -21 -21 -46z"/>
<path d="M9378 6074 c-98 -50 -254 -177 -330 -268 -23 -28 -48 -59 -57 -69
-14 -16 -13 -17 5 -11 30 11 85 62 71 67 -7 2 3 11 21 21 17 9 32 22 32 28 0
13 88 98 102 98 5 0 6 -5 2 -12 -4 -7 -3 -8 5 -4 6 4 9 12 5 17 -3 6 3 13 15
16 11 3 19 9 16 13 -8 12 94 60 112 53 12 -5 15 -2 11 8 -5 12 2 14 28 11 24
-3 34 0 34 10 0 11 14 13 65 10 40 -3 65 0 65 6 0 9 -26 15 -125 26 -18 2 -49
-6 -77 -20z"/>
<path d="M2674 5453 c-78 -47 -80 -49 -141 -158 -34 -60 -76 -135 -93 -166
-26 -46 -42 -62 -86 -84 -65 -33 -165 -108 -216 -161 -20 -22 -65 -82 -100
-134 -35 -52 -91 -133 -123 -180 -32 -47 -80 -130 -106 -185 -86 -179 -180
-388 -215 -478 -36 -91 -65 -152 -156 -327 -30 -58 -67 -142 -83 -185 -57
-162 -124 -301 -158 -326 -18 -13 -36 -27 -42 -31 -74 -60 -139 -108 -144
-108 -4 0 -21 -13 -37 -29 -102 -100 -200 -181 -219 -181 -12 0 -55 11 -95 25
-88 30 -148 32 -198 6 -42 -22 -112 -91 -116 -113 -1 -8 -18 -46 -38 -84 -20
-38 -48 -98 -62 -133 -23 -56 -23 -62 -7 -47 18 16 95 144 135 223 23 46 74
101 109 119 67 35 257 3 257 -44 0 -8 -6 -52 -14 -96 -27 -153 -41 -427 -41
-776 1 -313 3 -356 23 -460 44 -233 64 -257 32 -38 -52 351 -54 808 -5 1186 8
62 19 121 24 130 4 9 6 22 4 28 -7 20 219 219 344 302 66 45 123 87 125 94 3
7 8 -30 12 -82 12 -165 36 -309 86 -515 51 -207 102 -374 140 -460 23 -53 124
-350 184 -545 31 -100 95 -365 126 -515 6 -27 17 -84 26 -125 8 -41 22 -109
30 -150 31 -161 46 -229 74 -325 16 -55 34 -140 40 -190 15 -123 18 -135 36
-135 12 0 14 7 10 28 -3 15 -8 50 -12 77 -8 62 -37 202 -104 495 -28 124 -66
293 -85 375 -18 83 -49 209 -68 280 -19 72 -53 200 -75 285 -42 157 -87 291
-121 358 -63 125 -143 427 -216 808 -20 109 -20 117 15 191 17 36 34 78 37 94
5 26 3 29 -17 26 -13 -2 -31 -13 -40 -25 -10 -12 -20 -18 -24 -15 -15 15 -5
124 18 189 34 98 154 381 243 569 41 88 96 214 123 280 74 188 225 486 310
614 89 135 176 241 196 241 8 0 14 4 14 8 0 5 53 43 118 86 65 43 124 87 131
99 7 11 38 74 67 140 66 145 98 187 186 244 59 38 77 53 65 53 -2 0 -39 -21
-83 -47z"/>
</g>
</svg>
