<svg width="148" height="168" viewBox="0 0 148 168" fill="none" xmlns="http://www.w3.org/2000/svg">
<path d="M145.002 39.924L76.6733 0.678304C75.0195 -0.226101 72.9799 -0.226101 71.3261 0.678304L2.9976 39.924C1.34383 40.8833 0.351562 42.6372 0.351562 44.5009V122.992C0.351562 124.856 1.34383 126.61 2.9976 127.569L71.3261 166.787C72.9799 167.747 75.0195 167.747 76.6733 166.787L145.002 127.597C146.656 126.637 147.648 124.883 147.648 123.02V44.5009C147.648 42.6372 146.656 40.8833 145.002 39.924Z" fill="#FBDCE0"/>
<mask id="mask0_4293_409162" style="mask-type:alpha" maskUnits="userSpaceOnUse" x="0" y="0" width="148" height="168">
<path d="M145.002 39.924L76.6733 0.678304C75.0195 -0.226101 72.9799 -0.226101 71.3261 0.678304L2.9976 39.924C1.34383 40.8833 0.351562 42.6372 0.351562 44.5009V122.992C0.351562 124.856 1.34383 126.61 2.9976 127.569L71.3261 166.787C72.9799 167.747 75.0195 167.747 76.6733 166.787L145.002 127.597C146.656 126.637 147.648 124.883 147.648 123.02V44.5009C147.648 42.6372 146.656 40.8833 145.002 39.924Z" fill="#FBDCE0"/>
</mask>
<g mask="url(#mask0_4293_409162)">
<path d="M23.8047 86.3092L27.7444 181.847C28.3354 184.408 33.26 186.378 42.1244 187.954C50.9887 189.53 62.8079 190.318 75.415 190.318C88.0221 190.318 99.8412 189.53 108.706 187.954C118.358 186.181 123.086 184.014 123.086 181.256L127.025 86.1122H23.8047V86.3092Z" fill="#F7B8BF"/>
<path d="M128.202 87.0969V79.0205L22.6172 79.8085V87.4909C22.6172 90.4457 27.9358 93.0065 38.573 94.7794C48.4223 96.5522 61.4234 97.5372 75.4094 97.5372C89.3954 97.5372 102.396 96.5522 112.246 94.7794C122.883 93.0065 128.202 90.4457 128.202 87.4909C128.202 87.2939 128.202 87.2939 128.202 87.0969Z" fill="#979797"/>
<path d="M75.413 97.7343C61.427 97.7343 48.426 96.7494 38.5767 94.9765C27.5455 93.0066 22.4238 90.4458 22.4238 87.294V79.6116C22.4238 79.4146 22.6208 79.2176 22.8178 79.2176L128.402 78.4297C128.402 78.4297 128.599 78.4297 128.599 78.6267L128.796 78.8237V86.9001V87.0971C128.796 90.4458 123.478 92.8096 112.643 94.7795C102.4 96.7494 89.399 97.7343 75.413 97.7343Z" fill="#F2939E"/>
<path d="M75.4172 89.0669C61.4312 89.0669 48.4301 88.082 38.5808 86.3091C27.9436 84.5362 22.625 81.9754 22.625 79.0206C22.625 76.0659 27.9436 73.505 38.5808 71.7322C48.4301 69.9593 61.4312 68.9744 75.4172 68.9744C89.4032 68.9744 102.404 69.9593 112.254 71.7322C122.891 73.505 128.209 76.0659 128.209 79.0206C128.209 81.9754 122.891 84.5362 112.254 86.3091C102.404 88.082 89.4032 89.0669 75.4172 89.0669Z" fill="#F7B8BF"/>
<path d="M75.4155 86.3092C62.6115 86.3092 50.5953 85.5212 41.534 84.3393C31.8817 82.9604 26.957 81.1875 26.957 78.8237C26.957 76.6569 31.8817 74.687 41.534 73.3081C50.5953 72.1262 62.6115 71.3383 75.4155 71.3383C88.2196 71.3383 100.236 72.1262 109.297 73.3081C118.949 74.687 123.874 76.4599 123.874 78.8237C123.874 80.9906 118.949 82.9604 109.297 84.3393C100.236 85.7182 88.2196 86.3092 75.4155 86.3092Z" fill="#EE6F7E"/>
<g opacity="0.5">
<path d="M75.4222 86.3091C88.2263 86.3091 100.242 85.5212 109.304 84.3393C114.425 83.5513 118.168 82.7634 120.532 81.7785C118.168 80.7935 114.425 80.0056 109.304 79.2177C100.242 78.0357 88.2263 77.2478 75.4222 77.2478C62.6182 77.2478 50.602 78.0357 41.5407 79.2177C36.4191 80.0056 32.6763 80.7935 30.3125 81.7785C32.6763 82.7634 36.4191 83.5513 41.5407 84.3393C50.602 85.7182 62.6182 86.3091 75.4222 86.3091Z" fill="#F32940"/>
</g>
<path d="M37.803 180.074C37.803 181.65 36.6211 183.226 34.8482 183.226C33.2723 183.226 31.6964 182.044 31.6964 180.271L28.3477 99.7041C28.3477 98.1283 29.5296 96.5524 31.3024 96.5524C32.8783 96.5524 34.4542 97.7343 34.4542 99.5072L37.803 180.074Z" fill="#F2939E"/>
<path d="M47.8471 181.453C47.8471 183.029 46.6651 184.408 44.8923 184.605C43.3164 184.605 41.9375 183.423 41.7405 181.65L39.1797 101.083C39.1797 99.507 40.3616 98.1281 42.1345 97.9312C43.7104 97.9312 45.0893 99.1131 45.2862 100.886L47.8471 181.453Z" fill="#F2939E"/>
<path d="M58.0867 183.029C58.0867 184.605 56.7078 185.984 55.132 186.181C53.5561 186.181 52.1772 184.802 51.9802 183.226L50.4043 102.659C50.4043 101.083 51.7832 99.7039 53.3591 99.507C54.935 99.507 56.3139 100.886 56.5109 102.462L58.0867 183.029Z" fill="#F2939E"/>
<path d="M68.3362 184.605C68.3362 186.181 66.9573 187.56 65.3814 187.56C63.8055 187.56 62.4266 186.181 62.4266 184.605L61.6387 104.038C61.6387 102.462 63.0176 101.083 64.5935 101.083C66.1693 101.083 67.5482 102.462 67.5482 104.038L68.3362 184.605Z" fill="#F2939E"/>
<path d="M78.3783 185.984C78.3783 187.56 76.9994 188.938 75.4235 188.938C73.8477 188.938 72.4688 187.56 72.4688 185.984V105.416C72.4688 103.841 73.8477 102.462 75.4235 102.462C76.9994 102.462 78.3783 103.841 78.3783 105.416V185.984Z" fill="#F2939E"/>
<path d="M82.9133 184.605L83.7012 104.038C83.7012 102.462 85.0801 101.083 86.656 101.083C88.2319 101.083 89.6108 102.462 89.6108 104.038L88.8229 184.605C88.8229 186.181 87.444 187.56 85.8681 187.56C84.0952 187.56 82.7163 186.181 82.9133 184.605Z" fill="#F2939E"/>
<path d="M93.3528 183.029L94.9286 102.462C94.9286 100.886 96.3075 99.507 98.0804 99.507C99.6563 99.507 101.035 100.886 101.035 102.659L99.4593 183.226C99.4593 184.802 98.0804 186.181 96.3075 186.181C94.5347 185.984 93.1558 184.605 93.3528 183.029Z" fill="#F2939E"/>
<path d="M103.594 181.453L106.155 100.886C106.155 99.3101 107.533 97.9312 109.306 97.9312C110.882 97.9312 112.261 99.3101 112.261 101.083L109.7 181.65C109.7 183.226 108.321 184.605 106.549 184.605C104.973 184.605 103.594 183.226 103.594 181.453Z" fill="#F2939E"/>
<path d="M114.033 180.074C114.033 181.65 115.215 183.226 116.988 183.226C118.564 183.226 120.14 182.044 120.14 180.271L123.489 99.7039C123.489 98.128 122.307 96.5521 120.534 96.5521C118.958 96.5521 117.382 97.734 117.382 99.5069L114.033 180.074Z" fill="#F2939E"/>
</g>
<path d="M130.548 60.6961L131.961 52.283L22.4728 35.9467L21.2766 43.8183C20.7266 46.9258 25.8823 50.365 36.5705 53.9411C46.5331 57.2903 59.8301 60.464 74.2956 62.5975C88.7505 64.9151 102.36 65.8908 112.894 65.7643C124.175 65.4966 130.182 63.8143 130.548 60.6961C130.537 60.8801 130.548 60.6961 130.548 60.6961Z" fill="#898989"/>
<path d="M74.2645 63.1499C59.8097 60.8323 46.502 57.8427 36.5394 54.4935C25.4938 50.712 20.3381 47.2728 20.9095 43.7971L22.1057 35.9255C22.1164 35.7414 22.3111 35.5681 22.4952 35.5788L131.799 51.9044C131.983 51.9151 131.983 51.9151 131.972 52.0991L131.962 52.2832L130.733 60.707L130.723 60.891C130.162 64.1826 124.328 66.0597 112.679 66.306C102.329 66.4431 88.5353 65.4568 74.2645 63.1499Z" fill="#F2939E"/>
<path d="M75.5178 54.1741C61.063 51.8565 47.7553 48.8669 37.7927 45.5177C27.1046 41.9416 21.9488 38.5024 22.4988 35.3949C23.0595 32.1033 29.0669 30.421 40.3478 30.1533C50.8818 30.0268 64.4912 31.0025 78.9461 33.3201C93.4009 35.6377 106.709 38.6273 116.671 41.9765C127.359 45.5526 132.515 48.9918 131.965 52.0993C131.415 55.2069 125.592 56.8999 114.311 57.1676C103.582 57.4674 89.9834 56.3076 75.5178 54.1741Z" fill="#F7B8BF"/>
<path d="M100.756 39.3893L92.4179 36.6886C92.6662 35.5949 92.9572 33.7651 92.9893 33.2129C93.4751 31.2097 92.574 27.6484 87.2899 26.4179C85.1133 25.7374 81.0855 25.1339 77.7832 24.7573C74.4916 24.1966 70.4637 23.5932 68.071 23.4541C62.7334 23.1439 60.7217 25.9818 60.5933 28.1904C60.5612 28.7426 60.2808 30.3884 60.0219 31.6661L51.3392 31.7155C49.672 31.8033 48.3194 32.8327 48.4179 34.3158C48.5271 35.6149 49.762 36.6101 51.0503 36.685C51.2344 36.6957 51.4185 36.7064 51.6025 36.7171L60.8481 36.5157C61.0322 36.5264 61.2162 36.5371 61.4003 36.5478C63.2622 36.2867 65.5458 35.1267 65.8582 32.9287C66.1171 31.651 66.4617 28.9009 66.4617 28.9009C66.4724 28.7168 66.4724 28.7168 66.4831 28.5328C66.4938 28.3487 66.8726 28.1861 67.7929 28.2395C68.5291 28.2823 74.7549 29.1982 76.7688 29.5C78.7827 29.8017 84.9978 30.9016 85.7341 30.9444C86.8277 31.1927 86.817 31.3767 86.8063 31.5608C86.7956 31.7448 86.8063 31.5608 86.7956 31.7448C86.7956 31.7448 86.267 34.4843 86.1921 35.7727C86.0424 38.3495 87.7866 40.1129 89.4004 40.9454C89.5844 40.9561 89.7578 41.1509 89.9418 41.1616L98.8215 44.0785C99.0056 44.0892 99.1789 44.284 99.363 44.2947C100.825 44.5643 102.156 43.903 102.588 42.82C103.226 41.3797 102.391 39.8537 100.756 39.3893Z" fill="#EE6F7E"/>
<path d="M100.992 38.4794L92.6533 35.7786C92.9016 34.685 93.1926 32.8551 93.2247 32.303C93.7105 30.2998 92.8094 26.7385 87.5253 25.508C85.1646 24.8167 81.1368 24.2133 77.8345 23.8367C74.7377 23.1026 70.7098 22.4992 68.3171 22.3601C62.9795 22.0499 60.957 25.0718 60.8394 27.0964C60.8073 27.6486 60.5269 29.2944 60.268 30.5721L51.5853 30.6215C49.9181 30.7093 48.5655 31.7387 48.664 33.2219C48.7731 34.5209 50.008 35.5161 51.2964 35.591C51.4805 35.6017 51.6645 35.6124 52.0327 35.6338L61.2782 35.4325C61.4623 35.4432 61.6464 35.4538 61.8304 35.4645C63.6924 35.2034 65.9759 34.0434 66.2884 31.8454C66.5473 30.5677 66.8918 27.8176 66.8918 27.8176C66.9025 27.6335 66.9025 27.6335 66.9132 27.4495C66.9239 27.2654 67.3027 27.1028 68.223 27.1562C68.9592 27.199 75.185 28.1149 77.1989 28.4167C79.2129 28.7184 85.428 29.8183 86.1642 29.8611C87.2578 30.1094 87.2471 30.2934 87.2364 30.4775C87.2257 30.6615 87.2257 30.6616 87.2257 30.6616C87.2257 30.6616 86.6972 33.401 86.6223 34.6894C86.3098 36.8874 88.0541 38.6508 89.8519 39.494C90.036 39.5047 90.2093 39.6995 90.3934 39.7102L99.273 42.6271C99.4571 42.6378 99.6304 42.8326 99.8145 42.8433C101.276 43.1129 102.607 42.4516 103.04 41.3686C103.461 40.4697 102.627 38.9438 100.992 38.4794Z" fill="#F2939E"/>
<circle cx="115.352" cy="24" r="17" fill="#F32940"/>
<path d="M121.352 18L109.352 30" stroke="white" stroke-width="5" stroke-linecap="round"/>
<path d="M121.352 30L109.352 18" stroke="white" stroke-width="5" stroke-linecap="round"/>
</svg>
