<svg width="17" height="17" viewBox="0 0 17 17" fill="none" xmlns="http://www.w3.org/2000/svg">
<path d="M15 10.8335C15.1867 10.8335 15.3333 10.9802 15.3333 11.1668V11.8335C15.3333 12.9402 14.44 13.8335 13.3333 13.8335C13.3333 12.7335 12.4333 11.8335 11.3333 11.8335C10.2333 11.8335 9.33333 12.7335 9.33333 13.8335H8C8 12.7335 7.1 11.8335 6 11.8335C4.9 11.8335 4 12.7335 4 13.8335C2.89333 13.8335 2 12.9402 2 11.8335V10.5002C2 10.1335 2.3 9.8335 2.66667 9.8335H9C9.92 9.8335 10.6667 9.08683 10.6667 8.16683V4.50016C10.6667 4.1335 10.9667 3.8335 11.3333 3.8335H11.8933C12.3733 3.8335 12.8133 4.0935 13.0533 4.50683L13.48 5.2535C13.54 5.36016 13.46 5.50016 13.3333 5.50016C12.4133 5.50016 11.6667 6.24683 11.6667 7.16683V9.16683C11.6667 10.0868 12.4133 10.8335 13.3333 10.8335H15Z" fill="#95A3BD"/>
<path d="M6.00033 15.1667C6.73671 15.1667 7.33366 14.5697 7.33366 13.8333C7.33366 13.097 6.73671 12.5 6.00033 12.5C5.26395 12.5 4.66699 13.097 4.66699 13.8333C4.66699 14.5697 5.26395 15.1667 6.00033 15.1667Z" fill="#95A3BD"/>
<path d="M11.3333 15.1667C12.0697 15.1667 12.6667 14.5697 12.6667 13.8333C12.6667 13.097 12.0697 12.5 11.3333 12.5C10.597 12.5 10 13.097 10 13.8333C10 14.5697 10.597 15.1667 11.3333 15.1667Z" fill="#95A3BD"/>
<path d="M15.3337 8.85333V9.83333H13.3337C12.967 9.83333 12.667 9.53333 12.667 9.16667V7.16667C12.667 6.8 12.967 6.5 13.3337 6.5H14.1937L15.1603 8.19333C15.2737 8.39333 15.3337 8.62 15.3337 8.85333Z" fill="#95A3BD"/>
<path d="M9.38764 1.8335H4.46098C3.26764 1.8335 2.26764 2.68683 2.04764 3.82016H4.96098C5.21431 3.82016 5.41431 4.02683 5.41431 4.28016C5.41431 4.5335 5.21431 4.7335 4.96098 4.7335H2.00098V5.6535H3.73431C3.98764 5.6535 4.19431 5.86016 4.19431 6.1135C4.19431 6.36683 3.98764 6.56683 3.73431 6.56683H2.00098V7.48683H2.51431C2.76764 7.48683 2.97431 7.6935 2.97431 7.94683C2.97431 8.20016 2.76764 8.40016 2.51431 8.40016H2.00098V8.5535C2.00098 8.92016 2.30098 9.22016 2.66764 9.22016H8.76764C9.44764 9.22016 10.001 8.66683 10.001 7.98683V2.44683C10.001 2.10683 9.72764 1.8335 9.38764 1.8335Z" fill="#95A3BD"/>
<path d="M2.04732 3.82031H1.94732H1.29398C1.04065 3.82031 0.833984 4.02698 0.833984 4.28031C0.833984 4.53365 1.04065 4.73365 1.29398 4.73365H1.90065H2.00065V4.29365C2.00065 4.13365 2.02065 3.97365 2.04732 3.82031Z" fill="#95A3BD"/>
<path d="M1.90065 5.65332H1.29398C1.04065 5.65332 0.833984 5.85999 0.833984 6.11332C0.833984 6.36665 1.04065 6.56665 1.29398 6.56665H1.90065H2.00065V5.65332H1.90065Z" fill="#95A3BD"/>
<path d="M1.90065 7.48682H1.29398C1.04065 7.48682 0.833984 7.69348 0.833984 7.94682C0.833984 8.20015 1.04065 8.40015 1.29398 8.40015H1.90065H2.00065V7.48682H1.90065Z" fill="#95A3BD"/>
</svg>
