<svg width="32" height="24" viewBox="0 0 32 24" fill="none" xmlns="http://www.w3.org/2000/svg">
<g clip-path="url(#clip0_4138_17974)">
<path fill-rule="evenodd" clip-rule="evenodd" d="M-0.550781 -0.272736H46.6216V1.61931H-0.550781V-0.272736ZM-0.550781 3.50624H46.6216V5.39829H-0.550781V3.50624ZM-0.550781 7.28011H46.6216V9.17215H-0.550781V7.28011ZM-0.550781 11.054H46.6216V12.946H-0.550781V11.054ZM-0.550781 14.8381H46.6216V16.7199H-0.550781V14.8381ZM-0.550781 18.6068H46.6216V20.4989H-0.550781V18.6068ZM-0.550781 22.3807H46.6216V24.2727H-0.550781V22.3807Z" fill="#BD3D44"/>
<path fill-rule="evenodd" clip-rule="evenodd" d="M-0.550781 1.61932H46.6216V3.50626H-0.550781V1.61932ZM-0.550781 5.39319H46.6216V7.28012H-0.550781V5.39319ZM-0.550781 9.16705H46.6216V11.0591H-0.550781V9.16705ZM-0.550781 12.946H46.6216V14.8381H-0.550781V12.946ZM-0.550781 16.7199H46.6216V18.6119H-0.550781V16.7199ZM-0.550781 20.4938H46.6216V22.3858H-0.550781V20.4938Z" fill="white"/>
<path fill-rule="evenodd" clip-rule="evenodd" d="M-0.550781 -0.272736H18.3182V12.946H-0.550781V-0.272736Z" fill="#192F5D"/>
<path fill-rule="evenodd" clip-rule="evenodd" d="M1.02228 0.289764L1.19814 0.816469H1.74642L1.30159 1.13863L1.47228 1.66533L1.02228 1.33806L0.577451 1.66022L0.742969 1.13863L0.292969 0.816469H0.856762L1.02228 0.289764ZM4.16711 0.289764L4.3378 0.816469H4.89642L4.44642 1.13863L4.61193 1.66533L4.16711 1.33806L3.71711 1.66022L3.8878 1.13863L3.44297 0.816469H3.99124L4.16711 0.289764ZM7.31193 0.289764L7.48262 0.816469H8.03607L7.59124 1.13863L7.76193 1.66533L7.31193 1.33806L6.86193 1.66022L7.03262 1.13863L6.58262 0.816469H7.14124L7.31193 0.289764ZM10.4568 0.289764L10.6275 0.816469H11.1861L10.7361 1.13863L10.9068 1.66533L10.4568 1.33806L10.0068 1.66022L10.1826 1.13863L9.72745 0.816469H10.2809L10.4568 0.289764ZM13.6016 0.289764L13.7723 0.816469H14.3257L13.8809 1.13863L14.0516 1.66533L13.6016 1.33806L13.1516 1.66022L13.3223 1.13863L12.8775 0.816469H13.4309L13.6016 0.289764ZM16.7464 0.289764L16.9171 0.816469H17.4757L17.0206 1.13863L17.1964 1.66533L16.7464 1.33806L16.2964 1.66022L16.4723 1.13863L16.0171 0.816469H16.5757L16.7464 0.289764ZM2.59469 1.61931L2.76538 2.1409H3.32918L2.87918 2.45795L3.04469 2.98465L2.60504 2.66249L2.15504 2.98465L2.31538 2.45795L1.8809 2.1409H2.43435L2.59469 1.61931ZM5.73952 1.61931L5.91538 2.1409H6.46883L6.01366 2.45795L6.18952 2.98465L5.73952 2.66249L5.28952 2.98465L5.46021 2.45795L5.01021 2.1409H5.56883L5.73952 1.61931ZM8.88435 1.61931L9.05504 2.1409H9.61366L9.16366 2.45795L9.33435 2.98465L8.88435 2.66249L8.43435 2.98465L8.60504 2.45795L8.16021 2.1409H8.70849L8.88435 1.61931ZM12.0292 1.61931L12.205 2.1409H12.7585L12.3033 2.45795L12.4792 2.98465L12.0292 2.66249L11.5843 2.98465L11.7499 2.45795L11.2999 2.1409H11.8637L12.0292 1.61931ZM15.174 1.61931L15.3447 2.1409H15.9033L15.4533 2.45795L15.624 2.98465L15.174 2.66249L14.724 2.98465L14.8947 2.45795L14.4499 2.1409H15.0033L15.174 1.61931ZM1.02228 2.9284L1.19814 3.46022H1.74642L1.30159 3.78238L1.47228 4.30397L1.02228 3.98181L0.577451 4.30397L0.742969 3.78238L0.292969 3.46022H0.856762L1.02228 2.9284ZM4.16711 2.9284L4.3378 3.46022H4.89642L4.44642 3.78238L4.61193 4.30397L4.16711 3.98181L3.71711 4.30397L3.8878 3.77726L3.44297 3.45511H3.99124L4.16711 2.9284ZM7.31193 2.9284L7.48262 3.45511H8.03607L7.59124 3.77726L7.76193 4.29886L7.31193 3.9767L6.86193 4.29886L7.03262 3.77215L6.58262 3.44999H7.14124L7.31193 2.9284ZM10.4568 2.9284L10.6275 3.45511H11.1861L10.7361 3.77726L10.9068 4.29886L10.4568 3.9767L10.0068 4.29886L10.1826 3.77215L9.72745 3.44999H10.2809L10.4568 2.9284ZM13.6016 2.9284L13.7723 3.45511H14.3257L13.8809 3.77726L14.0516 4.29886L13.6016 3.9767L13.1516 4.29886L13.3223 3.77215L12.8775 3.44999H13.4309L13.6016 2.9284ZM16.7464 2.9284L16.9171 3.45511H17.4757L17.0206 3.77726L17.1964 4.29886L16.7464 3.9767L16.2964 4.29886L16.4723 3.77215L16.0171 3.44999H16.5757L16.7464 2.9284ZM2.59469 4.25795L2.76538 4.77954H3.32918L2.87918 5.1017L3.04987 5.6284L2.59987 5.30113L2.14987 5.62329L2.32055 5.1017L1.87573 4.77954H2.42918L2.59469 4.25795ZM5.73952 4.25795L5.91538 4.77954H6.46883L6.01366 5.1017L6.18952 5.6284L5.73952 5.30113L5.28952 5.62329L5.46021 5.1017L5.01021 4.77954H5.56883L5.73952 4.25795ZM8.88435 4.25795L9.05504 4.77954H9.61366L9.16366 5.1017L9.33435 5.6284L8.88435 5.30113L8.43435 5.62329L8.60504 5.1017L8.16021 4.77954H8.70849L8.88435 4.25795ZM12.0292 4.25795L12.205 4.77954H12.7585L12.3085 5.1017L12.4792 5.6284L12.0292 5.30113L11.5843 5.62329L11.7499 5.1017L11.2999 4.77954H11.8637L12.0292 4.25795ZM15.174 4.25795L15.3447 4.77954H15.9033L15.4533 5.1017L15.624 5.6284L15.174 5.30113L14.724 5.62329L14.8947 5.1017L14.4499 4.77954H15.0033L15.174 4.25795ZM1.02228 5.58238L1.19814 6.10397H1.74642L1.30159 6.42613L1.47228 6.95283L1.02228 6.62556L0.577451 6.94772L0.742969 6.42613L0.292969 6.10397H0.856762L1.02228 5.58238ZM4.16711 5.58238L4.3378 6.10397H4.89642L4.44642 6.42613L4.61193 6.94772L4.16711 6.62556L3.71711 6.94772L3.8878 6.42613L3.44297 6.10397H3.99124L4.16711 5.58238ZM7.31193 5.58238L7.48262 6.10397H8.03607L7.59124 6.42613L7.76193 6.95283L7.31193 6.62556L6.86193 6.94772L7.03262 6.42613L6.58262 6.10397H7.14124L7.31193 5.58238ZM10.4568 5.58238L10.6275 6.10397H11.1861L10.7361 6.42613L10.9068 6.95283L10.4568 6.62556L10.0068 6.94772L10.1826 6.42613L9.72745 6.10397H10.2809L10.4568 5.58238ZM13.6016 5.58238L13.7723 6.10397H14.3257L13.8809 6.42613L14.0516 6.95283L13.6016 6.62556L13.1516 6.94772L13.3223 6.42613L12.8775 6.10397H13.4309L13.6016 5.58238ZM16.7464 5.58238L16.9171 6.10397H17.4757L17.0206 6.42613L17.1964 6.95283L16.7464 6.62556L16.2964 6.94772L16.4671 6.42613L16.0119 6.10397H16.5706L16.7464 5.58238ZM2.59469 6.9017L2.76538 7.4284H3.32918L2.87918 7.74545L3.04987 8.27215L2.59987 7.94488L2.14987 8.27215L2.32055 7.74545L1.87573 7.42329H2.42918L2.59469 6.9017ZM5.73952 6.9017L5.91538 7.4284H6.46883L6.01366 7.74545L6.18952 8.27215L5.73952 7.94488L5.28952 8.27215L5.46021 7.74545L5.01021 7.42329H5.56883L5.73952 6.9017ZM8.88435 6.9017L9.05504 7.4284H9.61366L9.16366 7.74545L9.33435 8.27215L8.88435 7.94488L8.43435 8.27215L8.60504 7.74545L8.16021 7.42329H8.70849L8.88435 6.9017ZM12.0292 6.9017L12.205 7.4284H12.7585L12.3085 7.74545L12.4792 8.27215L12.0292 7.94488L11.5843 8.27215L11.7499 7.74545L11.2999 7.42329H11.8637L12.0292 6.9017ZM15.174 6.9017L15.3447 7.4284H15.9033L15.4533 7.74545L15.624 8.27215L15.174 7.94488L14.724 8.27215L14.8947 7.74545L14.4499 7.42329H15.0033L15.174 6.9017ZM1.02228 8.22102L1.19814 8.74772H1.74642L1.30159 9.06988L1.47228 9.58636L1.02228 9.26931L0.577451 9.58636L0.742969 9.06477L0.292969 8.74261H0.856762L1.02228 8.22102ZM4.16711 8.22102L4.3378 8.74772H4.89642L4.44642 9.06988L4.61711 9.58636L4.16711 9.26931L3.71711 9.58636L3.89297 9.06477L3.44297 8.74261H3.99124L4.16711 8.22102ZM7.31193 8.22102L7.48262 8.74772H8.03607L7.59124 9.06988L7.76193 9.58636L7.31193 9.26931L6.86193 9.58636L7.03262 9.06477L6.58262 8.74261H7.14124L7.31193 8.22102ZM10.4568 8.22102L10.6275 8.74772H11.1861L10.7361 9.06988L10.9068 9.58636L10.4568 9.26931L10.0068 9.58636L10.1826 9.06477L9.72745 8.74261H10.2809L10.4568 8.22102ZM13.6016 8.22102L13.7723 8.74772H14.3257L13.8809 9.06988L14.0516 9.58636L13.6016 9.26931L13.1516 9.58636L13.3223 9.06477L12.8775 8.74261H13.4309L13.6016 8.22102ZM16.7464 8.22102L16.9171 8.74772H17.4757L17.0206 9.06988L17.1964 9.58636L16.7464 9.26931L16.2964 9.58636L16.4723 9.06477L16.0171 8.74261H16.5757L16.7464 8.22102ZM2.59469 9.54545L2.76538 10.067H3.32918L2.87918 10.3892L3.04987 10.9159L2.59987 10.5886L2.14987 10.9108L2.32055 10.3892L1.87573 10.067H2.42918L2.59469 9.54545ZM5.73952 9.54545L5.91538 10.067H6.46883L6.01366 10.3892L6.18952 10.9159L5.73952 10.5886L5.28952 10.9108L5.46021 10.3892L5.01021 10.067H5.56883L5.73952 9.54545ZM8.88435 9.54545L9.05504 10.067H9.61366L9.16366 10.3892L9.33435 10.9159L8.88435 10.5886L8.43435 10.9108L8.60504 10.3892L8.16021 10.067H8.70849L8.88435 9.54545ZM12.0292 9.54545L12.205 10.067H12.7585L12.3085 10.3892L12.4792 10.9159L12.0292 10.5886L11.5843 10.9108L11.7499 10.3892L11.2999 10.067H11.8637L12.0292 9.54545ZM15.174 9.54545L15.3447 10.067H15.9033L15.4533 10.3892L15.624 10.9159L15.174 10.5886L14.724 10.9108L14.8947 10.3892L14.4499 10.067H15.0033L15.174 9.54545ZM1.02228 10.8699L1.19814 11.3915H1.74642L1.30159 11.7136L1.47228 12.2352L1.02228 11.9131L0.577451 12.2352L0.742969 11.7085L0.292969 11.3864H0.856762L1.02228 10.8699ZM4.16711 10.8699L4.3378 11.3915H4.89642L4.44642 11.7136L4.61711 12.2352L4.16711 11.9131L3.71711 12.2352L3.89297 11.7085L3.44297 11.3864H3.99124L4.16711 10.8699ZM7.31193 10.8699L7.48262 11.3915H8.03607L7.60159 11.7136L7.77228 12.2352L7.32228 11.9131L6.87228 12.2352L7.04297 11.7085L6.59297 11.3864H7.15159L7.31193 10.8699ZM10.4568 10.8699L10.6275 11.3915H11.1861L10.7361 11.7136L10.9068 12.2352L10.4568 11.9131L10.0068 12.2352L10.1826 11.7085L9.72745 11.3864H10.2809L10.4568 10.8699ZM13.6016 10.8699L13.7723 11.3915H14.3257L13.8809 11.7136L14.0516 12.2352L13.6016 11.9131L13.1516 12.2352L13.3223 11.7085L12.8775 11.3864H13.4309L13.6016 10.8699ZM16.7464 10.8699L16.9171 11.3915H17.4757L17.0206 11.7136L17.1964 12.2352L16.7464 11.9131L16.2964 12.2352L16.4723 11.7085L16.0171 11.3864H16.5757L16.7464 10.8699Z" fill="white"/>
</g>
<defs>
<clipPath id="clip0_4138_17974">
<rect width="33.1034" height="24.5455" fill="white" transform="translate(-0.550781 -0.272736)"/>
</clipPath>
</defs>
</svg>
