<svg width="58" height="50" viewBox="0 0 58 50" fill="none" xmlns="http://www.w3.org/2000/svg">
<g clip-path="url(#clip0_5611_104543)">
<path d="M28.9504 35.45C32.9821 35.45 36.2504 32.1817 36.2504 28.15C36.2504 24.1183 32.9821 20.85 28.9504 20.85C24.9187 20.85 21.6504 24.1183 21.6504 28.15C21.6504 32.1817 24.9187 35.45 28.9504 35.45Z" fill="#E4E7EC"/>
<path d="M52.45 15.25V20.85H38.25C36.05 18.15 32.75 16.35 29.05 16.35C25.35 16.35 21.95 18.15 19.75 20.85H9.25V18.65C9.25 16.75 10.75 15.25 12.65 15.25H52.45Z" fill="#E4E7EC"/>
<path d="M52.45 38.25V43.75H9.25V41.65C9.25 39.75 10.75 38.25 12.65 38.25H22.85C24.65 39.35 26.75 39.95 29.05 39.95C31.35 39.95 33.45 39.35 35.25 38.25H52.45Z" fill="#E4E7EC"/>
<path d="M17.15 28.15C17.15 30.95 18.15 33.45 19.65 35.45H9.25V26.75C9.25 24.85 10.75 23.35 12.65 23.35H18.15C17.55 24.85 17.15 26.45 17.15 28.15Z" fill="#E4E7EC"/>
<path d="M52.45 23.45V35.55H38.25C39.85 33.55 40.75 30.95 40.75 28.25C40.75 26.55 40.35 24.95 39.75 23.55H52.45V23.45Z" fill="#E4E7EC"/>
<path d="M50.1488 43.75H7.84883C6.54883 43.75 5.54883 42.75 5.54883 41.45V14.85C5.54883 13.55 6.54883 12.55 7.84883 12.55H50.1488C51.4488 12.55 52.4488 13.55 52.4488 14.85V41.45C52.4488 42.75 51.4488 43.75 50.1488 43.75Z" stroke="#667085" stroke-miterlimit="10" stroke-linecap="round" stroke-linejoin="round"/>
<path d="M28.9504 39.95C35.4674 39.95 40.7504 34.667 40.7504 28.15C40.7504 21.633 35.4674 16.35 28.9504 16.35C22.4334 16.35 17.1504 21.633 17.1504 28.15C17.1504 34.667 22.4334 39.95 28.9504 39.95Z" stroke="#667085" stroke-miterlimit="10" stroke-linecap="round" stroke-linejoin="round"/>
<path d="M28.9504 35.45C32.9821 35.45 36.2504 32.1817 36.2504 28.15C36.2504 24.1183 32.9821 20.85 28.9504 20.85C24.9187 20.85 21.6504 24.1183 21.6504 28.15C21.6504 32.1817 24.9187 35.45 28.9504 35.45Z" stroke="#667085" stroke-miterlimit="10" stroke-linecap="round" stroke-linejoin="round"/>
<path d="M5.44922 20.85H19.7492" stroke="#667085" stroke-miterlimit="10" stroke-linecap="round" stroke-linejoin="round"/>
<path d="M5.44922 35.45H19.7492" stroke="#667085" stroke-miterlimit="10" stroke-linecap="round" stroke-linejoin="round"/>
<path d="M38.25 20.85H52.45" stroke="#667085" stroke-miterlimit="10" stroke-linecap="round" stroke-linejoin="round"/>
<path d="M38.25 35.45H52.45" stroke="#667085" stroke-miterlimit="10" stroke-linecap="round" stroke-linejoin="round"/>
<path d="M35.3504 5.65002H22.4504L19.1504 12.55H38.7504L35.3504 5.65002Z" stroke="#667085" stroke-miterlimit="10" stroke-linecap="round" stroke-linejoin="round"/>
<path d="M36.6496 8.25H23.9496L21.8496 12.55H38.7496L36.6496 8.25Z" fill="#667085" stroke="#667085" stroke-miterlimit="10" stroke-linecap="round" stroke-linejoin="round"/>
<path d="M12.05 7.65002H14.15C15.45 7.65002 16.55 8.75003 16.55 10.05V12.55H9.75V10.05C9.75 8.75003 10.75 7.65002 12.05 7.65002Z" stroke="#667085" stroke-miterlimit="10" stroke-linecap="round" stroke-linejoin="round"/>
<path d="M51.0496 7.75C54.1496 7.75 56.6496 10.25 56.6496 13.35V42.95C56.6496 46.05 54.1496 48.55 51.0496 48.55H6.94961C3.84961 48.55 1.34961 46.05 1.34961 42.95V13.35C1.34961 10.25 3.84961 7.75 6.94961 7.75" stroke="#667085" stroke-miterlimit="10" stroke-linecap="round" stroke-linejoin="round"/>
<path d="M41.3496 5.05002V9.05002H47.9496V5.05002" stroke="#667085" stroke-miterlimit="10" stroke-linecap="round" stroke-linejoin="round"/>
<path d="M44.6504 5.65001V1.45001" stroke="#667085" stroke-miterlimit="10" stroke-linecap="round" stroke-linejoin="round"/>
<path d="M43.3496 2.75001L44.6496 1.45001L45.9496 2.75001" stroke="#667085" stroke-miterlimit="10" stroke-linecap="round" stroke-linejoin="round"/>
<path d="M24.25 28.15C24.25 25.55 26.35 23.45 28.95 23.45" stroke="#667085" stroke-miterlimit="10" stroke-linecap="round" stroke-linejoin="round"/>
<path d="M49.7492 15.25H45.9492" stroke="#667085" stroke-miterlimit="10" stroke-linecap="round" stroke-linejoin="round"/>
<path d="M43.65 15.25H41.75" stroke="#667085" stroke-miterlimit="10" stroke-linecap="round" stroke-linejoin="round"/>
<path d="M12.5498 9.55002H15.2498C16.0498 9.55002 16.6498 10.15 16.6498 10.95V12.55H11.7498V10.45C11.6498 9.95002 12.0498 9.55002 12.5498 9.55002Z" fill="#667085" stroke="#667085" stroke-miterlimit="10" stroke-linecap="round" stroke-linejoin="round"/>
</g>
<defs>
<clipPath id="clip0_5611_104543">
<rect width="56.3" height="48.1" fill="white" transform="translate(0.849609 0.950012)"/>
</clipPath>
</defs>
</svg>
