<svg width="24" height="24" viewBox="0 0 24 24" fill="none" xmlns="http://www.w3.org/2000/svg">
<path opacity="0.4" fill-rule="evenodd" clip-rule="evenodd" d="M7.95341 2.78142C7.17113 2.46851 6.37623 3.20399 6.62754 4.00817L6.75 4.40006L7.72436 6.00006H7C6.44772 6.00006 6 6.44778 6 7.00006C6 7.55235 6.44772 8.00006 7 8.00006H15C15.5523 8.00006 16 7.55235 16 7.00006C16 6.44778 15.5523 6.00006 15 6.00006H14.2756L15.25 4.40006L15.3366 4.12297C15.5938 3.29981 14.7582 2.55887 13.9717 2.91278L13.7726 3.00237C13.495 3.12729 13.1756 3.11896 12.9049 2.97974L11.4948 2.25451C11.1871 2.0963 10.8196 2.10832 10.5229 2.28631L9.42534 2.94486C9.15736 3.10565 8.82962 3.13191 8.53945 3.01584L7.95341 2.78142Z" fill="#667085"/>
<path opacity="0.4" fill-rule="evenodd" clip-rule="evenodd" d="M6.30223 10.3549C6.13553 11.1127 5.82679 11.8387 5.38947 12.5014L4.40043 14L3.39645 15.8255C3.33257 15.9417 3.27784 16.0618 3.23266 16.185C2.61631 17.8661 3.25231 19.7171 4.81157 20.7803L5.13174 20.9986C6.08499 21.6486 7.24441 22 8.43598 22H12.6377C12.2473 21.5719 12 21.0185 12 20.3636V14.6364C12 13.0021 13.5401 12 15 12H16.3844C16.1033 11.4787 15.8971 10.9258 15.7715 10.3549C15.5982 9.56709 14.8374 9 13.9537 9H8.1201C7.2364 9 6.47554 9.56709 6.30223 10.3549ZM17.0134 13H15C13.8954 13 13 13.7326 13 14.6364V20.3636C13 21.1177 13.6234 21.7527 14.4716 21.9423C15.3637 21.818 16.2132 21.4956 16.942 20.9986L17.2622 20.7803C18.1678 20.1628 18.762 19.2795 18.9802 18.3182H18.3182L18.3182 19.1818C18.3182 19.6337 17.9519 20 17.5001 20C17.0482 20 16.6819 19.6337 16.6819 19.1818V18.3182H15.8182C15.3663 18.3182 15 17.9518 15 17.5C15 17.0481 15.3663 16.6818 15.8182 16.6818H16.6819V15.8182C16.6819 15.3663 17.0482 15 17.5001 15C17.9519 15 18.3182 15.3663 18.3182 15.8182L18.3182 16.6818H18.9862C18.9496 16.5152 18.9013 16.3493 18.8411 16.185C18.7959 16.0618 18.7412 15.9417 18.6773 15.8255L17.6733 14L17.0134 13Z" fill="#667085"/>
<path fill-rule="evenodd" clip-rule="evenodd" d="M13 14.6364C13 13.7326 13.8954 13 15 13H20C21.1046 13 22 13.7326 22 14.6364V20.3636C22 21.2674 21.1046 22 20 22H15C13.8954 22 13 21.2674 13 20.3636V14.6364ZM15 17.5C15 17.0481 15.3663 16.6818 15.8182 16.6818H16.6819L16.6819 15.8182C16.6819 15.3663 17.0482 15 17.5001 15C17.9519 15 18.3182 15.3663 18.3182 15.8182L18.3182 16.6818H19.1818C19.6337 16.6818 20 17.0481 20 17.5C20 17.9518 19.6337 18.3182 19.1818 18.3182H18.3182L18.3182 19.1818C18.3182 19.6337 17.9519 20 17.5001 20C17.0482 20 16.6819 19.6337 16.6819 19.1818L16.6819 18.3182H15.8182C15.3663 18.3182 15 17.9518 15 17.5Z" fill="#667085"/>
</svg>
