<svg width="28" height="28" viewBox="0 0 28 28" fill="none" xmlns="http://www.w3.org/2000/svg">
<rect x="0.5" y="0.5" width="27" height="27" rx="13.5" fill="#F9FAFB"/>
<path d="M22.2509 18.4325C22.2659 18.995 22.1159 19.5275 21.8459 19.985C21.6959 20.255 21.4934 20.5026 21.2684 20.7051C20.7509 21.1851 20.0684 21.4776 19.3109 21.5001C18.2159 21.5226 17.2484 20.9601 16.7159 20.0976C16.4309 19.6551 16.2584 19.1226 16.2509 18.5601C16.2284 17.6151 16.6484 16.76 17.3234 16.1975C17.8334 15.7775 18.4784 15.5151 19.1834 15.5001C20.8409 15.4626 22.2134 16.775 22.2509 18.4325Z" stroke="#95A3BD" stroke-miterlimit="10" stroke-linecap="round" stroke-linejoin="round"/>
<path d="M18.0801 18.5226L18.8376 19.2426L20.4051 17.7275" stroke="#95A3BD" stroke-linecap="round" stroke-linejoin="round"/>
<path d="M7.37891 10.58L14.0014 14.4124L20.5789 10.6024" stroke="#95A3BD" stroke-linecap="round" stroke-linejoin="round"/>
<path d="M14.002 21.2074V14.4049" stroke="#95A3BD" stroke-linecap="round" stroke-linejoin="round"/>
<path d="M21.2079 11.8775V16.1225C21.2079 16.16 21.208 16.19 21.2005 16.2275C20.6755 15.77 20.0005 15.5 19.2505 15.5C18.5455 15.5 17.893 15.7475 17.3755 16.16C16.6855 16.7075 16.2505 17.555 16.2505 18.5C16.2505 19.0625 16.4079 19.595 16.6854 20.045C16.7529 20.165 16.8355 20.2775 16.9255 20.3825L15.553 21.14C14.698 21.62 13.303 21.62 12.448 21.14L8.44296 18.92C7.53545 18.4175 6.79297 17.1575 6.79297 16.1225V11.8775C6.79297 10.8425 7.53545 9.58252 8.44296 9.08002L12.448 6.86C13.303 6.38 14.698 6.38 15.553 6.86L19.558 9.08002C20.4655 9.58252 21.2079 10.8425 21.2079 11.8775Z" stroke="#95A3BD" stroke-linecap="round" stroke-linejoin="round"/>
<rect x="0.5" y="0.5" width="27" height="27" rx="13.5" stroke="#EAECF0"/>
</svg>
