<svg width="24" height="24" viewBox="0 0 24 24" fill="none" xmlns="http://www.w3.org/2000/svg">
<path opacity="0.4" fill-rule="evenodd" clip-rule="evenodd" d="M14.6401 14.7467C15.4769 14.7467 16.1552 14.0968 16.1552 13.2951V10.6932C16.1552 9.8915 15.4769 9.24159 14.6401 9.24159L10.0491 9.24159C10.0412 9.15632 10.0329 9.07107 10.0242 8.98585L9.95875 8.34031C9.85883 7.35541 8.7672 6.76557 7.83577 7.19323C5.85489 8.10275 4.06164 9.34736 2.54225 10.8672L2.42201 10.9875C1.85933 11.5503 1.85933 12.4379 2.42201 13.0008L2.54225 13.1211C4.06164 14.6409 5.85489 15.8855 7.83577 16.795C8.76719 17.2227 9.85883 16.6329 9.95875 15.648L10.0242 15.0024C10.0329 14.9172 10.0412 14.832 10.0491 14.7467H14.6401Z" fill="#667085"/>
<path d="M13 5H17C18.6569 5 20 6.34315 20 8V16C20 17.6569 18.6569 19 17 19H13" stroke="#667085" stroke-width="2" stroke-linecap="round" stroke-linejoin="round"/>
</svg>
