<svg width="32" height="32" viewBox="0 0 32 32" fill="none" xmlns="http://www.w3.org/2000/svg">
<path d="M30.6682 23.88C30.6949 24.88 30.4282 25.8267 29.9482 26.64C29.6815 27.12 29.3215 27.56 28.9215 27.92C28.0015 28.7733 26.7882 29.2933 25.4415 29.3333C23.4948 29.3733 21.7749 28.3734 20.8282 26.84C20.3215 26.0534 20.0149 25.1067 20.0015 24.1067C19.9615 22.4267 20.7082 20.9067 21.9082 19.9067C22.8149 19.16 23.9615 18.6933 25.2149 18.6667C28.1615 18.6 30.6015 20.9333 30.6682 23.88Z" stroke="#039855" stroke-width="1.5" stroke-miterlimit="10" stroke-linecap="round" stroke-linejoin="round"/>
<path d="M23.2539 24.04L24.6006 25.3199L27.3872 22.6266" stroke="#039855" stroke-width="1.5" stroke-linecap="round" stroke-linejoin="round"/>
<path d="M4.22656 9.91992L15.9999 16.7332L27.6932 9.95988" stroke="#039855" stroke-width="1.5" stroke-linecap="round" stroke-linejoin="round"/>
<path d="M16 28.8132V16.7198" stroke="#039855" stroke-width="1.5" stroke-linecap="round" stroke-linejoin="round"/>
<path d="M28.8141 12.2266V19.7733C28.8141 19.84 28.8142 19.8933 28.8008 19.9599C27.8675 19.1466 26.6675 18.6667 25.3341 18.6667C24.0808 18.6667 22.9208 19.1067 22.0008 19.84C20.7741 20.8133 20.0008 22.32 20.0008 24C20.0008 25 20.2808 25.9466 20.7741 26.7466C20.8941 26.96 21.0408 27.16 21.2008 27.3467L18.7608 28.6933C17.2408 29.5467 14.7608 29.5467 13.2408 28.6933L6.12081 24.7466C4.50748 23.8533 3.1875 21.6133 3.1875 19.7733V12.2266C3.1875 10.3866 4.50748 8.14666 6.12081 7.25332L13.2408 3.30663C14.7608 2.45329 17.2408 2.45329 18.7608 3.30663L25.8808 7.25332C27.4942 8.14666 28.8141 10.3866 28.8141 12.2266Z" stroke="#039855" stroke-width="1.5" stroke-linecap="round" stroke-linejoin="round"/>
</svg>
