<svg width="20" height="20" viewBox="0 0 20 20" fill="none" xmlns="http://www.w3.org/2000/svg">
<path d="M7.52552 18.0748L9.46719 16.4415C9.75885 16.1915 10.2422 16.1915 10.5339 16.4415L12.4755 18.0748C12.9255 18.2998 13.4755 18.0748 13.6422 17.5915L14.0089 16.4831C14.1005 16.2165 14.0089 15.8248 13.8089 15.6248L11.9172 13.7248C11.7755 13.5915 11.6672 13.3248 11.6672 13.1331V10.7581C11.6672 10.4081 11.9255 10.2415 12.2505 10.3748L16.3422 12.1415C16.9839 12.4165 17.5089 12.0748 17.5089 11.3748V10.2998C17.5089 9.74147 17.0922 9.0998 16.5755 8.88314L11.9172 6.8748C11.7839 6.81647 11.6672 6.64147 11.6672 6.49147V3.99147C11.6672 3.20814 11.0922 2.28314 10.3922 1.9248C10.1422 1.7998 9.85052 1.7998 9.60052 1.9248C8.90052 2.28314 8.32552 3.21647 8.32552 3.9998V6.4998C8.32552 6.6498 8.20885 6.8248 8.07552 6.88314L3.42552 8.89147C2.90885 9.0998 2.49219 9.74147 2.49219 10.2998V11.3748C2.49219 12.0748 3.01719 12.4165 3.65885 12.1415L7.75052 10.3748C8.06719 10.2331 8.33385 10.4081 8.33385 10.7581V13.1331C8.33385 13.3248 8.22552 13.5915 8.09219 13.7248L6.20052 15.6248C6.00052 15.8248 5.90885 16.2081 6.00052 16.4831L6.36719 17.5915C6.51719 18.0748 7.06719 18.3081 7.52552 18.0748Z" stroke="white" stroke-width="1.5" stroke-linecap="round" stroke-linejoin="round"/>
</svg>
