<svg width="24" height="24" viewBox="0 0 24 24" fill="none" xmlns="http://www.w3.org/2000/svg">
<path opacity="0.4" fill-rule="evenodd" clip-rule="evenodd" d="M6 3C6 2.44772 6.44772 2 7 2C7.55228 2 8 2.44772 8 3V4H16V3C16 2.44772 16.4477 2 17 2C17.5523 2 18 2.44772 18 3V4H19C19.5523 4 20 4.44772 20 5V6H4V5C4 4.44772 4.44772 4 5 4H6V3Z" fill="#667085"/>
<rect x="7.15625" y="13" width="2" height="2" rx="1" fill="#667085"/>
<path d="M2.72361 18.4472C2.39116 17.7823 2.87465 17 3.61803 17H20.382C21.1253 17 21.6088 17.7823 21.2764 18.4472L20.2764 20.4472C20.107 20.786 19.7607 21 19.382 21H4.61803C4.23926 21 3.893 20.786 3.72361 20.4472L2.72361 18.4472Z" fill="#667085"/>
<path d="M2 21.5L2.52632 21C3.1162 20.4396 4.0417 20.4396 4.63158 21V21C5.22146 21.5604 6.14696 21.5604 6.73684 21V21C7.32672 20.4396 8.25223 20.4396 8.84211 21V21C9.43199 21.5604 10.3575 21.5604 10.9474 21V21C11.5372 20.4396 12.4628 20.4396 13.0526 21V21C13.6425 21.5604 14.568 21.5604 15.1579 21V21C15.7478 20.4396 16.6733 20.4396 17.2632 21V21C17.853 21.5604 18.7785 21.5604 19.3684 21V21C19.9583 20.4396 20.8838 20.4396 21.4737 21L22 21.5" stroke="#667085" stroke-linecap="round"/>
<path fill-rule="evenodd" clip-rule="evenodd" d="M6 14C5.44772 14 5 14.4477 5 15V17C5 17.5523 5.44771 18 6 18H10.3158C10.8681 18 11.3158 17.5523 11.3158 17V15C11.3158 14.4477 10.8681 14 10.3158 14H6ZM6.55263 15C6.27649 15 6.05263 15.2239 6.05263 15.5C6.05263 15.7761 6.27649 16 6.55263 16H9.76316C10.0393 16 10.2632 15.7761 10.2632 15.5C10.2632 15.2239 10.0393 15 9.76316 15H6.55263Z" fill="#667085"/>
<path opacity="0.4" fill-rule="evenodd" clip-rule="evenodd" d="M20 6H4V18H20V13.5H18.1504C17.7277 13.5 17.3159 13.3661 16.974 13.1175L12 9.5L12.8594 11H6.6948C5.7002 11 5.20211 9.79749 5.90539 9.0942C5.93499 9.06461 5.96258 9.03313 5.988 9H9.23223C9.38012 9 9.5 8.88012 9.5 8.73223C9.5 8.59898 9.40202 8.486 9.2701 8.46716L6.51617 8.07374L6.54286 8.02586C6.89607 7.39253 7.56443 7 8.28959 7H19.9996V11H18.3121L19.9996 13L20 13.0001V6ZM11 8C11.2761 8 11.5 8.22386 11.5 8.5C11.5 8.77614 11.2761 9 11 9C10.7239 9 10.5 8.77614 10.5 8.5C10.5 8.22386 10.7239 8 11 8ZM13.5 8.5C13.5 8.22386 13.2761 8 13 8C12.7239 8 12.5 8.22386 12.5 8.5C12.5 8.77614 12.7239 9 13 9C13.2761 9 13.5 8.77614 13.5 8.5ZM15 8C15.2761 8 15.5 8.22386 15.5 8.5C15.5 8.77614 15.2761 9 15 9C14.7239 9 14.5 8.77614 14.5 8.5C14.5 8.22386 14.7239 8 15 8ZM17.5 8.5C17.5 8.22386 17.2761 8 17 8C16.7239 8 16.5 8.22386 16.5 8.5C16.5 8.77614 16.7239 9 17 9C17.2761 9 17.5 8.77614 17.5 8.5Z" fill="#667085"/>
</svg>
