<svg width="16" height="16" viewBox="0 0 16 16" fill="none" xmlns="http://www.w3.org/2000/svg">
<path d="M6.66602 12.9156L6.66602 3.0845C6.66602 2.15117 6.36856 1.77783 5.62956 1.77783L2.81358 1.77783C2.07458 1.77783 1.77713 2.15117 1.77713 3.0845L1.77713 12.9156C1.77713 13.8489 2.07458 14.2223 2.81358 14.2223L5.62956 14.2223C6.36856 14.2223 6.66602 13.8489 6.66602 12.9156Z" stroke="#667085" stroke-width="1.5" stroke-linecap="round" stroke-linejoin="round"/>
<path d="M14.2227 12.9156L14.2227 3.0845C14.2227 2.15117 13.9252 1.77783 13.1862 1.77783L10.3702 1.77783C9.63123 1.77783 9.33377 2.15117 9.33377 3.0845L9.33377 12.9156C9.33377 13.8489 9.63122 14.2223 10.3702 14.2223L13.1862 14.2223C13.9252 14.2223 14.2227 13.8489 14.2227 12.9156Z" stroke="#667085" stroke-width="1.5" stroke-linecap="round" stroke-linejoin="round"/>
</svg>
