<svg width="28" height="28" viewBox="0 0 28 28" fill="none" xmlns="http://www.w3.org/2000/svg">
<rect x="0.5" y="0.5" width="27" height="27" rx="13.5" fill="#F9FAFB"/>
<path d="M11.7722 21.2674L13.5197 19.7974C13.7822 19.5724 14.2172 19.5724 14.4797 19.7974L16.2272 21.2674C16.6322 21.4699 17.1272 21.2674 17.2772 20.8324L17.6072 19.8349C17.6897 19.5949 17.6072 19.2424 17.4272 19.0624L15.7247 17.3524C15.5972 17.2324 15.4997 16.9924 15.4997 16.8199V14.6824C15.4997 14.3674 15.7322 14.2174 16.0247 14.3374L19.7072 15.9274C20.2847 16.1749 20.7572 15.8674 20.7572 15.2374V14.2699C20.7572 13.7674 20.3822 13.1899 19.9172 12.9949L15.7247 11.1874C15.6047 11.1349 15.4997 10.9774 15.4997 10.8424V8.59245C15.4997 7.88745 14.9822 7.05495 14.3522 6.73245C14.1272 6.61995 13.8647 6.61995 13.6397 6.73245C13.0097 7.05495 12.4922 7.89495 12.4922 8.59995V10.8499C12.4922 10.9849 12.3872 11.1424 12.2672 11.1949L8.08219 13.0024C7.61719 13.1899 7.24219 13.7674 7.24219 14.2699V15.2374C7.24219 15.8674 7.71469 16.1749 8.29219 15.9274L11.9747 14.3374C12.2597 14.2099 12.4997 14.3674 12.4997 14.6824V16.8199C12.4997 16.9924 12.4022 17.2324 12.2822 17.3524L10.5797 19.0624C10.3997 19.2424 10.3172 19.5874 10.3997 19.8349L10.7297 20.8324C10.8647 21.2674 11.3597 21.4774 11.7722 21.2674Z" stroke="#95A3BD" stroke-linecap="round" stroke-linejoin="round"/>
<rect x="0.5" y="0.5" width="27" height="27" rx="13.5" stroke="#EAECF0"/>
</svg>
