<svg width="21" height="21" viewBox="0 0 21 21" fill="none" xmlns="http://www.w3.org/2000/svg">
<path d="M3.14258 6.69995L10.5009 10.9583L17.8092 6.72492" stroke="#95A3BD" stroke-width="1.5" stroke-linecap="round" stroke-linejoin="round"/>
<path d="M10.5 18.5083V10.95" stroke="#95A3BD" stroke-width="1.5" stroke-linecap="round" stroke-linejoin="round"/>
<path d="M18.5088 11.1917V8.14163C18.5088 6.99163 17.6838 5.59164 16.6755 5.03331L12.2255 2.56663C11.2755 2.03329 9.7255 2.03329 8.7755 2.56663L4.32551 5.03331C3.31717 5.59164 2.49219 6.99163 2.49219 8.14163V12.8583C2.49219 14.0083 3.31717 15.4083 4.32551 15.9666L8.7755 18.4333C9.2505 18.7 9.87551 18.8333 10.5005 18.8333C11.1255 18.8333 11.7505 18.7 12.2255 18.4333" stroke="#95A3BD" stroke-width="1.5" stroke-linecap="round" stroke-linejoin="round"/>
<path d="M16.5007 18.3334C17.9734 18.3334 19.1673 17.1394 19.1673 15.6667C19.1673 14.1939 17.9734 13 16.5007 13C15.0279 13 13.834 14.1939 13.834 15.6667C13.834 17.1394 15.0279 18.3334 16.5007 18.3334Z" stroke="#95A3BD" stroke-width="1.5" stroke-linecap="round" stroke-linejoin="round"/>
<path d="M19.6673 18.8333L18.834 18" stroke="#95A3BD" stroke-width="1.5" stroke-linecap="round" stroke-linejoin="round"/>
</svg>
