<svg width="16" height="16" viewBox="0 0 16 16" fill="none" xmlns="http://www.w3.org/2000/svg">
<path d="M14.333 10.3335C14.5197 10.3335 14.6663 10.4802 14.6663 10.6668V11.3335C14.6663 12.4402 13.773 13.3335 12.6663 13.3335C12.6663 12.2335 11.7663 11.3335 10.6663 11.3335C9.56634 11.3335 8.66634 12.2335 8.66634 13.3335H7.33301C7.33301 12.2335 6.43301 11.3335 5.33301 11.3335C4.23301 11.3335 3.33301 12.2335 3.33301 13.3335C2.22634 13.3335 1.33301 12.4402 1.33301 11.3335V10.0002C1.33301 9.6335 1.63301 9.3335 1.99967 9.3335H8.33301C9.25301 9.3335 9.99967 8.58683 9.99967 7.66683V4.00016C9.99967 3.6335 10.2997 3.3335 10.6663 3.3335H11.2263C11.7063 3.3335 12.1463 3.5935 12.3863 4.00683L12.813 4.7535C12.873 4.86016 12.793 5.00016 12.6663 5.00016C11.7463 5.00016 10.9997 5.74683 10.9997 6.66683V8.66683C10.9997 9.58683 11.7463 10.3335 12.6663 10.3335H14.333Z" fill="#E52138"/>
<path d="M5.33333 14.6667C6.06971 14.6667 6.66667 14.0697 6.66667 13.3333C6.66667 12.597 6.06971 12 5.33333 12C4.59695 12 4 12.597 4 13.3333C4 14.0697 4.59695 14.6667 5.33333 14.6667Z" fill="#E52138"/>
<path d="M10.6663 14.6667C11.4027 14.6667 11.9997 14.0697 11.9997 13.3333C11.9997 12.597 11.4027 12 10.6663 12C9.92996 12 9.33301 12.597 9.33301 13.3333C9.33301 14.0697 9.92996 14.6667 10.6663 14.6667Z" fill="#E52138"/>
<path d="M14.6667 8.35333V9.33333H12.6667C12.3 9.33333 12 9.03333 12 8.66667V6.66667C12 6.3 12.3 6 12.6667 6H13.5267L14.4933 7.69333C14.6067 7.89333 14.6667 8.12 14.6667 8.35333Z" fill="#E52138"/>
<path d="M8.72065 1.3335H3.79398C2.60065 1.3335 1.60065 2.18683 1.38065 3.32016H4.29398C4.54732 3.32016 4.74732 3.52683 4.74732 3.78016C4.74732 4.0335 4.54732 4.2335 4.29398 4.2335H1.33398V5.1535H3.06732C3.32065 5.1535 3.52732 5.36016 3.52732 5.6135C3.52732 5.86683 3.32065 6.06683 3.06732 6.06683H1.33398V6.98683H1.84732C2.10065 6.98683 2.30732 7.1935 2.30732 7.44683C2.30732 7.70016 2.10065 7.90016 1.84732 7.90016H1.33398V8.0535C1.33398 8.42016 1.63398 8.72016 2.00065 8.72016H8.10065C8.78065 8.72016 9.33398 8.16683 9.33398 7.48683V1.94683C9.33398 1.60683 9.06065 1.3335 8.72065 1.3335Z" fill="#E52138"/>
<path d="M1.38033 3.32031H1.28033H0.626992C0.373659 3.32031 0.166992 3.52698 0.166992 3.78031C0.166992 4.03365 0.373659 4.23365 0.626992 4.23365H1.23366H1.33366V3.79365C1.33366 3.63365 1.35366 3.47365 1.38033 3.32031Z" fill="#E52138"/>
<path d="M1.23366 5.15332H0.626992C0.373659 5.15332 0.166992 5.35999 0.166992 5.61332C0.166992 5.86665 0.373659 6.06665 0.626992 6.06665H1.23366H1.33366V5.15332H1.23366Z" fill="#E52138"/>
<path d="M1.23366 6.98682H0.626992C0.373659 6.98682 0.166992 7.19348 0.166992 7.44682C0.166992 7.70015 0.373659 7.90015 0.626992 7.90015H1.23366H1.33366V6.98682H1.23366Z" fill="#E52138"/>
</svg>
