<svg width="135" height="82" viewBox="0 0 135 82" fill="none" xmlns="http://www.w3.org/2000/svg">
<path d="M66.1899 0.288619L45.4093 12.2182C44.8962 12.4748 44.6396 12.9879 44.6396 13.6293V37.6167C44.6396 38.1298 44.8962 38.7712 45.4093 39.0278L66.1899 50.9574C66.703 51.2139 67.3444 51.2139 67.8575 50.9574L88.6381 39.0278C89.1512 38.7712 89.4077 38.2581 89.4077 37.6167V13.6293C89.4077 13.1162 89.1512 12.4748 88.6381 12.2182L67.8575 0.288619C67.3444 -0.0962065 66.703 -0.0962065 66.1899 0.288619Z" fill="white"/>
<path d="M71.7056 45.4415L81.9676 22.352L86.5855 19.7865V19.6582L76.3235 42.7478L71.7056 45.4415Z" fill="#E52138"/>
<path d="M71.7056 28.2526L82.8655 39.0277L86.5855 36.8471L76.3235 25.5588L71.7056 28.2526Z" fill="#E52138"/>
<path d="M57.7238 42.7478L62.3417 45.4416L57.5955 25.5589L52.0797 22.3521L47.3335 36.8472L51.0535 39.0278L51.9514 36.3341L56.9541 39.2844L57.7238 42.7478ZM52.8493 33.512L54.9017 27.0982L56.441 35.5644L52.8493 33.512Z" fill="#E52138"/>
<path d="M66.9599 26.9698C67.7391 26.9698 68.3709 26.338 68.3709 25.5587C68.3709 24.7794 67.7391 24.1477 66.9599 24.1477C66.1806 24.1477 65.5488 24.7794 65.5488 25.5587C65.5488 26.338 66.1806 26.9698 66.9599 26.9698Z" fill="#E52138"/>
<path d="M48.3598 15.2967C48.6432 15.2967 48.8729 15.067 48.8729 14.7836C48.8729 14.5002 48.6432 14.2705 48.3598 14.2705C48.0764 14.2705 47.8467 14.5002 47.8467 14.7836C47.8467 15.067 48.0764 15.2967 48.3598 15.2967Z" fill="#E52138"/>
<path d="M66.9595 24.1476L48.6161 14.3987L48.103 15.2966L65.9333 26.4566L66.9595 24.1476Z" fill="#E52138"/>
<path d="M85.6879 15.2967C85.9713 15.2967 86.201 15.067 86.201 14.7836C86.201 14.5002 85.9713 14.2705 85.6879 14.2705C85.4045 14.2705 85.1748 14.5002 85.1748 14.7836C85.1748 15.067 85.4045 15.2967 85.6879 15.2967Z" fill="#E52138"/>
<path d="M66.96 24.1476L85.4316 14.3987L85.9447 15.2966L68.1144 26.4566L66.96 24.1476Z" fill="#E52138"/>
<path d="M67.6012 46.0826H66.4468L65.5488 25.5586H68.3709L67.6012 46.0826Z" fill="#E52138"/>
<path d="M67.0878 46.596C67.3712 46.596 67.6009 46.3663 67.6009 46.0829C67.6009 45.7995 67.3712 45.5698 67.0878 45.5698C66.8044 45.5698 66.5747 45.7995 66.5747 46.0829C66.5747 46.3663 66.8044 46.596 67.0878 46.596Z" fill="#E52138"/>
<path d="M0 78.2802L5.64411 65.7092H7.43997L13.0841 78.2802H11.2882L6.15722 66.7354H6.92687L1.79585 78.2802H0ZM2.43723 75.0733L2.95033 73.6623H10.0055L10.5186 75.0733H2.43723Z" fill="white"/>
<path d="M14.2383 78.2801V64.5547H15.9059V71.3533L15.7776 73.534L15.9059 75.7146V78.2801H14.2383ZM19.241 78.2801C18.4714 78.2801 17.7017 78.1519 17.0603 77.767C16.419 77.3822 15.9059 76.8691 15.521 76.0995C15.1362 75.3298 15.0079 74.4319 15.0079 73.4057C15.0079 72.3795 15.2645 71.4816 15.6493 70.7119C16.0341 69.9423 16.5472 69.4291 17.1886 69.0443C17.83 68.6595 18.5996 68.5312 19.3693 68.5312C20.2672 68.5312 21.1651 68.7878 21.8065 69.1726C22.5762 69.5574 23.0893 70.1988 23.4741 70.8402C23.8589 71.6098 24.1155 72.3795 24.1155 73.4057C24.1155 74.4319 23.8589 75.2015 23.4741 75.9712C23.0893 76.7408 22.4479 77.2539 21.8065 77.6388C21.0369 78.1519 20.1389 78.2801 19.241 78.2801ZM19.1127 76.8691C19.7541 76.8691 20.2672 76.7408 20.7803 76.4843C21.2934 76.2277 21.6782 75.8429 21.9348 75.3298C22.1913 74.8167 22.3196 74.1753 22.3196 73.534C22.3196 72.8926 22.1913 72.2512 21.9348 71.7381C21.6782 71.225 21.2934 70.8402 20.7803 70.5836C20.2672 70.3271 19.7541 70.1988 19.1127 70.1988C18.4714 70.1988 17.9583 70.3271 17.4452 70.5836C16.9321 70.8402 16.5472 71.225 16.2907 71.7381C16.0341 72.2512 15.9059 72.7643 15.9059 73.534C15.9059 74.1753 16.0341 74.8167 16.2907 75.3298C16.5472 75.8429 16.9321 76.2277 17.4452 76.4843C17.9583 76.7408 18.4714 76.8691 19.1127 76.8691Z" fill="white"/>
<path d="M28.6055 78.2803C27.9641 78.2803 27.3228 78.152 26.8097 77.8955C26.2966 77.6389 25.9117 77.3824 25.5269 76.8693C25.2704 76.4845 25.1421 75.9714 25.1421 75.4583C25.1421 74.9452 25.2704 74.4321 25.5269 74.0472C25.7835 73.6624 26.1683 73.2776 26.6814 73.021C27.1945 72.7645 27.9641 72.6362 28.9903 72.6362H31.9407V73.919H28.9903C28.0924 73.919 27.5793 74.0472 27.1945 74.3038C26.9379 74.5603 26.8097 74.9452 26.8097 75.33C26.8097 75.8431 26.9379 76.2279 27.3228 76.4845C27.7076 76.741 28.2207 76.8693 28.8621 76.8693C29.5035 76.8693 30.0166 76.741 30.5297 76.4845C31.0428 76.2279 31.2993 75.8431 31.5559 75.2017L31.9407 76.3562C31.6841 76.8693 31.2993 77.3824 30.7862 77.6389C30.2731 78.152 29.5035 78.2803 28.6055 78.2803ZM31.8124 78.2803V76.2279L31.6841 75.8431V72.3797C31.6841 71.61 31.4276 71.0969 31.0428 70.7121C30.6579 70.3272 30.0166 70.0707 29.1186 70.0707C28.6055 70.0707 27.9641 70.199 27.451 70.3272C26.9379 70.4555 26.4248 70.7121 26.04 71.0969L25.2704 69.8141C25.7835 69.4293 26.2966 69.1728 27.0662 68.9162C27.7076 68.6597 28.4772 68.6597 29.2469 68.6597C30.5297 68.6597 31.5559 68.9162 32.1972 69.5576C32.8386 70.199 33.2234 71.0969 33.2234 72.5079V78.2803H31.8124Z" fill="white"/>
<path d="M40.6635 68.6597C41.4332 68.6597 42.0746 68.7879 42.7159 69.0445C43.3573 69.301 43.7421 69.8141 44.127 70.4555C44.5118 71.0969 44.6401 71.8666 44.6401 72.7645V78.2803H42.9725V73.021C42.9725 72.1231 42.7159 71.3534 42.3311 70.9686C41.9463 70.4555 41.3049 70.3272 40.407 70.3272C39.7656 70.3272 39.2525 70.4555 38.8677 70.7121C38.3546 70.9686 38.098 71.3535 37.8415 71.7383C37.5849 72.2514 37.4566 72.7645 37.4566 73.5341V78.2803H35.7891V68.7879H37.4566V71.3534L36.9435 70.5838C37.2001 69.9424 37.7132 69.4293 38.3546 69.1728C38.9959 68.7879 39.7656 68.6597 40.6635 68.6597Z" fill="white"/>
<path d="M50.4122 77.8955C49.5143 77.8955 48.6163 77.6389 47.975 77.2541C47.2053 76.8693 46.6922 76.3562 46.3074 75.5865C45.9226 74.9452 45.666 74.0472 45.666 73.1493C45.666 72.2514 45.9226 71.4817 46.3074 70.7121C46.6922 70.0707 47.3336 69.4293 47.975 69.1728C48.7446 68.7879 49.5143 68.6597 50.4122 68.6597C51.1819 68.6597 51.9515 68.7879 52.5929 69.1728C53.2343 69.5576 53.7474 69.9424 54.1322 70.7121C54.517 71.4817 54.7736 72.2514 54.7736 73.2776C54.7736 74.3038 54.517 75.2017 54.1322 75.8431C53.7474 76.4845 53.2343 76.9976 52.5929 77.3824C51.9515 77.6389 51.3101 77.8955 50.4122 77.8955ZM50.6688 81.872C49.7708 81.872 49.0012 81.7437 48.1032 81.4872C47.3336 81.2306 46.5639 80.8458 46.0508 80.461L46.8205 79.1782C47.2053 79.5631 47.8467 79.8196 48.4881 80.0762C49.1295 80.3327 49.7708 80.461 50.5405 80.461C51.695 80.461 52.4646 80.2044 52.9777 79.6913C53.4908 79.1782 53.7474 78.4086 53.7474 77.2541V75.2017L53.8756 73.2776L53.7474 71.3534V68.7879H55.4149V76.9976C55.4149 78.6651 55.0301 79.9479 54.1322 80.7175C53.4908 81.3589 52.3363 81.872 50.6688 81.872ZM50.6688 76.3562C51.3101 76.3562 51.8232 76.2279 52.3363 75.9714C52.8494 75.7148 53.2343 75.33 53.4908 74.8169C53.7474 74.3038 53.8756 73.7907 53.8756 73.1493C53.8756 72.5079 53.7474 71.9948 53.4908 71.4817C53.2343 70.9686 52.8494 70.7121 52.3363 70.4555C51.8232 70.199 51.3101 70.0707 50.6688 70.0707C50.0274 70.0707 49.5143 70.199 49.0012 70.4555C48.4881 70.7121 48.1032 71.0969 47.8467 71.4817C47.5901 71.9948 47.4619 72.5079 47.4619 73.1493C47.4619 73.7907 47.5901 74.3038 47.8467 74.8169C48.1032 75.33 48.4881 75.5865 49.0012 75.9714C49.5143 76.2279 50.0274 76.3562 50.6688 76.3562Z" fill="white"/>
<path d="M64.9074 75.843H71.706V78.2802H61.957V65.7092H71.706V68.0182H64.9074V75.843ZM64.7791 70.712H70.808V73.0209H64.7791V70.712Z" fill="white"/>
<path d="M72.8604 78.2803L77.2217 72.6362V74.1755L73.1169 68.6597H76.1955L78.761 72.2514H77.6065L80.3003 68.6597H83.2506L79.0176 74.1755V72.6362L83.3789 78.2803H80.172L77.4783 74.4321L78.6327 74.5603L75.939 78.2803H72.8604Z" fill="white"/>
<path d="M85.0464 82V68.5311H87.7402V70.5835V73.4056L87.8684 76.2276V81.8717H85.0464V82ZM90.6905 78.4083C89.9209 78.4083 89.1512 78.28 88.6381 77.8952C87.9967 77.5104 87.6119 76.9973 87.2271 76.2276C86.8422 75.458 86.714 74.56 86.714 73.4056C86.714 72.2511 86.8422 71.3532 87.2271 70.5835C87.6119 69.8139 87.9967 69.3008 88.6381 68.9159C89.2795 68.5311 89.9208 68.4028 90.8188 68.4028C91.7167 68.4028 92.6146 68.6594 93.256 69.0442C94.0257 69.429 94.5388 70.0704 94.9236 70.7118C95.3084 71.4814 95.565 72.3794 95.565 73.2773C95.565 74.3035 95.3084 75.2014 94.9236 75.8428C94.5388 76.6125 93.8974 77.1256 93.256 77.5104C92.4864 78.1518 91.5884 78.4083 90.6905 78.4083ZM90.1774 76.0994C90.6905 76.0994 91.0753 75.9711 91.4602 75.7145C91.845 75.458 92.1015 75.2014 92.3581 74.8166C92.6146 74.4318 92.7429 73.9187 92.7429 73.4056C92.7429 72.8925 92.6146 72.3794 92.3581 71.9945C92.1015 71.6097 91.845 71.3532 91.4602 71.0966C91.0753 70.8401 90.6905 70.8401 90.1774 70.8401C89.6643 70.8401 89.2795 70.9683 88.8946 71.0966C88.5098 71.3532 88.2533 71.6097 87.9967 71.9945C87.7402 72.3794 87.6119 72.8925 87.6119 73.4056C87.6119 73.9187 87.7402 74.4318 87.9967 74.8166C88.2533 75.2014 88.5098 75.5863 88.8946 75.7145C89.2795 75.9711 89.7926 76.0994 90.1774 76.0994Z" fill="white"/>
<path d="M97.1045 78.2802V68.6595H99.7983V71.3533L99.4134 70.5837C99.67 69.9423 100.183 69.4292 100.824 69.0443C101.466 68.6595 102.236 68.5312 103.133 68.5312V71.0968C103.005 71.0968 102.877 71.0968 102.877 71.0968C102.749 71.0968 102.62 71.0968 102.62 71.0968C101.851 71.0968 101.209 71.3533 100.696 71.7381C100.183 72.123 100.055 72.8926 100.055 73.7905V78.2802H97.1045Z" fill="white"/>
<path d="M109.676 78.4083C108.521 78.4083 107.623 78.1518 106.854 77.7669C106.084 77.3821 105.443 76.7407 104.929 75.9711C104.416 75.2014 104.288 74.4318 104.288 73.4056C104.288 72.5076 104.545 71.6097 104.929 70.8401C105.314 70.0704 105.956 69.5573 106.725 69.0442C107.495 68.6594 108.393 68.4028 109.419 68.4028C110.317 68.4028 111.215 68.6594 111.985 69.0442C112.754 69.429 113.396 70.0704 113.78 70.7118C114.165 71.4814 114.422 72.3794 114.422 73.4056C114.422 73.5338 114.422 73.6621 114.422 73.7904C114.422 73.9187 114.422 74.0469 114.422 74.1752H106.597V72.5076H113.011L111.856 73.0207C111.856 72.5076 111.728 72.1228 111.6 71.738C111.343 71.3532 111.087 71.0966 110.702 70.8401C110.317 70.5835 109.932 70.5835 109.419 70.5835C108.906 70.5835 108.521 70.7118 108.136 70.8401C107.752 71.0966 107.495 71.3532 107.238 71.738C106.982 72.1228 106.982 72.5076 106.982 73.0207V73.4056C106.982 73.9187 107.11 74.4318 107.367 74.8166C107.623 75.2014 107.88 75.458 108.393 75.7145C108.778 75.9711 109.291 75.9711 109.932 75.9711C110.445 75.9711 110.83 75.8428 111.215 75.7145C111.6 75.5863 111.985 75.3297 112.241 75.0731L113.78 76.7407C113.396 77.2538 112.754 77.6387 112.113 77.8952C111.343 78.28 110.574 78.4083 109.676 78.4083Z" fill="white"/>
<path d="M119.553 78.4083C118.783 78.4083 117.885 78.28 117.244 78.1518C116.474 77.8952 115.833 77.7669 115.448 77.3821L116.346 75.3297C116.859 75.5863 117.372 75.8428 117.885 75.9711C118.526 76.0994 119.039 76.2276 119.681 76.2276C120.322 76.2276 120.835 76.0994 121.092 75.9711C121.348 75.8428 121.477 75.5863 121.477 75.3297C121.477 75.0732 121.348 74.9449 121.22 74.8166C120.964 74.6883 120.707 74.56 120.45 74.56C120.066 74.56 119.681 74.4318 119.296 74.4318C118.911 74.4318 118.526 74.3035 118.013 74.1752C117.628 74.0469 117.244 73.9187 116.859 73.6621C116.474 73.4056 116.217 73.149 115.961 72.8925C115.704 72.5076 115.704 72.1228 115.704 71.6097C115.704 70.9683 115.833 70.4552 116.217 69.9421C116.602 69.429 117.115 69.0442 117.757 68.7877C118.398 68.5311 119.168 68.4028 120.194 68.4028C120.835 68.4028 121.477 68.5311 122.246 68.6594C122.888 68.7877 123.529 69.0442 123.914 69.3008L122.888 71.2249C122.375 70.9683 121.99 70.8401 121.477 70.7118C120.964 70.5835 120.579 70.5835 120.066 70.5835C119.424 70.5835 118.911 70.7118 118.655 70.8401C118.398 70.9683 118.27 71.2249 118.27 71.4814C118.27 71.738 118.398 71.8663 118.655 71.9945C118.911 72.1228 119.168 72.2511 119.553 72.2511C119.937 72.2511 120.322 72.3794 120.707 72.3794C121.092 72.3794 121.477 72.5076 121.99 72.6359C122.375 72.7642 122.759 72.8925 123.144 73.149C123.529 73.4056 123.786 73.6621 124.042 73.9187C124.299 74.3035 124.299 74.6883 124.299 75.2014C124.299 75.8428 124.17 76.3559 123.786 76.7407C123.401 77.2538 122.888 77.5104 122.246 77.7669C121.348 78.28 120.579 78.4083 119.553 78.4083Z" fill="white"/>
<path d="M129.302 78.4083C128.532 78.4083 127.634 78.28 126.993 78.1518C126.223 77.8952 125.582 77.7669 125.197 77.3821L126.095 75.3297C126.608 75.5863 127.121 75.8428 127.634 75.9711C128.275 76.0994 128.788 76.2276 129.43 76.2276C130.071 76.2276 130.584 76.0994 130.841 75.9711C131.097 75.8428 131.226 75.5863 131.226 75.3297C131.226 75.0732 131.097 74.9449 130.969 74.8166C130.713 74.6883 130.456 74.56 130.2 74.56C129.815 74.56 129.43 74.4318 129.045 74.4318C128.66 74.4318 128.275 74.3035 127.762 74.1752C127.377 74.0469 126.993 73.9187 126.608 73.6621C126.223 73.4056 125.966 73.149 125.71 72.8925C125.453 72.5076 125.453 72.1228 125.453 71.6097C125.453 70.9683 125.582 70.4552 125.966 69.9421C126.351 69.429 126.864 69.0442 127.506 68.7877C128.147 68.5311 128.917 68.4028 129.943 68.4028C130.584 68.4028 131.226 68.5311 131.995 68.6594C132.637 68.7877 133.278 69.0442 133.663 69.3008L132.765 71.3532C132.252 71.0966 131.867 70.9683 131.354 70.8401C130.841 70.7118 130.456 70.7118 129.943 70.7118C129.302 70.7118 128.788 70.8401 128.532 70.9683C128.275 71.0966 128.147 71.3532 128.147 71.6097C128.147 71.8663 128.275 71.9945 128.532 72.1228C128.788 72.2511 129.045 72.3794 129.43 72.3794C129.815 72.3794 130.2 72.5076 130.584 72.5076C130.969 72.5076 131.354 72.6359 131.867 72.7642C132.252 72.8925 132.637 73.0207 133.022 73.2773C133.406 73.5338 133.663 73.7904 133.919 74.0469C134.176 74.4318 134.176 74.8166 134.176 75.3297C134.176 75.9711 134.048 76.4842 133.663 76.869C133.278 77.3821 132.765 77.6387 132.124 77.8952C131.097 78.28 130.328 78.4083 129.302 78.4083Z" fill="white"/>
</svg>
