<svg width="22" height="24" viewBox="0 0 22 24" fill="none" xmlns="http://www.w3.org/2000/svg">
<path d="M10.0714 0.107143L0.357143 5.67857C0.142857 5.82143 0 6.03571 0 6.32143V17.6071C0 17.8929 0.142857 18.1071 0.357143 18.25L10.1428 23.8929C10.3571 24.0357 10.6428 24.0357 10.9286 23.8929L20.7143 18.25C20.9286 18.1071 21.0714 17.8929 21.0714 17.6071V6.39286C21.0714 6.10714 20.9286 5.89286 20.7143 5.75L10.9286 0.107143C10.6428 -0.0357143 10.3571 -0.0357143 10.0714 0.107143Z" fill="white"/>
<path d="M12.7144 21.3929L17.5001 10.4643L19.6429 9.25H19.7144L14.8572 20.1071L12.7144 21.3214V21.3929Z" fill="#E52138"/>
<path d="M12.7144 13.2499L17.9287 18.3214L19.7144 17.3214L14.8572 12.0356L12.7144 13.2499Z" fill="#E52138"/>
<path d="M6.07137 20.1071L8.28566 21.3928L6.07137 12.0356L3.49993 10.5356L1.28564 17.3928L3.07136 18.3928L3.49993 17.1071L5.85707 18.4642L6.07137 20.1071ZM3.85708 15.7499L4.78564 12.7499L5.49993 16.7499L3.85708 15.7499Z" fill="#E52138"/>
<path d="M10.5003 12.6788C10.8553 12.6788 11.1431 12.391 11.1431 12.0359C11.1431 11.6809 10.8553 11.3931 10.5003 11.3931C10.1452 11.3931 9.85742 11.6809 9.85742 12.0359C9.85742 12.391 10.1452 12.6788 10.5003 12.6788Z" fill="#E52138"/>
<path d="M1.71428 7.17857C1.83262 7.17857 1.92855 7.08263 1.92855 6.96429C1.92855 6.84594 1.83262 6.75 1.71428 6.75C1.59593 6.75 1.5 6.84594 1.5 6.96429C1.5 7.08263 1.59593 7.17857 1.71428 7.17857Z" fill="#E52138"/>
<path d="M10.4999 11.3214L1.85702 6.75L1.57129 7.17857L9.99987 12.3929L10.4999 11.3214Z" fill="#E52138"/>
<path d="M19.2143 7.17857C19.3326 7.17857 19.4286 7.08263 19.4286 6.96429C19.4286 6.84594 19.3326 6.75 19.2143 6.75C19.0959 6.75 19 6.84594 19 6.96429C19 7.08263 19.0959 7.17857 19.2143 7.17857Z" fill="#E52138"/>
<path d="M10.5005 11.3214L19.1433 6.75L19.3576 7.17857L11.0005 12.3929L10.5005 11.3214Z" fill="#E52138"/>
<path d="M10.7147 21.6071H10.2147L9.78613 12.0356H11.1433L10.7147 21.6071Z" fill="#E52138"/>
<path d="M10.4999 21.8214C10.6183 21.8214 10.7142 21.7255 10.7142 21.6071C10.7142 21.4888 10.6183 21.3928 10.4999 21.3928C10.3816 21.3928 10.2856 21.4888 10.2856 21.6071C10.2856 21.7255 10.3816 21.8214 10.4999 21.8214Z" fill="#E52138"/>
</svg>
