<svg width="141" height="24" viewBox="0 0 141 24" fill="none" xmlns="http://www.w3.org/2000/svg">
<path d="M10.0714 0.107143L0.357143 5.67857C0.142857 5.82143 0 6.03571 0 6.32143V17.6071C0 17.8929 0.142857 18.1071 0.357143 18.25L10.1428 23.8929C10.3571 24.0357 10.6428 24.0357 10.9286 23.8929L20.7143 18.25C20.9286 18.1071 21.0714 17.8929 21.0714 17.6071V6.39286C21.0714 6.10714 20.9286 5.89286 20.7143 5.75L10.9286 0.107143C10.6428 -0.0357143 10.3571 -0.0357143 10.0714 0.107143Z" fill="white"/>
<path d="M12.7144 21.3929L17.5001 10.4643L19.6429 9.25H19.7144L14.8572 20.1071L12.7144 21.3214V21.3929Z" fill="#E52138"/>
<path d="M12.7144 13.2499L17.9287 18.3214L19.7144 17.3214L14.8572 12.0356L12.7144 13.2499Z" fill="#E52138"/>
<path d="M6.07137 20.1071L8.28566 21.3928L6.07137 12.0356L3.49993 10.5356L1.28564 17.3928L3.07136 18.3928L3.49993 17.1071L5.85707 18.4642L6.07137 20.1071ZM3.85708 15.7499L4.78564 12.7499L5.49993 16.7499L3.85708 15.7499Z" fill="#E52138"/>
<path d="M10.5003 12.6785C10.8553 12.6785 11.1431 12.3907 11.1431 12.0357C11.1431 11.6806 10.8553 11.3928 10.5003 11.3928C10.1452 11.3928 9.85742 11.6806 9.85742 12.0357C9.85742 12.3907 10.1452 12.6785 10.5003 12.6785Z" fill="#E52138"/>
<path d="M1.71428 7.17857C1.83262 7.17857 1.92855 7.08263 1.92855 6.96429C1.92855 6.84594 1.83262 6.75 1.71428 6.75C1.59593 6.75 1.5 6.84594 1.5 6.96429C1.5 7.08263 1.59593 7.17857 1.71428 7.17857Z" fill="#E52138"/>
<path d="M10.4999 11.3214L1.85702 6.75L1.57129 7.17857L9.99987 12.3929L10.4999 11.3214Z" fill="#E52138"/>
<path d="M19.2143 7.17857C19.3326 7.17857 19.4286 7.08263 19.4286 6.96429C19.4286 6.84594 19.3326 6.75 19.2143 6.75C19.0959 6.75 19 6.84594 19 6.96429C19 7.08263 19.0959 7.17857 19.2143 7.17857Z" fill="#E52138"/>
<path d="M10.5 11.3214L19.1429 6.75L19.3572 7.17857L11 12.3929L10.5 11.3214Z" fill="#E52138"/>
<path d="M10.7147 21.6071H10.2147L9.78613 12.0356H11.1433L10.7147 21.6071Z" fill="#E52138"/>
<path d="M10.4999 21.8214C10.6183 21.8214 10.7142 21.7255 10.7142 21.6071C10.7142 21.4888 10.6183 21.3928 10.4999 21.3928C10.3816 21.3928 10.2856 21.4888 10.2856 21.6071C10.2856 21.7255 10.3816 21.8214 10.4999 21.8214Z" fill="#E52138"/>
<path d="M31.5 17.1071L36.1429 6.89282H37.5714L42.2143 17.1071H40.7143L36.5714 7.74996H37.1429L33 17.1071H31.5ZM33.5 14.5357L33.9286 13.3928H39.6429L40.0714 14.5357H33.5Z" fill="white"/>
<path d="M43.0713 17.1072V5.96436H44.4999V11.3929L44.357 13.1786L44.4284 14.9644V17.1072H43.0713ZM47.1427 17.1786C46.4999 17.1786 45.857 17.0358 45.357 16.7501C44.857 16.4644 44.4284 16.0358 44.0713 15.4644C43.7856 14.8929 43.6427 14.1786 43.6427 13.2501C43.6427 12.3929 43.7856 11.6786 44.1427 11.0358C44.4284 10.4644 44.857 10.0358 45.4284 9.75007C45.9284 9.46436 46.5713 9.3215 47.2142 9.3215C47.9999 9.3215 48.6427 9.46436 49.2142 9.8215C49.7856 10.1786 50.2856 10.6072 50.5713 11.1786C50.9284 11.7501 51.0713 12.4644 51.0713 13.2501C51.0713 14.0358 50.9284 14.7501 50.5713 15.3215C50.2141 15.8929 49.7856 16.3929 49.2142 16.6786C48.5713 17.0358 47.9284 17.1786 47.1427 17.1786ZM47.0713 15.9644C47.5713 15.9644 47.9999 15.8215 48.4284 15.6072C48.857 15.3929 49.1427 15.0358 49.357 14.6786C49.5713 14.2501 49.7142 13.8215 49.7142 13.2501C49.7142 12.6786 49.5713 12.2501 49.357 11.8215C49.1427 11.3929 48.7856 11.1072 48.4284 10.8929C47.9999 10.6786 47.5713 10.5358 47.0713 10.5358C46.5713 10.5358 46.1427 10.6786 45.7856 10.8929C45.357 11.1072 45.0713 11.4644 44.857 11.8215C44.6427 12.2501 44.4999 12.6786 44.4999 13.2501C44.4999 13.8215 44.6427 14.2501 44.857 14.6786C45.0713 15.1072 45.4284 15.3929 45.7856 15.6072C46.1427 15.8215 46.5713 15.9644 47.0713 15.9644Z" fill="white"/>
<path d="M54.7859 17.1786C54.2144 17.1786 53.7144 17.1071 53.2859 16.8929C52.8573 16.6786 52.5001 16.4643 52.2859 16.1071C52.0716 15.75 51.9287 15.3929 51.9287 14.9643C51.9287 14.5357 52.0002 14.1786 52.2144 13.8214C52.4287 13.4643 52.7144 13.1786 53.2144 13.0357C53.643 12.8214 54.2859 12.75 55.0716 12.75H57.5002V13.75H55.143C54.4287 13.75 54.0001 13.8929 53.7144 14.1071C53.5001 14.3214 53.3573 14.6071 53.3573 14.9643C53.3573 15.3214 53.5001 15.6786 53.7859 15.8929C54.0716 16.1071 54.5002 16.25 55.0716 16.25C55.5716 16.25 56.0716 16.1071 56.4287 15.8929C56.8573 15.6786 57.0716 15.3214 57.2859 14.8929L57.5716 15.8214C57.3573 16.25 57.0716 16.6071 56.5716 16.8929C56.0716 17.0357 55.5001 17.1786 54.7859 17.1786ZM57.3573 17.1071V15.4643L57.2859 15.1786V12.3929C57.2859 11.8214 57.143 11.3214 56.7859 11.0357C56.4287 10.6786 55.9287 10.5357 55.2144 10.5357C54.7859 10.5357 54.2859 10.6071 53.8573 10.75C53.4287 10.8929 53.0716 11.1071 52.7859 11.3214L52.2144 10.25C52.643 9.96429 53.0716 9.67857 53.643 9.53571C54.2144 9.39286 54.7859 9.25 55.4287 9.25C56.5002 9.25 57.2859 9.53571 57.8573 10.0357C58.4287 10.5357 58.7144 11.3214 58.7144 12.3929V17.1071H57.3573Z" fill="white"/>
<path d="M64.5003 9.32153C65.1431 9.32153 65.7146 9.46439 66.1431 9.67868C66.6431 9.89296 67.0003 10.3215 67.286 10.7501C67.5717 11.2501 67.7146 11.893 67.7146 12.6072V17.1072H66.286V12.8215C66.286 12.1072 66.0717 11.5358 65.7146 11.1072C65.3574 10.6787 64.8574 10.5358 64.2146 10.5358C63.7146 10.5358 63.286 10.6072 62.9289 10.8215C62.5717 11.0358 62.286 11.3215 62.0717 11.6787C61.8574 12.0358 61.786 12.5358 61.786 13.1072V17.1072H60.3574V9.39296H61.7146V11.4644L61.5003 10.893C61.786 10.393 62.1431 9.96439 62.6431 9.67868C63.2146 9.46439 63.8574 9.32153 64.5003 9.32153Z" fill="white"/>
<path d="M72.4999 16.7501C71.7856 16.7501 71.0713 16.6072 70.4998 16.2501C69.9284 15.9644 69.4284 15.4644 69.0713 14.9644C68.7141 14.393 68.5713 13.7501 68.5713 13.0358C68.5713 12.3215 68.7141 11.6072 69.0713 11.1072C69.4284 10.5358 69.857 10.1072 70.4998 9.82153C71.0713 9.53582 71.7856 9.32153 72.4999 9.32153C73.1427 9.32153 73.7856 9.46439 74.2856 9.7501C74.857 10.0358 75.2856 10.393 75.5713 10.9644C75.9284 11.5358 76.0713 12.2501 76.0713 13.0358C76.0713 13.893 75.9284 14.5358 75.5713 15.1072C75.2141 15.6787 74.7856 16.1072 74.2856 16.3215C73.7856 16.6072 73.1427 16.7501 72.4999 16.7501ZM72.7141 19.9644C71.9999 19.9644 71.2856 19.893 70.6427 19.6787C69.9999 19.4644 69.4284 19.1787 68.9999 18.8215L69.6427 17.7501C69.9999 18.0358 70.4284 18.3215 70.9999 18.4644C71.4999 18.6787 72.0713 18.7501 72.6427 18.7501C73.5713 18.7501 74.2141 18.5358 74.6427 18.1072C75.0713 17.6787 75.2856 17.0358 75.2856 16.1787V14.5358L75.4284 13.0358L75.357 11.4644V9.32153H76.7141V15.9644C76.7141 17.3215 76.357 18.3215 75.7141 18.9644C74.9999 19.6787 73.9999 19.9644 72.7141 19.9644ZM72.6427 15.5358C73.1427 15.5358 73.6427 15.4644 73.9999 15.2501C74.4284 15.0358 74.7141 14.7501 74.9284 14.393C75.1427 14.0358 75.2856 13.6072 75.2856 13.1072C75.2856 12.6072 75.1427 12.1787 74.9284 11.8215C74.7141 11.4644 74.357 11.1787 73.9999 10.9644C73.5713 10.7501 73.1427 10.6787 72.6427 10.6787C72.1427 10.6787 71.6427 10.7501 71.2856 10.9644C70.857 11.1787 70.5713 11.4644 70.357 11.8215C70.1427 12.1787 69.9999 12.6072 69.9999 13.1072C69.9999 13.6072 70.1427 14.0358 70.357 14.393C70.5713 14.7501 70.9284 15.0358 71.2856 15.2501C71.7141 15.4644 72.1427 15.5358 72.6427 15.5358Z" fill="white"/>
<path d="M84.2857 15.1785H89.8571V17.1071H82V6.89282H89.8571V8.74996H84.2857V15.1785ZM84.1429 10.9643H89.0714V12.8214H84.1429V10.9643Z" fill="white"/>
<path d="M90.7144 17.1072L94.2144 12.5358L94.1429 13.8215L90.7858 9.32153H93.2858L95.4286 12.2501H94.5001L96.7144 9.32153H99.1429L95.7858 13.7501V12.5358L99.2858 17.1787H96.7144L94.5001 14.0358L95.4286 14.1787L93.2144 17.1787H90.7144V17.1072Z" fill="white"/>
<path d="M100.571 20.1071V9.24993H102.714V10.8214L102.643 13.1785L102.786 15.4642V20.0356H100.571V20.1071ZM105.214 17.1785C104.571 17.1785 104 17.0356 103.5 16.7499C103 16.4642 102.643 16.0356 102.357 15.3928C102.071 14.8214 101.928 14.0356 101.928 13.1071C101.928 12.1785 102.071 11.3928 102.357 10.8214C102.643 10.2499 103 9.82136 103.5 9.46421C104 9.1785 104.571 9.03564 105.286 9.03564C106 9.03564 106.714 9.1785 107.286 9.53564C107.857 9.89279 108.357 10.3214 108.714 10.9642C109.071 11.5356 109.214 12.2499 109.214 13.1071C109.214 13.9642 109.071 14.6785 108.714 15.2499C108.357 15.8214 107.928 16.3214 107.286 16.6785C106.643 17.0356 105.928 17.1785 105.214 17.1785ZM104.857 15.3214C105.214 15.3214 105.571 15.2499 105.857 15.0356C106.143 14.8928 106.357 14.6071 106.571 14.3214C106.786 13.9642 106.857 13.6071 106.857 13.1785C106.857 12.7499 106.786 12.3214 106.571 12.0356C106.357 11.7499 106.143 11.4642 105.857 11.3214C105.571 11.1785 105.214 11.0356 104.857 11.0356C104.5 11.0356 104.143 11.1071 103.857 11.3214C103.571 11.4642 103.286 11.7499 103.143 12.0356C102.928 12.3214 102.857 12.7499 102.857 13.1785C102.857 13.6071 102.928 14.0356 103.143 14.3214C103.357 14.6785 103.571 14.8928 103.857 15.0356C104.071 15.2499 104.428 15.3214 104.857 15.3214Z" fill="white"/>
<path d="M110.429 17.1072V9.25004H112.572V11.4643L112.286 10.8215C112.5 10.25 112.857 9.82146 113.429 9.53575C113.929 9.25004 114.572 9.10718 115.286 9.10718V11.25C115.214 11.25 115.143 11.25 115 11.1786C114.929 11.1786 114.857 11.1786 114.786 11.1786C114.143 11.1786 113.643 11.3929 113.286 11.75C112.929 12.1072 112.714 12.6786 112.714 13.3929V17.1072H110.429Z" fill="white"/>
<path d="M120.643 17.1787C119.714 17.1787 119 17.0359 118.286 16.6787C117.643 16.3216 117.072 15.8216 116.714 15.2501C116.357 14.6787 116.143 13.9644 116.143 13.1787C116.143 12.393 116.286 11.6787 116.643 11.1073C117 10.4644 117.5 10.0359 118.143 9.67871C118.786 9.32157 119.5 9.17871 120.286 9.17871C121.072 9.17871 121.715 9.32157 122.357 9.67871C123 10.0359 123.429 10.4644 123.786 11.1073C124.143 11.6787 124.357 12.4644 124.357 13.2501C124.357 13.3216 124.357 13.4644 124.357 13.5359C124.357 13.6787 124.357 13.7501 124.357 13.8216H118V12.4644H123.143L122.286 12.893C122.286 12.4644 122.214 12.1073 122.072 11.8216C121.929 11.5359 121.643 11.2501 121.357 11.1073C121.072 10.9644 120.714 10.8216 120.357 10.8216C120 10.8216 119.643 10.893 119.357 11.1073C119.072 11.2501 118.857 11.5359 118.643 11.8216C118.5 12.1073 118.429 12.4644 118.429 12.893V13.2501C118.429 13.6787 118.5 14.0359 118.714 14.393C118.929 14.6787 119.143 14.9644 119.5 15.1073C119.857 15.2501 120.214 15.393 120.714 15.393C121.143 15.393 121.5 15.3216 121.786 15.1787C122.072 15.0359 122.357 14.893 122.643 14.6073L123.857 15.893C123.5 16.3216 123.072 16.6073 122.5 16.8216C121.929 17.1073 121.357 17.1787 120.643 17.1787Z" fill="white"/>
<path d="M128.643 17.1787C128 17.1787 127.357 17.1073 126.714 16.9644C126.071 16.8216 125.643 16.6073 125.214 16.393L125.929 14.7501C126.286 14.9644 126.714 15.1073 127.214 15.2501C127.714 15.393 128.214 15.4644 128.643 15.4644C129.143 15.4644 129.571 15.393 129.786 15.2501C130 15.1073 130.143 14.9644 130.143 14.7501C130.143 14.5359 130.071 14.393 129.857 14.3216C129.714 14.2501 129.429 14.1787 129.214 14.1073C128.929 14.0359 128.643 14.0359 128.286 13.9644C127.929 13.893 127.643 13.8216 127.286 13.7501C126.929 13.6787 126.643 13.5359 126.357 13.393C126.071 13.2501 125.857 13.0359 125.643 12.7501C125.5 12.4644 125.357 12.1073 125.357 11.6787C125.357 11.1787 125.5 10.7501 125.786 10.393C126.071 10.0359 126.5 9.67871 127 9.46442C127.5 9.25014 128.214 9.17871 128.929 9.17871C129.5 9.17871 130 9.25014 130.571 9.393C131.143 9.53585 131.571 9.67871 131.929 9.893L131.143 11.5359C130.786 11.3216 130.429 11.1787 130 11.1073C129.643 11.0359 129.286 10.9644 128.929 10.9644C128.429 10.9644 128 11.0359 127.786 11.1787C127.571 11.3216 127.429 11.4644 127.429 11.6787C127.429 11.893 127.5 12.0359 127.714 12.1073C127.857 12.1787 128.143 12.2501 128.429 12.3216C128.714 12.393 129 12.393 129.357 12.4644C129.714 12.5359 130 12.6073 130.357 12.6787C130.714 12.7501 131 12.893 131.286 13.0359C131.571 13.1787 131.786 13.393 132 13.6787C132.143 13.9644 132.286 14.3216 132.286 14.7501C132.286 15.2501 132.143 15.6787 131.857 16.0359C131.571 16.393 131.143 16.6787 130.571 16.893C130 17.1073 129.429 17.1787 128.643 17.1787Z" fill="white"/>
<path d="M136.643 17.1787C136 17.1787 135.357 17.1073 134.714 16.9644C134.072 16.8216 133.643 16.6073 133.214 16.393L133.929 14.7501C134.286 14.9644 134.714 15.1073 135.214 15.2501C135.714 15.393 136.214 15.4644 136.643 15.4644C137.143 15.4644 137.572 15.393 137.786 15.2501C138 15.1073 138.143 14.9644 138.143 14.7501C138.143 14.5359 138.071 14.393 137.857 14.3216C137.714 14.2501 137.429 14.1787 137.214 14.1073C136.929 14.0359 136.643 14.0359 136.286 13.9644C135.929 13.893 135.643 13.8216 135.286 13.7501C134.929 13.6787 134.643 13.5359 134.357 13.393C134.072 13.2501 133.857 13.0359 133.643 12.7501C133.5 12.4644 133.357 12.1073 133.357 11.6787C133.357 11.1787 133.5 10.7501 133.786 10.393C134.072 10.0359 134.5 9.67871 135 9.46442C135.5 9.25014 136.214 9.17871 136.929 9.17871C137.5 9.17871 138 9.25014 138.571 9.393C139.143 9.53585 139.572 9.67871 139.929 9.893L139.143 11.5359C138.786 11.3216 138.429 11.1787 138 11.1073C137.643 11.0359 137.286 10.9644 136.929 10.9644C136.429 10.9644 136 11.0359 135.786 11.1787C135.572 11.3216 135.429 11.4644 135.429 11.6787C135.429 11.893 135.5 12.0359 135.714 12.1073C135.857 12.1787 136.143 12.2501 136.429 12.3216C136.714 12.393 137 12.393 137.357 12.4644C137.714 12.5359 138 12.6073 138.357 12.6787C138.714 12.7501 139 12.893 139.286 13.0359C139.571 13.1787 139.786 13.393 140 13.6787C140.143 13.9644 140.286 14.3216 140.286 14.7501C140.286 15.2501 140.143 15.6787 139.857 16.0359C139.572 16.393 139.143 16.6787 138.571 16.893C138 17.1073 137.429 17.1787 136.643 17.1787Z" fill="white"/>
</svg>
